/* XPM */
static const char *refresh_32[] = {
/* columns rows colors chars-per-pixel */
"32 32 83 1 ",
"  c #19355F",
". c #1A3764",
"X c #1A3D6D",
"o c #1B3D70",
"O c #1C4276",
"+ c #1E447C",
"@ c #1F4781",
"# c #1F4882",
"$ c #204A87",
"% c #234D89",
"& c #27518B",
"* c #2B548E",
"= c #2D5690",
"- c #2F5E9A",
"; c #315A94",
": c #315E9A",
"> c #33619F",
", c #3C639A",
"< c #3565A4",
"1 c #3B67A1",
"2 c #3768A6",
"3 c #3A69A5",
"4 c #3C6CAA",
"5 c #41679C",
"6 c #41699E",
"7 c #436CA3",
"8 c #486FA2",
"9 c #416FAA",
"0 c #4B72A5",
"q c #4372AD",
"w c #4B76AB",
"e c #4676B1",
"r c #4877B1",
"t c #4C7BB4",
"y c #4C7CBA",
"u c #517EB5",
"i c #517FBB",
"p c #5581B6",
"a c #5A81B3",
"s c #5483BA",
"d c #5A86BC",
"f c #5B89BE",
"g c #6187B4",
"h c #6289B6",
"j c #658CBC",
"k c #6A8EBB",
"l c #6F91BD",
"z c #7397BF",
"x c #5684C0",
"c c #5986C1",
"v c #5E8CC1",
"b c #628FC2",
"n c #6592C5",
"m c #6B94C4",
"M c #6997C8",
"N c #6C99CB",
"B c #7195C3",
"V c #7599C5",
"C c #7A9DC6",
"Z c #739DCB",
"A c #7B9FC9",
"S c #7CA1CC",
"D c #7BA4D2",
"F c #82A4CC",
"G c #88A9CF",
"H c #83A9D3",
"J c #8CADD2",
"K c #90AFD2",
"L c #8CB1D7",
"P c #92B1D3",
"I c #93B4DA",
"U c #99B7D8",
"Y c #9CBBDC",
"T c #A1BEDD",
"R c #ACC5E2",
"E c #AEC9E3",
"W c #B3CCE5",
"Q c #BAD2E6",
"! c #BFD2E9",
"~ c #C2D6E9",
"^ c #C7D9EC",
"/ c #CCDDEE",
"( c None",
/* pixels */
"((((((((((((((((((((((((((((((((",
"((((((((((((((((((((((((((((((((",
"((((((((((((%&%%$&&(((((((((((((",
"((((((((((%6lKUTTPFa*%(((((($(((",
"((((((((%1PYLDZMNZDJUV*(((($$(((",
"(((((((%ZTHNNMMMnmnnnDK0%(%C$(((",
"((((((=KIZNNMMMnnnbvbvnJk%VK$(((",
"(((((%JHNNNMnnnnbbvvffdfFGAJ$(((",
"(((($lLMMMMnMADKJSmfvdxssMpG#(((",
"((((;IZMMnbMJk0==0lFvdsppuuF$(((",
"(((%SDnnnbZF,%(((($,SmsputtS$(((",
"(((;LnnnbmF*((((((($*AjutttS$(((",
"((%wFnnvvD,((((((((%jmtttrrZ$(((",
"((&jZnvvBh%((((((($jCZVVBBBB$(((",
"((%BMvvvZ6(((((((%$$$$$$$$$$$(((",
"((%SbdddA*((((((((((((((((((((((",
"(($CvdssZ*((((((((((((((((((((((",
"((%mfdssb,((((((((((((((((((((((",
"((%ffsssfw$((((((((((((/((((((((",
"((#0fstsuj=((((((((((VW!~~^(((((",
"(((=jstttua%((((((((0KEEWWQ~P(((",
"(((%pptrrruu=#((((%=lILIYTRRj(((",
"((((;dtreeqwu7;%%;9NZMNZDHIg8(((",
"(((($qtq9q9499rrttiiixvvnZn&((((",
"(((((%qr94944222<<249eyicn*(((((",
"((((((%9w444222<<<<<<<2qi*O(((((",
"((((((($:9422<<<<<<<<291&o((((((",
"((((((((@$<322<<<<2242*+((((((((",
"(((((((((.@$&-<<>>-*&$((((((((((",
"((((((((((((o+#%$@o.((((((((((((",
"((((((((((((((((((((((((((((((((",
"(((((((((((((((((((((((((((((((("
};
