/* XPM */
static const char *battery_missing_16[] = {
/* columns rows colors chars-per-pixel */
"16 16 106 2 ",
"   c #EF2929",
".  c #ED3131",
"X  c #EE3232",
"o  c #EB3535",
"O  c #F03030",
"+  c #B75F5C",
"@  c #D8807F",
"#  c #888A85",
"$  c #898B86",
"%  c #8A8C87",
"&  c #8B8D88",
"*  c #8C8E89",
"=  c #9C9E99",
"-  c #9FA09D",
";  c #A7A8A5",
":  c #ABACAA",
">  c #ACADAA",
",  c #B0B1AF",
"<  c #B1B2B0",
"1  c #B4B5B3",
"2  c #B5B6B4",
"3  c #B7B8B5",
"4  c #B8B9B7",
"5  c #BABBB9",
"6  c #BCBDBB",
"7  c #BDBEBC",
"8  c #BFC0BE",
"9  c #C1C2C0",
"0  c #C2C3C0",
"q  c #C2C2C1",
"w  c #C4C5C3",
"e  c #C6C7C5",
"r  c #C9CAC8",
"t  c #CACBC9",
"y  c #CACBCA",
"u  c #CBCCC9",
"i  c #CCCDCB",
"p  c #CFCFCD",
"a  c #CECFCE",
"s  c #CFCFCE",
"d  c #CFD0CE",
"f  c #D0D1CF",
"g  c #D1D2D0",
"h  c #D2D3D1",
"j  c #D3D4D2",
"k  c #D3D4D3",
"l  c #D4D4D2",
"z  c #D4D5D3",
"x  c #D6D7D5",
"c  c #D8D8D7",
"v  c #D8D9D7",
"b  c #D8D9D8",
"n  c #D9DAD8",
"m  c #DBDCDA",
"M  c #DBDCDB",
"N  c #DCDDDB",
"B  c #DCDDDC",
"V  c #DDDDDD",
"C  c #DDDEDD",
"Z  c #DEDEDD",
"A  c #E0E0DF",
"S  c #E0E1DF",
"D  c gray88",
"F  c #E1E1E0",
"G  c #E3E3E2",
"H  c #E3E4E2",
"J  c #E4E4E3",
"K  c #E5E6E5",
"L  c #E6E6E5",
"P  c #E7E7E6",
"I  c #E8E9E8",
"U  c #E9E9E8",
"Y  c #EAEAE9",
"T  c #EAEBEA",
"R  c #EBEBEA",
"E  c gray92",
"W  c #EBECEB",
"Q  c #ECEDEC",
"!  c #EDEDEC",
"~  c #EEEEED",
"^  c #EEEEEE",
"/  c #EEEFEE",
"(  c #EFEFEE",
")  c #EFF0EF",
"_  c #F0F0EF",
"`  c gray94",
"'  c #F0F1F0",
"]  c #F1F1F1",
"[  c #F1F2F1",
"{  c #F2F2F1",
"}  c #F2F3F2",
"|  c #F3F3F2",
" . c #F3F3F3",
".. c #F3F4F3",
"X. c #F4F4F4",
"o. c #F4F5F4",
"O. c gray96",
"+. c #F5F6F5",
"@. c #F6F7F6",
"#. c gray97",
"$. c #F7F8F7",
"%. c #F8F8F8",
"&. c #F9F9F9",
"*. c gray98",
"=. c gray100",
"-. c None",
/* pixels */
"-.-.-.-.-.* % # -.-.-.-.-.-.-.-.",
"-.-.-.-.* ] %.^ & -.-.-.-.-.-.-.",
"& % % % = @.V ^ = % % % % -.-.-.",
"# =.=.=.=.=.=.=.=.=.=.=.# -.-.-.",
"# $.T T T G M x b M A  .# -.-.-.",
"# @.I *.*.@.c h z c M  .# -.-.-.",
"# @.J %.@.@.h i a j b  .# -.-.-.",
"# @.G  . ._ s e r a h  .# -.-.-.",
"# ..A _ ^ T t 0 w t f ^ # -.-.-.",
"# ..V W T G e 6 8 @ .         -.",
"#  .M L J M 0 3 5 . =.=.  =.=.  ",
"# _ c A V l 7 , 2   =.=.=.=.=.  ",
"# ) x c x t 4 > ,   O =.=.=.O   ",
"# ) j j f 0 2 ; :   =.=.=.=.=.  ",
"% P W W T L G M V . =.=.O =.=.  ",
"-.* % % % # # # # + o O   O O -."
};
