/* XPM */
static const char *battery_good_16[] = {
/* columns rows colors chars-per-pixel */
"16 16 111 2 ",
"   c #204A87",
".  c #224B88",
"X  c #2D558E",
"o  c #3A5F95",
"O  c #37619B",
"+  c #3B68A3",
"@  c #486B9D",
"#  c #436BA1",
"$  c #4772A9",
"%  c #4674AD",
"&  c #5575A4",
"*  c #5075A8",
"=  c #557CAF",
"-  c #5D7FAE",
";  c #517CB2",
":  c #5E86B8",
">  c #5F8ABE",
",  c #6280AB",
"<  c #6185B4",
"1  c #6989B5",
"2  c #6088BA",
"3  c #6D8FBA",
"4  c #698EBD",
"5  c #708BB2",
"6  c #6992C2",
"7  c #7597C2",
"8  c #7499C6",
"9  c #7B9CC6",
"0  c #749BC9",
"q  c #7EA1CB",
"w  c #888A85",
"e  c #898B86",
"r  c #8A8C87",
"t  c #8B8C88",
"y  c #8B8D88",
"u  c #8C8E89",
"i  c #9C9E99",
"p  c #9FA09D",
"a  c #88A8CF",
"s  c #84AAD4",
"d  c #8CACD2",
"f  c #94AFD1",
"g  c #99B9DC",
"h  c #A2BCDB",
"j  c #ACC1DB",
"k  c #ADC6E2",
"l  c #B6CAE2",
"z  c #BDD2E8",
"x  c #CCCDCB",
"c  c #CECFCD",
"v  c #D1D2D0",
"b  c #D3D4D2",
"n  c #D3D4D3",
"m  c #D6D7D5",
"M  c #D8D8D7",
"N  c #D8D9D7",
"B  c #D8D9D8",
"V  c #DBDCDB",
"C  c #DCDDDB",
"Z  c #DCDDDC",
"A  c #DDDDDC",
"S  c #DEDEDD",
"D  c #C7D2E1",
"F  c #C0D0E4",
"G  c #C9D3E2",
"H  c #CAD4E2",
"J  c #C7D7E9",
"K  c #CDDDEE",
"L  c gray88",
"P  c #E1E1E0",
"I  c #E2E2E1",
"U  c #E3E3E2",
"Y  c #E3E4E3",
"T  c #E5E6E5",
"R  c #E6E6E5",
"E  c #E7E7E6",
"W  c #E8E8E7",
"Q  c #E8E9E8",
"!  c #E9E9E8",
"~  c #EAEBEA",
"^  c #EBEBEA",
"/  c gray92",
"(  c #ECECEB",
")  c #ECEDEC",
"_  c #EDEDEC",
"`  c gray93",
"'  c #EEEEED",
"]  c #EEEEEE",
"[  c #EEEFEE",
"{  c #EFEFEE",
"}  c #EFF0EF",
"|  c gray94",
" . c #F0F1F0",
".. c #F1F1F0",
"X. c #F1F2F1",
"o. c #F2F2F1",
"O. c #F2F3F2",
"+. c #F3F3F2",
"@. c #F3F4F3",
"#. c #F4F4F4",
"$. c #F4F5F4",
"%. c gray96",
"&. c #F5F6F5",
"*. c #F6F7F6",
"=. c gray97",
"-. c #F7F8F7",
";. c #F8F8F8",
":. c #F9F9F9",
">. c gray98",
",. c gray100",
"<. c None",
/* pixels */
"<.<.<.<.<.<.u y t <.<.<.<.<.<.<.",
"<.<.<.<.<.u @.&.` r <.<.<.<.<.<.",
"<.y r r w p @.S ` i r r r r <.<.",
"<.w ,.,.,.,.,.,.,.,.,.,.,.w <.<.",
"<.w -./ / Q U Z m M C L &.w <.<.",
"<.w &.W :.:.;.M v b M S @.w <.<.",
"<.w &.T :.&.&.n x c n B @.w <.<.",
"<.w &.5 H H G 5 5 5 5 5 ` w <.<.",
"<.w @., F J K a 7 3 1 , ` w <.<.",
"<.w @.& j l z q 4 < , & ` e <.<.",
"<.w @.@ f h k 0 : = * @ ` w <.<.",
"<.w @.o 9 d g 6 ; $ # o / w <.<.",
"<.w } X 2 0 s 2 % + O X Q w <.<.",
"<.w `                   Q w <.<.",
"<.y W ` ` / T U Z S U U U y <.<.",
"<.<.u w w w w w w w w w r <.<.<."
};
