/* XPM */
static const char *battery_low_16[] = {
/* columns rows colors chars-per-pixel */
"16 16 117 2 ",
"   c #CE6F00",
".  c #CF7001",
"X  c #D2780E",
"o  c #D4811E",
"O  c #E2860E",
"+  c #EC8B0E",
"@  c #E48E1E",
"#  c #ED931F",
"$  c #F39815",
"%  c #D78D2D",
"&  c #D78E2F",
"*  c #D68E30",
"=  c #F69F24",
"-  c #F6AD2E",
";  c #F5AB35",
":  c #F9B43B",
">  c #F7B747",
",  c #F8B956",
"<  c #E3B36F",
"1  c #E3B56D",
"2  c #E4B770",
"3  c #FAC656",
"4  c #FAC868",
"5  c #FCD074",
"6  c #888A85",
"7  c #898B86",
"8  c #8A8C87",
"9  c #8B8D88",
"0  c #8C8E89",
"q  c #91938F",
"w  c #939591",
"e  c #9D9F9B",
"r  c #A2A3A0",
"t  c #A2A4A0",
"y  c #A3A4A1",
"u  c #A3A5A1",
"i  c #B1B2B0",
"p  c #B5B6B3",
"a  c #BCBBB6",
"s  c #BFBEBA",
"d  c #C6C4BF",
"f  c #C1C2C0",
"g  c #C6C4C0",
"h  c #C4C4C3",
"j  c #C6C7C5",
"k  c #CCCAC6",
"l  c #C9C9C8",
"z  c #CACBC9",
"x  c #CBCCCA",
"c  c #CECECD",
"v  c #CFCFCD",
"b  c #CFCFCE",
"n  c #D0D0CF",
"m  c #D1D1D0",
"M  c #D3D3D2",
"N  c #D3D4D2",
"B  c #D4D4D3",
"V  c #D6D6D5",
"C  c #D8D8D6",
"Z  c #D8D8D7",
"A  c #DDDBD7",
"S  c #DBDCDB",
"D  c #DCDCDB",
"F  c #DCDDDB",
"G  c #DCDDDC",
"H  c #DDDDDD",
"J  c #E0E0DF",
"K  c #E0E1DF",
"L  c #E3E2DF",
"P  c #E0E1E0",
"I  c #E1E1E0",
"U  c #E1E2E1",
"Y  c #E3E3E2",
"T  c #E3E4E3",
"R  c #E4E4E3",
"E  c #E5E6E5",
"W  c #E6E6E5",
"Q  c #E6E7E6",
"!  c #E9E8E6",
"~  c #E8E8E7",
"^  c #EBE9E7",
"/  c #E9E9E8",
"(  c #EAEAE9",
")  c #EAEBEA",
"_  c #EBEBEA",
"`  c gray92",
"'  c #ECECEB",
"]  c #ECEDEC",
"[  c #EDEDEC",
"{  c gray93",
"}  c #EEEFEE",
"|  c #EFEFEE",
" . c #EFEFEF",
".. c #EFF0EF",
"X. c #F0F0EF",
"o. c gray94",
"O. c #F0F1F0",
"+. c #F1F2F1",
"@. c #F2F2F1",
"#. c #F2F3F2",
"$. c #F3F3F2",
"%. c #F3F3F3",
"&. c #F3F4F3",
"*. c #F4F4F4",
"=. c #F4F5F4",
"-. c #F5F5F4",
";. c #F5F6F5",
":. c #F6F7F6",
">. c gray97",
",. c #F7F8F7",
"<. c #F8F8F8",
"1. c gray98",
"2. c gray99",
"3. c #FDFDFD",
"4. c #FEFEFE",
"5. c #FEFFFE",
"6. c None",
/* pixels */
"6.6.6.6.6.6.w e w 6.6.6.6.6.6.6.",
"6.6.6.6.6.9 %.;. .8 6.6.6.6.6.6.",
"6.8 u u r p %.J X.i r r u 8 6.6.",
"6.6 4.4.4.4.4.4.4.4.4.4.4.6 6.6.",
"6.6 ,.) ) _ Y D V Z D J %.6 6.6.",
"6.6 ;.~ 1.1.1.Z n N Z D %.6 6.6.",
"6.6 ;.E 1.;.;.M x v N Z %.6 6.6.",
"6.6 ;.Y %.%.X.b j l v B  .6 6.6.",
"6.6 #.J X. ._ z d h l v ..6 6.6.",
"6.6 #.A ^ ^ J g a s d l  .6 6.6.",
"6.6 %.& 2 < 1 * & * * & ' 6 6.6.",
"6.6 X.o , 4 5 : = # @ o _ 6 6.6.",
"6.6 ..X ; > 3 - $ + O X _ 6 6.6.",
"6.6  ..                 E 6 6.6.",
"6.9 E '  ._ E Y S G Y Y Y 9 6.6.",
"6.6.9 8 6 6 6 6 6 6 8 6 8 6.6.6."
};
