/* XPM */
static const char *battery_full_16[] = {
/* columns rows colors chars-per-pixel */
"16 16 112 2 ",
"   c #204A87",
".  c #214B87",
"X  c #2D558E",
"o  c #3A5F95",
"O  c #37619B",
"+  c #3B68A3",
"@  c #486B9D",
"#  c #436BA1",
"$  c #4772A9",
"%  c #4674AD",
"&  c #5475A3",
"*  c #5075A8",
"=  c #557CAF",
"-  c #5C7FAE",
";  c #517CB2",
":  c #5E86B8",
">  c #5F87BA",
",  c #5F8ABE",
"<  c #6280AB",
"1  c #6085B4",
"2  c #6989B5",
"3  c #6D8FBA",
"4  c #688EBC",
"5  c #708BB2",
"6  c #7693BB",
"7  c #7E96B9",
"8  c #6992C2",
"9  c #7597C2",
"0  c #7499C6",
"q  c #7998C0",
"w  c #7B9CC6",
"e  c #749BC9",
"r  c #7DA0CA",
"t  c #888A85",
"y  c #898B86",
"u  c #8A8C87",
"i  c #8B8D88",
"p  c #8C8E89",
"a  c #8C8E8A",
"s  c #9FA09C",
"d  c #A2A3A0",
"f  c #839DC1",
"g  c #80A0C7",
"h  c #86A2C6",
"j  c #8BA1C0",
"k  c #88A8CF",
"l  c #8DA9CD",
"z  c #98ABC7",
"x  c #90A7C8",
"c  c #93ACCC",
"v  c #84AAD4",
"b  c #8CACD2",
"n  c #92AFD3",
"m  c #94AFD1",
"M  c #98B2D2",
"N  c #9CB7D7",
"B  c #99B9DC",
"V  c #A2BCDB",
"C  c #A6BEDB",
"Z  c #ABC0DB",
"A  c #ADC6E2",
"S  c #B5CAE2",
"D  c #BDD2E8",
"F  c #DBDCDB",
"G  c #DDDDDD",
"H  c #DEDEDD",
"J  c #C0D0E4",
"K  c #C7D7E9",
"L  c #CDDDEE",
"P  c #D2DDEB",
"I  c #D6E2EF",
"U  c #DBE6F2",
"Y  c #E1E1E0",
"T  c #E1E2E1",
"R  c #E3E4E3",
"E  c #E6E6E5",
"W  c #E6E7E6",
"Q  c #E8E8E7",
"!  c #E9E9E8",
"~  c #EBEBEA",
"^  c gray92",
"/  c #ECECEB",
"(  c #ECEDEC",
")  c #EDEDEC",
"_  c gray93",
"`  c #EEEEED",
"'  c #EEEEEE",
"]  c #EEEFEE",
"[  c #EFEFEE",
"{  c #EFF0EF",
"}  c #E1E9F2",
"|  c #E5ECF5",
" . c #E7EFF7",
".. c #EBF0F6",
"X. c #EEF3F8",
"o. c gray94",
"O. c #F0F1F0",
"+. c #F1F2F1",
"@. c #F2F2F1",
"#. c #F2F3F2",
"$. c #F3F3F2",
"%. c #F3F3F3",
"&. c #F3F4F3",
"*. c #F4F4F4",
"=. c #F4F5F4",
"-. c #F5F6F5",
";. c #F6F7F6",
":. c #F7F8F7",
">. c #F0F5FA",
",. c #F8F8F8",
"<. c gray100",
"1. c None",
/* pixels */
"1.1.1.1.1.1.p i i 1.1.1.1.1.1.1.",
"1.1.1.1.1.i #.,.] i 1.1.1.1.1.1.",
"1.i p p i d &.G ] s i p p u 1.1.",
"1.t <.<.<.<.<.<.<.<.<.<.<.t 1.1.",
"1.t :.z z z z z z z z z -.t 1.1.",
"1.t -.j ..X.>.Z M c x j #.t 1.1.",
"1.t -.7 } | | N l h f 7 #.t 1.1.",
"1.t -.5 P I U n g 6 6 5 o.t 1.1.",
"1.t %.< D K L k 0 3 2 < ] t 1.1.",
"1.t #.& C S D r 4 1 < & ] t 1.1.",
"1.t #.@ m C A 0 > = * @ / t 1.1.",
"1.t o.o w l B 8 ; $ # o ~ t 1.1.",
"1.t #.X > e v , % + O X ~ t 1.1.",
"1.t ]   . . .     . . . W t 1.1.",
"1.i W / ] ^ W T F G T T T i 1.1.",
"1.1.p t t t t t t t u t i 1.1.1."
};
