/* XPM */
static const char *battery_low_charging_16[] = {
/* columns rows colors chars-per-pixel */
"16 16 104 2 ",
"   c #303638",
".  c #373D3F",
"X  c #484C4C",
"o  c #565B5A",
"O  c #646765",
"+  c #6E7170",
"@  c #9D7C5E",
"#  c #A17E5D",
"$  c #A17F5F",
"%  c #9E7F61",
"&  c #9D7F63",
"*  c #9F805F",
"=  c #AB815C",
"-  c #A8815E",
";  c #A8825F",
":  c #B0875D",
">  c #B3865D",
",  c #BC875A",
"<  c #B68A5F",
"1  c #BE885B",
"2  c #B8885E",
"3  c #BA8B5E",
"4  c #9F8160",
"5  c #9E8061",
"6  c #8E8679",
"7  c #C59363",
"8  c #C69264",
"9  c #C69364",
"0  c #C89567",
"q  c #D7C157",
"w  c #DEC955",
"e  c #E0C155",
"r  c #E1C355",
"t  c #E2CD55",
"y  c #F4E352",
"u  c #F5E352",
"i  c #F7E652",
"p  c #204A87",
"a  c #224B88",
"s  c #2D558E",
"d  c #3B5F95",
"f  c #486B9D",
"g  c #6089BA",
"h  c #749BC9",
"j  c #888A85",
"k  c #898B86",
"l  c #8A8B87",
"z  c #8A8C87",
"x  c #8B8D88",
"c  c #8C8E89",
"v  c #8D8F8A",
"b  c #8E918D",
"n  c #959894",
"m  c #9B9D99",
"M  c #9DA09D",
"N  c #9FA19D",
"B  c #A5A7A2",
"V  c #B3B4B0",
"C  c #BDBFBB",
"Z  c #BEBFBB",
"A  c #C8CAC6",
"S  c #C9CBC7",
"D  c #CECFCC",
"F  c #CECFCE",
"G  c #D1D2D0",
"H  c #D5D2D0",
"J  c #D3D4D3",
"K  c #D6D7D4",
"L  c #D6D7D5",
"P  c #D9D7D4",
"I  c #D8D9D6",
"U  c #D8D9D8",
"Y  c #DCDCDB",
"T  c #DEDFDC",
"R  c #DEDEDD",
"E  c #E4DBD3",
"W  c #E4DED9",
"Q  c #E8E1DA",
"!  c #EDE5DD",
"~  c #E4E5E3",
"^  c #E7E7E6",
"/  c gray92",
"(  c #ECEDEC",
")  c #EDEDEC",
"_  c #EDEEED",
"`  c #EEEEED",
"'  c #EEEFEE",
"]  c #EFEFEF",
"[  c #F5ECE5",
"{  c #EFF0EF",
"}  c #F0F1F0",
"|  c #F1F1F1",
" . c #F1F2F1",
".. c #F2F3F2",
"X. c #F3F3F2",
"o. c #F3F3F3",
"O. c #F5F5F4",
"+. c #FAF7F5",
"@. c #F7F8F7",
"#. c #F8F8F8",
"$. c #F9F9F9",
"%. c #FEFEFE",
"&. c gray100",
"*. c None",
/* pixels */
"*.*.*.*.*.c z z *.*.*.*.*.*.*.*.",
"*.*.*.*.c | #._ z *.*.*.*.*.*.*.",
"x z z z N o.R _ m z z j x *.*.*.",
"j &.&.[ 0 , +.&.&.&.&.&.j *.*.*.",
"j @.E 8 r 3 P L U V c Z j *.*.*.",
"j ! 7 r &.< H G J z D c j *.*.*.",
"j 8 r &.i : - $ D j R j j *.*.*.",
"j , u &.&.&.y @ c j z j j j *.*.",
"j 3 > = u &.q * o.| _ | | S c *.",
"j o.R ; &.w * W T R T T T #.S z ",
"j | f @ t * Q &.&.&.&.&.&.&.&.j ",
"j } d % % 6 T b b b b b b b ~ j ",
"j } s g h j T O n O Z O M O T j ",
"j _ p a p j T O K O J O o.O I j ",
"x ^ _ ( / j z O B O j O B O j j ",
"*.c j j z j z X o + R   O . *.*."
};
