/* XPM */
static const char *battery_empty_16[] = {
/* columns rows colors chars-per-pixel */
"16 16 90 1 ",
"  c #888A85",
". c #898B86",
"X c #8A8C87",
"o c #8B8C88",
"O c #8B8D88",
"+ c #8C8E89",
"@ c #9C9E99",
"# c #9FA09D",
"$ c #B7B8B5",
"% c #BABBB9",
"& c #BCBDBB",
"* c #BFC0BE",
"= c #C1C2C0",
"- c #C2C2C0",
"; c #C2C2C1",
": c #C4C5C3",
"> c #C6C7C4",
", c #C6C7C5",
"< c #C8C9C7",
"1 c #C9CAC8",
"2 c #CACBC9",
"3 c #CACBCA",
"4 c #CCCDCB",
"5 c #CECFCD",
"6 c #CFCFCD",
"7 c #CFCFCE",
"8 c #D0D1CF",
"9 c #D1D2D0",
"0 c #D3D4D2",
"q c #D3D4D3",
"w c #D4D5D3",
"e c #D6D7D5",
"r c #D8D8D7",
"t c #D8D9D7",
"y c #D8D9D8",
"u c #DBDCDA",
"i c #DBDCDB",
"p c #DCDDDB",
"a c #DCDDDC",
"s c #DDDDDC",
"d c #DEDEDD",
"f c #E0E1DF",
"g c gray88",
"h c #E1E1E0",
"j c #E2E2E1",
"k c #E3E3E2",
"l c #E3E4E3",
"z c #E4E4E3",
"x c #E5E6E5",
"c c #E6E6E5",
"v c #E7E7E6",
"b c #E8E8E7",
"n c #E8E9E8",
"m c #E9E9E8",
"M c #EAEAE9",
"N c #EAEAEA",
"B c #EAEBEA",
"V c #EBEBEA",
"C c gray92",
"Z c #EBECEB",
"A c #ECECEB",
"S c #ECEDEC",
"D c #EDEDEC",
"F c gray93",
"G c #EEEEED",
"H c #EEEEEE",
"J c #EEEFEE",
"K c #EFEFEE",
"L c #EFF0EF",
"P c #F0F0EF",
"I c gray94",
"U c #F0F1F0",
"Y c #F1F1F0",
"T c #F1F2F1",
"R c #F2F2F1",
"E c #F2F3F2",
"W c #F3F3F2",
"Q c #F3F4F3",
"! c #F4F4F4",
"~ c #F4F5F4",
"^ c gray96",
"/ c #F5F6F5",
"( c #F6F7F6",
") c gray97",
"_ c #F7F8F7",
"` c #F8F8F8",
"' c #F9F9F9",
"] c gray98",
"[ c gray100",
"{ c None",
/* pixels */
"{{{{{{+O {{{{{{{",
"{{{{{+Y`FO{{{{{{",
"{OXX #/sF@XXXX{{",
"{ [[[[[[[[[[[ {{",
"{ `VVnkswrij/ {{",
"{ /n```r00rsY {{",
"{ /x`//q45qyY {{",
"{ /j//Y7,17wY {{",
"{ QjIIC3=:18P {{",
"{ YsAnz,&*,4F {{",
"{ Yixzs=$%=<D {{",
"{ Yuxzs;$%=<V {{",
"{ Yixks;$%=<m {{",
"{ Livks=$%=<m {{",
"{OxDFFxjusjxjO{{",
"{{OX        O{{{"
};
