/* XPM */
static const char *battery_good_charging_16[] = {
/* columns rows colors chars-per-pixel */
"16 16 106 2 ",
"   c #303638",
".  c #373D3F",
"X  c #484C4C",
"o  c #565B5A",
"O  c #646765",
"+  c #6E7170",
"@  c #9D7C5E",
"#  c #A17E5E",
"$  c #A17F5F",
"%  c #9E7F61",
"&  c #9D7F63",
"*  c #9F805F",
"=  c #A7815F",
"-  c #AB815C",
";  c #A8815E",
":  c #B1845D",
">  c #B0875D",
",  c #BC875A",
"<  c #B68A5F",
"1  c #BE885B",
"2  c #B8885E",
"3  c #BA8B5E",
"4  c #9F8160",
"5  c #9E8061",
"6  c #8E8679",
"7  c #C59363",
"8  c #C69264",
"9  c #C69364",
"0  c #C89567",
"q  c #D7C157",
"w  c #DEC955",
"e  c #E0C155",
"r  c #E1C355",
"t  c #E2CD55",
"y  c #F4E352",
"u  c #F5E352",
"i  c #F7E652",
"p  c #204A87",
"a  c #224B88",
"s  c #2D558E",
"d  c #3B5F95",
"f  c #486B9D",
"g  c #5475A3",
"h  c #6088BA",
"j  c #749BC9",
"k  c #888A85",
"l  c #898B86",
"z  c #8A8B87",
"x  c #8A8C87",
"c  c #898C89",
"v  c #8B8D88",
"b  c #8C8E89",
"n  c #8D8F8A",
"m  c #8E918D",
"M  c #959894",
"N  c #9D9E9A",
"B  c #9DA09D",
"V  c #9FA19D",
"C  c #A5A7A2",
"Z  c #B3B4B0",
"A  c #BDBFBB",
"S  c #BEBFBC",
"D  c #C8CAC6",
"F  c #C9CBC7",
"G  c #CECFCC",
"H  c #CECFCD",
"J  c #D1D2D0",
"K  c #D5D2D0",
"L  c #D3D4D2",
"P  c #D6D7D4",
"I  c #D6D7D5",
"U  c #D9D7D4",
"Y  c #D8D9D6",
"T  c #D8D9D7",
"R  c #DCDCDB",
"E  c #DEDFDC",
"W  c #DEDEDD",
"Q  c #E4DBD3",
"!  c #E4DED9",
"~  c #E8E1DA",
"^  c #EDE5DD",
"/  c #E4E5E3",
"(  c #E6E7E6",
")  c gray92",
"_  c #ECEDEC",
"`  c #EDEDEC",
"'  c #EEEEED",
"]  c #EEEEEE",
"[  c #EEEFEE",
"{  c #EFEFEF",
"}  c #F5ECE5",
"|  c #EFF0EF",
" . c #F0F1F0",
".. c #F1F1F1",
"X. c #F1F2F1",
"o. c #F2F3F2",
"O. c #F3F3F3",
"+. c #F3F4F2",
"@. c #F5F5F4",
"#. c #FAF7F5",
"$. c #F7F8F7",
"%. c #F8F8F8",
"&. c #F9F9F9",
"*. c #FEFEFE",
"=. c gray100",
"-. c None",
/* pixels */
"-.-.-.-.-.v v x -.-.-.-.-.-.-.-.",
"-.-.-.-.v ..%.] x -.-.-.-.-.-.-.",
"v x x x V +.W ] N x x k x -.-.-.",
"k =.=.} 0 1 #.=.=.=.=.=.k -.-.-.",
"k $.Q 8 r 3 U I T Z b S k -.-.-.",
"k ^ 7 r =.< K J L x H b k -.-.-.",
"k 8 r =.i > = # H k E k k -.-.-.",
"k , u =.=.=.u @ v k k k k x -.-.",
"k 3 : - u =.q 4 O.{ | ] +.D b -.",
"k ..g = =.w 4 ! E W E W W &.D x ",
"k ..f # t * ~ =.=.=.=.=.=.=.=.k ",
"k  .d % % 6 E m m m m m m m / k ",
"k  .s h j k R O M O A O V O W k ",
"k ] p a p k E O L O I O @.O Y k ",
"v ( _ _ ) k x O C O k O C O k k ",
"-.v x k x k x X o + R   O . -.-."
};
