/* XPM */
static const char *battery_caution_16[] = {
/* columns rows colors chars-per-pixel */
"16 16 104 2 ",
"   c #A40000",
".  c #A50202",
"X  c #A90F0F",
"o  c #AF1E1E",
"O  c #DF2323",
"+  c #DB3434",
"@  c #E82D2D",
"#  c #F03737",
"$  c #F13E3E",
"%  c #BE4A4A",
"&  c #BF4C4C",
"*  c #C04E4E",
"=  c #E74646",
"-  c #F25757",
";  c #888A85",
":  c #898B86",
">  c #8A8C87",
",  c #8B8C88",
"<  c #8B8D88",
"1  c #8C8E89",
"2  c #9C9E99",
"3  c #9FA09D",
"4  c #B7B8B5",
"5  c #BABBB9",
"6  c #BCBDBB",
"7  c #BFC0BE",
"8  c #C1C2C0",
"9  c #C2C2C0",
"0  c #C2C2C1",
"q  c #C4C5C3",
"w  c #C6C7C4",
"e  c #C6C7C5",
"r  c #C8C9C7",
"t  c #C9CAC8",
"y  c #CACBC9",
"u  c #CACBCA",
"i  c #CCCDCB",
"p  c #CECFCD",
"a  c #CFCFCD",
"s  c #CFCFCE",
"d  c #D0D1CF",
"f  c #D1D2D0",
"g  c #D3D4D2",
"h  c #D3D4D3",
"j  c #D4D5D3",
"k  c #D6D7D5",
"l  c #D8D8D7",
"z  c #D8D9D7",
"x  c #D8D9D8",
"c  c #DBDCDA",
"v  c #DBDCDB",
"b  c #DCDDDB",
"n  c #DCDDDC",
"m  c #DDDDDC",
"M  c #DEDEDD",
"N  c #E0E1DF",
"B  c gray88",
"V  c #E1E1E0",
"C  c #E2E2E1",
"Z  c #E3E3E2",
"A  c #E3E4E3",
"S  c #E4E4E3",
"D  c #E5E6E5",
"F  c #E6E6E5",
"G  c #E7E7E6",
"H  c #E8E8E7",
"J  c #E8E9E8",
"K  c #E9E9E8",
"L  c #EAEAE9",
"P  c #EAEAEA",
"I  c #EAEBEA",
"U  c #EBEBEA",
"Y  c gray92",
"T  c #EBECEB",
"R  c #ECECEB",
"E  c #ECEDEC",
"W  c #EDEDEC",
"Q  c gray93",
"!  c #EEEEED",
"~  c #EEEEEE",
"^  c #EEEFEE",
"/  c #EFEFEE",
"(  c #EFF0EF",
")  c #F0F0EF",
"_  c gray94",
"`  c #F0F1F0",
"'  c #F1F1F0",
"]  c #F1F2F1",
"[  c #F2F2F1",
"{  c #F2F3F2",
"}  c #F3F3F2",
"|  c #F3F4F3",
" . c #F4F4F4",
".. c #F4F5F4",
"X. c gray96",
"o. c #F5F6F5",
"O. c #F6F7F6",
"+. c gray97",
"@. c #F7F8F7",
"#. c #F8F8F8",
"$. c #F9F9F9",
"%. c gray98",
"&. c gray100",
"*. c None",
/* pixels */
"*.*.*.*.*.*.1 < ; *.*.*.*.*.*.*.",
"*.*.*.*.*.1 ' #.Q < *.*.*.*.*.*.",
"*.< > > ; 3 o.m Q 2 > > > > *.*.",
"*.; &.&.&.&.&.&.&.&.&.&.&.; *.*.",
"*.; #.U U J Z m j l v C o.; *.*.",
"*.; o.J #.#.#.l g g l m ' ; *.*.",
"*.; o.D #.o.o.h i p h x ' ; *.*.",
"*.; o.C o.o.' s e t s j ' ; *.*.",
"*.; | C _ ' J u 8 q t d ) ; *.*.",
"*.; ' m Y J D e 6 7 e i Q ; *.*.",
"*.; ' v D D m 8 4 5 8 r R ; *.*.",
"*.; ) o * & & o o o o o R ; *.*.",
"*.; ` X + = - $ # @ O X H ; *.*.",
"*.; (                   H ; *.*.",
"*.< D Q Q U D C m m C C C 1 *.*.",
"*.*.< > ; > ; ; ; ; > ; > *.*.*."
};
