/* XPM */
static const char *battery_full_charging_16[] = {
/* columns rows colors chars-per-pixel */
"16 16 113 2 ",
"   c #353B3C",
".  c #373D3F",
"X  c #4C504F",
"o  c #595E5D",
"O  c #636664",
"+  c #646765",
"@  c #656866",
"#  c #676A68",
"$  c #707271",
"%  c #9D7C5E",
"&  c #A17E5E",
"*  c #A07E5F",
"=  c #9F805F",
"-  c #A7815E",
";  c #A7815F",
":  c #AB815C",
">  c #B1845D",
",  c #B0875D",
"<  c #BC875A",
"1  c #B68A5F",
"2  c #B8885E",
"3  c #B9895E",
"4  c #BF8A5D",
"5  c #9F8160",
"6  c #9E8161",
"7  c #9C8065",
"8  c #9F8264",
"9  c #8E877A",
"0  c #BF8D61",
"q  c #D5BE57",
"w  c #DEBE57",
"e  c #C08F62",
"r  c #C69264",
"t  c #C9986B",
"y  c #DCC656",
"u  c #DFCA55",
"i  c #E1C255",
"p  c #E0C256",
"a  c #F4E352",
"s  c #F5E352",
"d  c #F7E652",
"f  c #234C88",
"g  c #234D88",
"h  c #2C548E",
"j  c #3B5F95",
"k  c #476A9C",
"l  c #5475A3",
"z  c #5E86B9",
"x  c #7198C7",
"c  c #888A85",
"v  c #898B86",
"b  c #898C87",
"n  c #8A8C87",
"m  c #898C89",
"M  c #8B8D88",
"N  c #8C8E89",
"B  c #8D8F8A",
"V  c #8C8F8B",
"C  c #90938F",
"Z  c #92948F",
"A  c #909390",
"S  c #919491",
"D  c #979A96",
"F  c #999A97",
"G  c #9B9D99",
"H  c #9FA29F",
"J  c #939DA9",
"K  c #9FA7B7",
"L  c #A3A5A0",
"P  c #BEC0BC",
"I  c #C1C1BF",
"U  c #86A2C6",
"Y  c #9AAAC1",
"T  c #93ACCC",
"R  c #99ACC8",
"E  c #98B2D2",
"W  c #A7BAD3",
"Q  c #C8CAC6",
"!  c #CCCDC9",
"~  c #CDCFCB",
"^  c #D6D7D4",
"/  c #D7D7D6",
"(  c #D8D9D6",
")  c #DBDCD9",
"_  c #DEDFDC",
"`  c #DEDFDE",
"'  c #E3DED9",
"]  c #E0E1DE",
"[  c #E9E2DC",
"{  c #EEE6DE",
"}  c #E3E4E2",
"|  c #E4E5E3",
" . c #E8E9E7",
".. c #E9EAE9",
"X. c #EAEAE9",
"o. c #ECECEC",
"O. c #EEEFEE",
"+. c #EFEFEF",
"@. c #F6EEE8",
"#. c #EFF0EF",
"$. c #F0F1F0",
"%. c #F1F2F1",
"&. c #F2F3F2",
"*. c #F3F3F3",
"=. c #F3F4F3",
"-. c #F4F4F3",
";. c #FAF7F4",
":. c #F8F8F8",
">. c #FBFCFB",
",. c #FFFEFA",
"<. c #FEFEFE",
"1. c gray100",
"2. c None",
/* pixels */
"2.2.2.2.2.N v v 2.2.2.2.2.2.2.2.",
"2.2.2.2.M #.:.+.n 2.2.2.2.2.2.2.",
"M v v v G =.` +.F v v v M 2.2.2.",
"v 1.1.@.t 4 ;.1.1.1.1.1.v 2.2.2.",
"c :.K 0 w 3 Y R R J N I c 2.2.2.",
"c { 0 i 1.1 W E T M ! n c 2.2.2.",
"c r i 1.d , - * U c _ c v 2.2.2.",
"c < a 1.1.1.a % M c v c c n 2.2.",
"v 2 , : a 1.q 6 &.+.#.+.&.Q M 2.",
"v *.l ; ,.y = ' ` ` ] ] ] :.~ n ",
"v #.k * u = [ >.1.>.>.>.>.>.1.c ",
"v #.j 7 6 9 _ C C C A A A A } c ",
"v +.h z x c _ @ D @ P + H + ` v ",
"v +.f f g v ) O ^ O / + =.+ ( c ",
"N |  . . .N B @ L @ Z O L O v v ",
"2.N n n n n n X o $ /   @ . 2.2."
};
