/* XPM */
static const char *battery_caution_charging_16[] = {
/* columns rows colors chars-per-pixel */
"16 16 104 2 ",
"   c #303638",
".  c #373D3F",
"X  c #484C4C",
"o  c #565B5A",
"O  c #646765",
"+  c #6E7170",
"@  c #9D7C5E",
"#  c #A17F5F",
"$  c #A27F5E",
"%  c #9D7E60",
"&  c #9C7E62",
"*  c #9F815F",
"=  c #AB815C",
"-  c #A8815E",
";  c #A8825F",
":  c #B0875D",
">  c #B3865D",
",  c #BC875A",
"<  c #B68A5F",
"1  c #BE885B",
"2  c #B9885E",
"3  c #BA8B5E",
"4  c #9F8160",
"5  c #9E8061",
"6  c #8E8679",
"7  c #C59363",
"8  c #C69264",
"9  c #C79364",
"0  c #C99669",
"q  c #D7C157",
"w  c #DEC955",
"e  c #E0C155",
"r  c #E2CD55",
"t  c #F4E252",
"y  c #F4E352",
"u  c #F5E352",
"i  c #F7E652",
"p  c #204A87",
"a  c #224B88",
"s  c #2D558E",
"d  c #3A5F95",
"f  c #6088BA",
"g  c #749BC9",
"h  c #888A85",
"j  c #898B86",
"k  c #8A8B87",
"l  c #8A8C87",
"z  c #8B8D88",
"x  c #8C8E89",
"c  c #8D8F8A",
"v  c #8E918D",
"b  c #959894",
"n  c #9C9E99",
"m  c #9DA09D",
"M  c #9FA09D",
"N  c #A5A7A2",
"B  c #B3B4B0",
"V  c #BCBDBB",
"C  c #BDBFBB",
"Z  c #C8CAC6",
"A  c #C9CBC7",
"S  c #CECFCC",
"D  c #CECFCE",
"F  c #D1D2D0",
"G  c #D5D2D0",
"H  c #D3D4D3",
"J  c #D6D7D4",
"K  c #D6D7D5",
"L  c #D9D7D4",
"P  c #D8D9D6",
"I  c #D8D9D8",
"U  c #DBDCDA",
"Y  c #DCDCDB",
"T  c #DEDFDC",
"R  c #DEDEDD",
"E  c #E5DCD4",
"W  c #E4DED9",
"Q  c #E8E1DA",
"!  c #EEE6DE",
"~  c #E4E5E3",
"^  c #E7E7E6",
"/  c gray92",
"(  c #ECEDEC",
")  c #EDEDEC",
"_  c #EEEEED",
"`  c #EEEEEE",
"'  c #EEEFEE",
"]  c #EFEFEF",
"[  c #F6EEE8",
"{  c #EFF0EF",
"}  c #F0F1F0",
"|  c #F1F1F1",
" . c #F1F2F1",
".. c #F2F3F2",
"X. c #F3F3F3",
"o. c #F3F4F2",
"O. c #F5F5F4",
"+. c #FAF7F5",
"@. c #F7F8F7",
"#. c #F8F8F8",
"$. c #F9F9F9",
"%. c #FEFEFE",
"&. c gray100",
"*. c None",
/* pixels */
"*.*.*.*.*.x l l *.*.*.*.*.*.*.*.",
"*.*.*.*.x | #.` l *.*.*.*.*.*.*.",
"z l l l M o.R ` n l l h l *.*.*.",
"h &.&.[ 0 1 +.&.&.&.&.&.h *.*.*.",
"h @.E 8 e 3 L K I B x V h *.*.*.",
"h ! 7 e &.< G F H z S x h *.*.*.",
"h 8 e &.i : - # D h T h h *.*.*.",
"h , u &.&.&.u @ x h h h h l *.*.",
"h < > - t &.q 5 X.] { ` X.A x *.",
"h o.W - &.w * W T R T R T #.A l ",
"h | U # r * Q &.&.&.&.&.&.&.&.h ",
"h } d & % 6 T v v v v v v v ~ h ",
"h } s f g h T O b O C O M O T h ",
"h ` p a p h T O J O J O X.O P h ",
"z ^ ` / / h h O N O h O N O h h ",
"*.z l h h l l X o + Y   O . *.*."
};
