/* XPM */
static const char *nut_32[] = {
/* columns rows colors chars-per-pixel */
"32 32 256 2 ",
"   c #060503",
".  c #0C0A03",
"X  c #1A160A",
"o  c #1F1A16",
"O  c #1B1712",
"+  c #211C17",
"@  c #2F1F13",
"#  c #241D19",
"$  c #281F1A",
"%  c #32260E",
"&  c #232112",
"*  c #2C2612",
"=  c #26211B",
"-  c #35261E",
";  c #342A1F",
":  c #3B291C",
">  c #3F3714",
",  c #393518",
"<  c #2C2621",
"1  c #2E2B23",
"2  c #392C21",
"3  c #363120",
"4  c #3C3625",
"5  c #3A3B29",
"6  c #403214",
"7  c #463324",
"8  c #4A3324",
"9  c #443D2B",
"0  c #4B3E29",
"q  c #543A27",
"w  c #563A28",
"e  c #5B3C2A",
"r  c #523726",
"t  c #4D3F33",
"y  c #523F32",
"u  c #59440B",
"i  c #674D0F",
"p  c #695618",
"a  c #4D462D",
"s  c #4C4727",
"d  c #4E4832",
"f  c #4C4139",
"g  c #5B4533",
"h  c #55493E",
"j  c #574D3A",
"k  c #595433",
"l  c #5D5837",
"z  c #58543B",
"x  c #61422B",
"c  c #6A462E",
"v  c #674A2F",
"b  c #6F492F",
"n  c #6D5E23",
"m  c #6E4730",
"M  c #684931",
"N  c #644832",
"B  c #734C31",
"V  c #784E33",
"C  c #625C35",
"Z  c #605B3D",
"A  c #775037",
"S  c #79593F",
"D  c #7D5132",
"F  c #67603F",
"G  c #6C663E",
"H  c #6C6633",
"J  c #736C3A",
"K  c #605C40",
"L  c #6F5844",
"P  c #675242",
"I  c #745740",
"U  c #7C5F4A",
"Y  c #735844",
"T  c #695D54",
"R  c #6F6A49",
"E  c #616A44",
"W  c #7F6048",
"Q  c #716D45",
"!  c #767245",
"~  c #7B764A",
"^  c #7D794D",
"/  c #786250",
"(  c #787758",
")  c #777662",
"_  c #7D7670",
"`  c #7F7F72",
"'  c #A47E16",
"]  c #804F32",
"[  c #845435",
"{  c #8D5A37",
"}  c #935C3B",
"|  c #80732F",
" . c #827836",
".. c #A0643F",
"X. c #865C42",
"o. c #916544",
"O. c #837E46",
"+. c #827D4E",
"@. c #847E54",
"#. c #937258",
"$. c #AE6C44",
"%. c #B26E45",
"&. c #AB714D",
"*. c #B47147",
"=. c #BA7446",
"-. c #BF7846",
";. c #BE794D",
":. c #A37752",
">. c #B77950",
",. c #817265",
"<. c #C37A46",
"1. c #C97E46",
"2. c #C27D4E",
"3. c #BC8B0D",
"4. c #9B8631",
"5. c #B99526",
"6. c #D39704",
"7. c #DFAC1E",
"8. c #DCA514",
"9. c #CCA225",
"0. c #C8A835",
"q. c #E3B82F",
"w. c #E1B125",
"e. c #E5BD36",
"r. c #E6C039",
"t. c #E8C43F",
"y. c #868146",
"u. c #898445",
"i. c #87824F",
"p. c #938D4B",
"a. c #888354",
"s. c #999559",
"d. c #9A9556",
"f. c #B8815E",
"g. c #A49F58",
"h. c #A19C52",
"j. c #ADA756",
"k. c #A6A25F",
"l. c #AEA95A",
"z. c #A8A35A",
"x. c #B1AC5A",
"c. c #B7B157",
"v. c #9B816B",
"b. c #9D9960",
"n. c #9A9663",
"m. c #988677",
"M. c #909079",
"N. c #A2826A",
"B. c #ABA769",
"V. c #ABA768",
"C. c #B2AE6D",
"Z. c #B6B26E",
"A. c #B9B56E",
"S. c #BDB96E",
"D. c #BAB565",
"F. c #CC834B",
"G. c #CB8653",
"H. c #C38459",
"J. c #C78353",
"K. c #D08952",
"L. c #D18D5A",
"P. c #CAB041",
"I. c #D6BC48",
"U. c #DABB40",
"Y. c #C98E65",
"T. c #C28965",
"R. c #C79167",
"E. c #CD9165",
"W. c #C9916D",
"Q. c #D39362",
"!. c #D99966",
"~. c #D99C6B",
"^. c #D1966B",
"/. c #CD9671",
"(. c #C89B7C",
"). c #D49D74",
"_. c #C1BD6F",
"`. c #C0BB61",
"'. c #D7A47E",
"]. c #D8A179",
"[. c #DDA87E",
"{. c #E1AA7D",
"}. c #ECCD4C",
"|. c #EAC947",
" X c #E2CD59",
".X c #EED455",
"XX c #EFD759",
"oX c #F1DA5D",
"OX c #CAC567",
"+X c #CFCA66",
"@X c #C5C16F",
"#X c #C9C56F",
"$X c #CDC868",
"%X c #C5C062",
"&X c #D6CE67",
"*X c #D5D16F",
"=X c #DAD468",
"-X c #CCC770",
";X c #CEC970",
":X c #D2CD70",
">X c #D6D170",
",X c #DAD571",
"<X c #DED971",
"1X c #F2DD65",
"2X c #E2DD71",
"3X c #E0D87B",
"4X c #F4E26B",
"5X c #E5E072",
"6X c #EAE572",
"7X c #EEE972",
"8X c #F2EC73",
"9X c #F7F173",
"0X c #8D8C82",
"qX c #9D8C81",
"wX c #9E9B93",
"eX c #B09987",
"rX c #AEAE89",
"tX c #ABA99A",
"yX c #AFABA5",
"uX c #D4A484",
"iX c #DBA780",
"pX c #DDAB86",
"aX c #DCAE8A",
"sX c #D5AA8E",
"dX c #DDB28F",
"fX c #C3A994",
"gX c #D6AD92",
"hX c #DBB295",
"jX c #DAB49C",
"kX c #E1AE86",
"lX c #E3B48B",
"zX c #E2B592",
"xX c #E3BA9C",
"cX c #DFBEA9",
"vX c #D9BAA4",
"bX c #E3BEA3",
"nX c #F5E781",
"mX c #F8ED84",
"MX c #E2E29E",
"NX c #F5EE96",
"BX c #FDF89C",
"VX c #DFC7B7",
"CX c #E7C1A2",
"ZX c #E5C5AE",
"AX c #E4C6B1",
"SX c #E8CEBD",
"DX c #E7CDBC",
"FX c #E9D0BF",
"GX c #FFFFAF",
"HX c #F4F2A8",
"JX c #E8E8B5",
"KX c #FFFFB8",
"LX c #F1F1B1",
"PX c #EAD2C1",
"IX c #EAEAC0",
"UX c None",
/* pixels */
"UXUXUXUXUXUXUXUXUXUXUXUXUXUXUXUXUXUXUXUXUXUXUXUXUXUXUXUXUXUXUXUX",
"UXUXUXUXUXUXUXUXUXUXUXUXUXUXUXUXUXUXUXUXUXUXUXUXUXUXUXUXUXUXUXUX",
"UXUXUXUXUXUXUXUXUXUXUXUXUXUXUXUXUXUXUXUXo # - $ UXUXUXUXUXUXUXUX",
"UXUXUXUXUXUXUXUXUXUXUXUXUXUX# w V [ { $.$.%.] m UXUXUXUXUXUXUXUX",
"UXUXUXUXUXUXUXUXUXUXUX+ 7 X.T.uXjXgX(.T.*.: @ $.2 UXUXUXUXUXUXUX",
"UXUXUXUXUXUXUXUXUX$ b f.cXPXPXFXDXFXDXVXyXrXB *.[ UXUXUXUXUXUXUX",
"UXUXUXUXUXUXUXUX8 &.sXAXAXAXAXAXZXZXvXwXJXtXjXW.=.8 UXUXUXUXUXUX",
"UXUXUXUXUXUXUXw ;.jXvXbXvXbXCXbXbXfX0XJXJXqXjXhX/.[ UXUXUXUXUXUX",
"UXUXUXUXUXUX8 =.uXhXhXhXxXbXbXbXeX` LXKXM.(.aXuXuXH.2 UXUXUXUXUX",
"UXUXUXUXUX: *.Y.uXuXaXzXxXxXCXm.) HXGXMXT iX].).)./.A UXUXUXUXUX",
"UXUXUXUX# x =./.).'.aXdXxXCX,.R NXBXBX@.v.iX).Q.E.Y.>.o UXUXUXUX",
"UXUXUXUXa c 2.R.^.].aXzXxXT R nXmXmX3X1 dX[.~.L.G.2.2.2 UXUXUXUX",
"UXUXUXUXO.w ;.G.:.X.kXdXf J 4X4X4X7XH h lX{.!.L.1.<.<.w UXUXUXUX",
"UXUXUXUXl.7 -.V k 1 dXf | XXXXXXoXoX .s + - S G.F.<.<.b UXUXUXUX",
"UXUXUXUXOXa q p.+Xy U . 6 n 4.P.}..XXXoX4X&X& o.K.1.<.[ UXUXUXUX",
"UXUXUXUX$Xy.%X7Xl.Y aX#.h <   . U.}.}.XX X, I !.K.1.<.D UXUXUXUX",
"UXUXUXUXD.6X7X8Xu.#.lXCXfXPX_ p r.t.|.I.* L {.!.K.F.<.B UXUXUXUX",
"UXUXUXUXx.7X7X8XC W P 1 ; T O 9.q.e.0.& / #.).!.K.<.<.c UXUXUXUX",
"UXUXUXUXh.7X8X9X4 3 u.=Xy.f u 7.w.5.X g 4 # R.Q.c 8 <.x UXUXUXUX",
"UXUXUXUXJ 6X8X8Xc.9X9X8Xy.o 3.8.' X < ! s.g ~.M Z D <.7 UXUXUXUX",
"UXUXUXUX7 5X7X7X9X8X8X8Xy.% 6.i o k D.-XF :.N ^ F -.{ = o UXUXUX",
"UXUXUXUXUXz.6X7X7X8X7X7Xy.6 * 4 g.;X-X-X0 g +.C.v x K 9 UXUXUXUX",
"UXUXUXUXUXC 5X6X6X6X6X5XO.= y.*X>X:X-Xk.# +.A.a.d n.z UXUXUXUXUX",
"UXUXUXUXUXUXl.2X5X5X5X2Xx.OX,X>X:X;X-X! i.S.Z.B.C.R UXUXUXUXUXUX",
"UXUXUXUXUXUXa &X2X2X2X,X,X,X>X:X;X-X@Xk._.A.Z.C.a.UXUXUXUXUXUXUX",
"UXUXUXUXUXUXUXG ,X,X,X,X,X*X:X:X;X@X@X_.S.Z.C.a.UXUXUXUXUXUXUXUX",
"UXUXUXUXUXUXUXUXd.*X*X*X*X:X;X#X-X@X_.S.A.Z.~ UXUXUXUXUXUXUXUXUX",
"UXUXUXUXUXUXUXUX< a d.#X;X-X#X#X_._._.A.n.d UXUXUXUXUXUXUXUXUXUX",
"UXUXUXUXUXUXUX5 E + UX= 9 l ~ s.k.b.+.d # UXUXUXUXUXUXUXUXUXUXUX",
"UXUXUXUXUXUXUXUXUXUXUXUXUXUXUXUXUXUXUXUXUXUXUXUXUXUXUXUXUXUXUXUX",
"UXUXUXUXUXUXUXUXUXUXUXUXUXUXUXUXUXUXUXUXUXUXUXUXUXUXUXUXUXUXUXUX",
"UXUXUXUXUXUXUXUXUXUXUXUXUXUXUXUXUXUXUXUXUXUXUXUXUXUXUXUXUXUXUXUX"
};
