/* XPM */
static char *out_1[] = {
/* columns rows colors chars-per-pixel */
"9 9 5 1 ",
"  c #800000",
". c red",
"X c yellow",
"o c #C0C0C0",
"O c None",
/* pixels */
"OOo   oOO",
"O .X... O",
"o.X.X.. o",
" X.X.. . ",
" .X....  ",
" .....   ",
"o . .   o",
"O  .    O",
"OOo   oOO"
};
