/* XPM */
static char *out_4[] = {
/* columns rows colors chars-per-pixel */
"150 16 225 2 ",
"   c #34302E",
".  c #35312E",
"X  c #35312F",
"o  c #36312F",
"O  c #36322F",
"+  c #363230",
"@  c #373330",
"#  c #373331",
"$  c #383431",
"%  c #383432",
"&  c #393432",
"*  c #393532",
"=  c #3A3533",
"-  c #3A3634",
";  c #3A3734",
":  c #3B3735",
">  c #3C3835",
",  c #3C3836",
"<  c #3D3836",
"1  c #3D3937",
"2  c #3D3A38",
"3  c #3E3A38",
"4  c #3E3B39",
"5  c #3F3B39",
"6  c #3F3C39",
"7  c #3F3C3A",
"8  c #403C39",
"9  c #403C3A",
"0  c #413D3B",
"q  c #413E3C",
"w  c #423E3C",
"e  c #423F3D",
"r  c #433F3D",
"t  c #555250",
"y  c #5A5655",
"u  c #5A5755",
"i  c #5B5755",
"p  c #5B5856",
"a  c #5C5957",
"s  c #5D5957",
"d  c #5D5A58",
"f  c #5E5A58",
"g  c #5E5B58",
"h  c #5E5B59",
"j  c #5F5C59",
"k  c #5F5C5A",
"l  c #605C5A",
"z  c #605D5B",
"x  c #615E5B",
"c  c #615E5C",
"v  c #625F5D",
"b  c #63605E",
"n  c #64605E",
"m  c #64615F",
"M  c #656260",
"N  c #666361",
"B  c #666461",
"V  c #676462",
"C  c #686563",
"Z  c #696564",
"A  c #696664",
"S  c #6A6765",
"D  c #6B6766",
"F  c #6B6866",
"G  c #6C6867",
"H  c #6C6967",
"J  c #6C6A67",
"K  c #6F6D6C",
"L  c #6F6D6D",
"P  c #706E6E",
"I  c #716F6E",
"U  c #7C7A78",
"Y  c #DA251D",
"T  c #DB3528",
"R  c #DC3629",
"E  c #DC372A",
"W  c #DD392B",
"Q  c #DC3B2E",
"!  c #DD3C2E",
"~  c #DD3C2F",
"^  c #DE4032",
"/  c #DF4839",
"(  c #DF4A3B",
")  c #DF4B3C",
"_  c #DF4D3E",
"`  c #DF4E3F",
"'  c #E04E3F",
"]  c #E25A4C",
"[  c #E25B4D",
"{  c #E25D4F",
"}  c #E35E50",
"|  c #E35F52",
" . c #E77844",
".. c #E87D40",
"X. c #E87E40",
"o. c #E97F41",
"O. c #E36154",
"+. c #E46356",
"@. c #E46357",
"#. c #E46358",
"$. c #E4655A",
"%. c #E5665B",
"&. c #E56B60",
"*. c #E56C62",
"=. c #E66D63",
"-. c #E66E65",
";. c #E66F65",
":. c #E67168",
">. c #E77269",
",. c #E7756C",
"<. c #E7756D",
"1. c #E7766E",
"2. c #E7776F",
"3. c #E87870",
"4. c #E87D76",
"5. c #E97D77",
"6. c #E87E78",
"7. c #7EBD33",
"8. c #78B93E",
"9. c #5DA35A",
"0. c #5EA35A",
"q. c #5EA459",
"w. c #5FA459",
"e. c #5AA05D",
"r. c #5BA05D",
"t. c #5BA15D",
"y. c #5CA15C",
"u. c #6BAF4E",
"i. c #6AAE4F",
"p. c #6BAF4F",
"a. c #6CB04E",
"s. c #71B347",
"d. c #72B447",
"f. c #70B248",
"g. c #70B348",
"h. c #70B249",
"j. c #70B349",
"k. c #66AB53",
"l. c #67AB53",
"z. c #67AC52",
"x. c #65A954",
"c. c #64A955",
"v. c #65A955",
"b. c #66AA54",
"n. c #67AB54",
"m. c #68AC52",
"M. c #69AD52",
"N. c #60A559",
"B. c #61A658",
"V. c #62A758",
"C. c #4B9566",
"Z. c #4B9666",
"A. c #4C9666",
"S. c #4D9767",
"D. c #44916C",
"F. c #499368",
"G. c #489468",
"H. c #499468",
"J. c #539B61",
"K. c #529B62",
"L. c #539B62",
"P. c #529A63",
"I. c #529B63",
"U. c #539B63",
"Y. c #539C61",
"T. c #549C62",
"R. c #519A64",
"E. c #80BF2E",
"W. c #F3AD0B",
"Q. c #F2AC0F",
"!. c #F5B401",
"~. c #F6BB00",
"^. c #F7BE00",
"/. c #F2AB13",
"(. c #F2AB14",
"). c #F2AA16",
"_. c #EF9F2F",
"`. c #E8803E",
"'. c #E8803F",
"]. c #E9823F",
"[. c #EA863D",
"{. c #EA863E",
"}. c #EA883B",
"|. c #EA893B",
" X c #EA8A3A",
".X c #EB8A3B",
"XX c #EA883C",
"oX c #EC9237",
"OX c #EC9337",
"+X c #ED9735",
"@X c #ED9436",
"#X c #ED9536",
"$X c #ED9437",
"%X c #ED9636",
"&X c #EE9D31",
"*X c #EE9E30",
"=X c #EF9E30",
"-X c #EE9C32",
";X c #ED9835",
":X c #ED9935",
">X c #EE9A35",
",X c #EE9836",
"<X c #EFA12D",
"1X c #F0A627",
"2X c #F1A727",
"3X c #F0A528",
"4X c #F0A429",
"5X c #F0A529",
"6X c #F0A42A",
"7X c #F0A22D",
"8X c #EFA030",
"9X c #E9807A",
"0X c #8F8E8D",
"qX c #908E8E",
"wX c #918F8E",
"eX c #92908F",
"rX c #92918F",
"tX c #9B9999",
"yX c #ABAAAA",
"uX c #ACABAA",
"iX c #ADACAB",
"pX c #EB8886",
"aX c #EC9192",
"sX c #ED9497",
"dX c None",
/* pixels */
"dXdXdXdXdXdXdXdXdXdXdXdXdXdXdXdXdXdXdXdXdXdXdXdXdXdXdXdXdXdXdXdXdXdXdXdXdXdXdXdXdXdXdXdXdXdXdXdXdXdXdXdXdXdXdXdXdXdXdXdXdXdXdXdXdXdXdXdXdXdXdXdXdXdXdXdXdXdXdXdXdXdXdXdXdXdXdXdXdXdXdXdXdXdXdXdXdXdXdXdXdXdXdXdXdXdXdXdXdXdXdXdXdXdXdXdXdXdXdXdXdXdXdXdXdXdXdXdXdXdXdXdXdXdXdXdXdXdXdXdXdXdXdXdXdXdXdXdXdXdX",
"I t e e e e e e e e e 9 e e 9 e e e e 9 9 9 e 9 e 9 e 9 9 9 9 9 9 9 9 9 9 9 7 9 7 7 5 5 7 9 5 5 5 5 1 5 5 1 1 5 1 5 1 1 1 1 1 1 1 1 1 1 < 1 1 < : 1 : 1 1 : : 1 : : : : : : ; : : ; ; : ; : : ; ; ; ; ; ; ; ; ; & ; ; & # ; # ; ; O O ; # ; # # # # # # # O O # # # O O O O O O O O O O O O O O O O O O rXdX",
"I 9 dXdXdXdXdXdXdXdXdXdXdXdXdXdXdXdXdXdXdXdXdXdXdXdXdXdXdXdXdXdXdXdXdXdXdXdXdXdXdXdXdXdXdXdXdXdXdXdXdXdXdXdXdXdXdXdXdXdXdXdXdXdXdXdXdXdXdXdXdXdXdXdXdXdXdXdXdXdXdXdXdXdXdXdXdXdXdXdXdXdXdXdXdXdXdXdXdXdXdXdXdXdXdXdXdXdXdXdXdXdXdXdXdXdXdXdXdXdXdXdXdXdXdXdXdXdXdXdXdXdXdXdXdXdXdXdXdXdXdXdXdXdXdXdXdXdXrXdX",
"I 7 dXdXY Y Y Y dXdXdXY Y Y Y Y dXdXY Y Y Y Y dXdXdXY Y Y Y dXdXdX . . . .dXdXdX . . . . .dXdX . . . . .dXdXdX . . . .dXdXdXD.D.D.D.dXdXdXD.D.D.D.D.dXdXD.D.D.D.D.dXdXdXD.D.D.D.dXdXdXD.D.D.D.dXdXdXD.D.D.D.D.dXdXD.D.D.D.D.dXdXdXD.D.D.D.dXdXdXD.D.D.D.dXdXdXD.D.D.D.D.dXdXD.D.D.D.D.dXdXdXD.D.D.D.dXdXrXdX",
"I 9 dX! ^ ^ ^ ^ R dX! ^ ^ ~ ~ R dXdX^ ^ ^ ^ ~ R dX~ ^ ^ ^ ^ R dX].].].].].X.dX'.].].'.'.'.dXdX'.].].'.'.X.dX].].].].].X.dXC.S.S.S.S.H.dXH.S.S.S.S.S.dXdXS.S.S.S.S.H.dXS.S.S.S.S.H.dXC.S.S.S.S.F.dXF.S.S.S.S.S.dXdXS.S.S.S.S.H.dXS.S.S.S.S.H.dXH.S.S.S.S.S.dXF.S.S.S.S.S.dXdXS.S.S.S.S.H.dXS.S.S.S.S.F.dXrXiX",
"I 9 dX' ' ' ' ' ' dX_ ' ' ' ' ' dXdX_ ' ' ' ' ' dX' ' ' ' ' ' dX XXX|..XXX{.dX|..X|..XXX{.dXdX.X.X.X.XXX}.dX|.|..XXXXXXXdXY.T.T.T.I.R.dXI.I.T.T.T.I.dXdXI.T.T.T.R.T.dXI.T.T.T.R.I.dXT.T.T.T.I.R.dXT.R.T.T.T.I.dXdXR.T.T.T.I.I.dXI.I.T.T.I.I.dXR.I.T.T.T.I.dXI.I.I.Y.T.I.dXdXI.T.T.T.I.I.dXI.T.I.T.R.R.dXrXiX",
"L 7 dXO.$.$.$.+.} dXdX%.$.%.$.} dXdX+.%.$.$.$.] dX+.%.%.$.+.] dX$X>X>X>X>XoXdX$X>X>X>X>X$XdXdX,X-X>X>X>XoXdX$X>X>X>X$XoXdX9.V.V.V.V.y.dXe.V.V.V.V.V.dXdXV.V.V.V.V.e.dXV.V.V.V.V.e.dX9.V.V.V.V.y.dXe.V.V.V.V.V.dXdXV.V.V.V.V.e.dXw.w.c.V.V.y.dXe.V.V.V.V.w.dXe.V.V.V.V.V.dXdXw.V.V.V.V.dXdXV.V.V.V.V.e.dXwXiX",
"I 7 dX&.>.>.>.-.$.dXdX>.>.>.;.%.dXdX-.>.>.>.-.+.dX&.>.>.>.-.#.dX*X7X7X7X*X>XdX-X7X7X7X8X>XdXdX8X7X7X7X<X$XdX_.7X7X7X<X>XdXc.M.M.M.c.V.dXw.c.M.M.M.c.dXdXc.M.M.M.c.w.dXc.M.M.M.n.V.dXc.M.M.M.c.V.dXV.n.M.M.M.c.dXdXc.M.M.M.c.V.dXk.M.M.M.c.V.dXV.c.M.M.M.c.dXV.c.M.M.M.n.dXdXn.M.M.M.c.dXdXc.M.M.M.c.V.dXwXiX",
"L 7 dX,.5.5.5.3.>.dXdX5.5.5.3.>.dXdX3.5.4.4.3.-.dX,.5.5.5.3.-.dX4X(.(.(.2X<XdX4X(.(.(.2X7XdXdX2X).).).2X*XdX4X/.)./.2X7XdXi.j.j.j.u.M.dXn.a.d.d.j.a.dXdXa.j.j.j.a.c.dXa.j.j.j.a.k.dXM.j.j.j.p.M.dXk.a.j.j.j.a.dXdXa.j.j.j.a.c.dXp.j.j.j.a.l.dXM.a.j.j.j.u.dXc.a.d.j.j.p.dXdXp.j.j.j.a.dXdXi.j.j.d.a.c.dXwXiX",
"L 7 dX4.pXpXpX9X,.dXdXpXpXpX9X3.dXdX9XpXpXpX9X,.dX5.pXpXpX9X2.dX/.!.!.!.W.2XdX(.!.!.!.W.2XdXdXW.!.!.!.W.4XdXQ.!.!.!.W.4XdXj.8.8.8.d.u.dXi.d.8.d.8.d.dXdXd.8.8.8.d.u.dXd.8.8.8.d.i.dXd.8.8.8.d.u.dXM.d.8.8.8.d.dXdXd.8.8.8.d.i.dXd.8.8.8.d.i.dXM.d.8.8.8.j.dXu.d.8.8.8.d.dXdXd.8.8.8.d.dXdXd.8.8.8.d.p.dXwXyX",
"L 5 dXpXaXsXaXpX5.dXdXaXsXaXpX4.dXdXpXaXsXaXpXdXdXpXaXsXaXpX5.dX!.~.^.~.!.(.dXdX~.^.~.!.(.dXdX!.^.^.^.!.dXdX!.~.^.^.!.).dX8.7.E.7.8.j.dXdX8.E.E.7.8.dXdX8.7.E.7.8.dXdX8.7.E.7.8.d.dX8.7.E.7.8.d.dXdX8.7.E.7.8.dXdX8.7.E.7.8.dXdX8.7.E.7.8.d.dXd.8.7.E.7.8.dXdX8.7.7.7.8.dXdX8.7.E.7.8.dXdX8.7.E.7.8.dXdX0XyX",
"L 5 dX3.5.5.4.3.>.dXdX5.5.5.3.>.dXdX3.5.5.5.3.dXdX3.5.5.5.3.>.dX2X(.(.(.2X<XdXdX(.(.(.2X7XdXdX2X(./.).2XdXdX2X(.(./.2X7XdXa.j.j.j.a.M.dXdXa.j.j.j.a.dXdXa.j.j.j.a.dXdXa.j.j.j.a.M.dXa.j.j.j.a.M.dXdXa.j.j.d.a.dXdXa.j.j.j.a.dXdXp.j.j.j.p.M.dXM.a.j.j.j.a.dXdXa.j.j.d.a.dXdXa.d.j.j.a.dXdXa.j.j.j.a.dXdXwXdX",
"K 5 dXdX>.>.>.-.dXdXdX>.>.>.-.$.dXdX-.>.>.>.-.dXdXdX>.>.>.-.dXdXdX7X7X7X8XdXdXdX7X7X7X8X>XdXdX8X7X7X7X8XdXdXdX7X<X7X8XdXdXdXM.M.M.n.dXdXdXn.M.M.M.n.dXdXn.M.M.M.c.dXdXdXM.M.M.c.dXdXdXM.M.M.c.dXdXdXc.M.M.M.c.dXdXn.M.M.M.c.dXdXdXM.M.M.n.dXdXdXc.M.M.M.dXdXdXn.M.M.M.n.dXdXc.M.M.M.n.dXdXdXM.M.M.n.dXdXwXdX",
"K 5 dXdXdXdXdXdXdXdXdXdXdXdXdXdXdXdXdXdXdXdXdXdXdXdXdXdXdXdXdXdXdXdXdXdXdXdXdXdXdXdXdXdXdXdXdXdXdXdXdXdXdXdXdXdXdXdXdXdXdXdXdXdXdXdXdXdXdXdXdXdXdXdXdXdXdXdXdXdXdXdXdXdXdXdXdXdXdXdXdXdXdXdXdXdXdXdXdXdXdXdXdXdXdXdXdXdXdXdXdXdXdXdXdXdXdXdXdXdXdXdXdXdXdXdXdXdXdXdXdXdXdXdXdXdXdXdXdXdXdXdXdXdXdXdXdXdX0XdX",
"dXU J J J J J J J J G G G G G D D D G D D D D D D C D C C D D D D C C C D N C N N C B B B B B N N N N N N N N N N N m N m m m m m m m m m v v m m v m v v v v v v v x v v x v x v x v x x k x x x x k x x x h k x k k k x h h h s k h s h s s h h s s s s s s s s p s p s s p p p p s u u i u s u u u u tXdX",
"dXdXdXdXdXdXdXdXdXdXdXdXdXdXdXdXdXdXdXdXdXdXdXdXdXdXdXdXdXdXdXdXdXdXdXdXdXdXdXdXdXdXdXdXdXdXdXdXdXdXdXdXdXdXdXdXdXdXdXdXdXdXdXdXdXdXdXdXdXdXdXdXdXdXdXdXdXdXdXdXdXdXdXdXdXdXdXdXdXdXdXdXdXdXdXdXdXdXdXdXdXdXdXdXdXdXdXdXdXdXdXdXdXdXdXdXdXdXdXdXdXdXdXdXdXdXdXdXdXdXdXdXdXdXdXdXdXdXdXdXdXdXdXdXdXdXdXdXdXdX"
};
