/* XPM */
static char *out_3[] = {
/* columns rows colors chars-per-pixel */
"150 16 80 1 ",
"  c #34302E",
". c #35312E",
"X c #35312F",
"o c #36312F",
"O c #36322F",
"+ c #363230",
"@ c #373330",
"# c #373331",
"$ c #383431",
"% c #383432",
"& c #393432",
"* c #393532",
"= c #3A3533",
"- c #3A3634",
"; c #3A3734",
": c #3B3735",
"> c #3C3835",
", c #3C3836",
"< c #3D3836",
"1 c #3D3937",
"2 c #3D3A38",
"3 c #3E3A38",
"4 c #3E3B39",
"5 c #3F3B39",
"6 c #3F3C39",
"7 c #3F3C3A",
"8 c #403C39",
"9 c #403C3A",
"0 c #413D3B",
"q c #413E3C",
"w c #423E3C",
"e c #423F3D",
"r c #433F3D",
"t c #555250",
"y c #5A5655",
"u c #5A5755",
"i c #5B5755",
"p c #5B5856",
"a c #5C5957",
"s c #5D5957",
"d c #5D5A58",
"f c #5E5A58",
"g c #5E5B58",
"h c #5E5B59",
"j c #5F5C59",
"k c #5F5C5A",
"l c #605C5A",
"z c #605D5B",
"x c #615E5B",
"c c #615E5C",
"v c #625F5D",
"b c #63605E",
"n c #64605E",
"m c #64615F",
"M c #656260",
"N c #666361",
"B c #666461",
"V c #676462",
"C c #686563",
"Z c #696564",
"A c #696664",
"S c #6A6765",
"D c #6B6766",
"F c #6B6866",
"G c #6C6867",
"H c #6C6967",
"J c #6C6A67",
"K c #6F6D6C",
"L c #706E6E",
"P c #716F6E",
"I c #7C7A78",
"U c #8F8E8D",
"Y c #908E8E",
"T c #918F8E",
"R c #92908F",
"E c #92918F",
"W c #9B9999",
"Q c #AAA9A9",
"! c #ABAAAA",
"~ c None",
/* pixels */
"~~~~~~~~~~~~~~~~~~~~~~~~~~~~~~~~~~~~~~~~~~~~~~~~~~~~~~~~~~~~~~~~~~~~~~~~~~~~~~~~~~~~~~~~~~~~~~~~~~~~~~~~~~~~~~~~~~~~~~~~~~~~~~~~~~~~~~~~~~~~~~~~~~~~~~",
"Pteeeeeeeee9ee9eeee9e9999ee999999999997777777771171771177111111111<1<11::1:11::1:<::::;::;;:;::;;;;;;;;;#;;##;@;;OO;O;@@@@%@@@@@@@OOOOOOOOOOOOOOOOOOE~",
"P9~~~~~~~~~~~~~~~~~~~~~~~~~~~~~~~~~~~~~~~~~~~~~~~~~~~~~~~~~~~~~~~~~~~~~~~~~~~~~~~~~~~~~~~~~~~~~~~~~~~~~~~~~~~~~~~~~~~~~~~~~~~~~~~~~~~~~~~~~~~~~~~~~~E~",
"P7~~~~~~~~~~~~~~~~~~~~~~~~~~~~~~~~~~~~~~~~~~~~~~~~~~~~~~~~~~~~~~~~~~~~~~~~~~~~~~~~~~~~~~~~~~~~~~~~~~~~~~~~~~~~~~~~~~~~~~~~~~~~~~~~~~~~~~~~~~~~~~~~~~E~",
"P7~~~~~~~~~~~~~~~~~~~~~~~~~~~~~~~~~~~~~~~~~~~~~~~~~~~~~~~~~~~~~~~~~~~~~~~~~~~~~~~~~~~~~~~~~~~~~~~~~~~~~~~~~~~~~~~~~~~~~~~~~~~~~~~~~~~~~~~~~~~~~~~~~~E~",
"P9~~~~~~~~~~~~~~~~~~~~~~~~~~~~~~~~~~~~~~~~~~~~~~~~~~~~~~~~~~~~~~~~~~~~~~~~~~~~~~~~~~~~~~~~~~~~~~~~~~~~~~~~~~~~~~~~~~~~~~~~~~~~~~~~~~~~~~~~~~~~~~~~~~E~",
"K7~~~~~~~~~~~~~~~~~~~~~~~~~~~~~~~~~~~~~~~~~~~~~~~~~~~~~~~~~~~~~~~~~~~~~~~~~~~~~~~~~~~~~~~~~~~~~~~~~~~~~~~~~~~~~~~~~~~~~~~~~~~~~~~~~~~~~~~~~~~~~~~~~~E~",
"P7~~~~~~~~~~~~~~~~~~~~~~~~~~~~~~~~~~~~~~~~~~~~~~~~~~~~~~~~~~~~~~~~~~~~~~~~~~~~~~~~~~~~~~~~~~~~~~~~~~~~~~~~~~~~~~~~~~~~~~~~~~~~~~~~~~~~~~~~~~~~~~~~~~T~",
"K7~~~~~~~~~~~~~~~~~~~~~~~~~~~~~~~~~~~~~~~~~~~~~~~~~~~~~~~~~~~~~~~~~~~~~~~~~~~~~~~~~~~~~~~~~~~~~~~~~~~~~~~~~~~~~~~~~~~~~~~~~~~~~~~~~~~~~~~~~~~~~~~~~~Y~",
"K7~~~~~~~~~~~~~~~~~~~~~~~~~~~~~~~~~~~~~~~~~~~~~~~~~~~~~~~~~~~~~~~~~~~~~~~~~~~~~~~~~~~~~~~~~~~~~~~~~~~~~~~~~~~~~~~~~~~~~~~~~~~~~~~~~~~~~~~~~~~~~~~~~~Y!",
"K7~~~~~~~~~~~~~~~~~~~~~~~~~~~~~~~~~~~~~~~~~~~~~~~~~~~~~~~~~~~~~~~~~~~~~~~~~~~~~~~~~~~~~~~~~~~~~~~~~~~~~~~~~~~~~~~~~~~~~~~~~~~~~~~~~~~~~~~~~~~~~~~~~~UQ",
"K7~~~~~~~~~~~~~~~~~~~~~~~~~~~~~~~~~~~~~~~~~~~~~~~~~~~~~~~~~~~~~~~~~~~~~~~~~~~~~~~~~~~~~~~~~~~~~~~~~~~~~~~~~~~~~~~~~~~~~~~~~~~~~~~~~~~~~~~~~~~~~~~~~~TQ",
"K7~~~~~~~~~~~~~~~~~~~~~~~~~~~~~~~~~~~~~~~~~~~~~~~~~~~~~~~~~~~~~~~~~~~~~~~~~~~~~~~~~~~~~~~~~~~~~~~~~~~~~~~~~~~~~~~~~~~~~~~~~~~~~~~~~~~~~~~~~~~~~~~~~~U~",
"K7~~~~~~~~~~~~~~~~~~~~~~~~~~~~~~~~~~~~~~~~~~~~~~~~~~~~~~~~~~~~~~~~~~~~~~~~~~~~~~~~~~~~~~~~~~~~~~~~~~~~~~~~~~~~~~~~~~~~~~~~~~~~~~~~~~~~~~~~~~~~~~~~~~U~",
"~IJJJJJJJJGFFFFDDDDDDDDDDZDZZDDZDZBZZBBZNZBBBBBNNNNNNNNNNNmNmmmmmmmmmvbbbbbbvvvvbvzvvzvzbzzzzzzzzzzzzkkkkkkkhhhhallahaahhaaaahhaaaapppppiaaaiiiiiiiiW~",
"~~~~~~~~~~~~~~~~~~~~~~~~~~~~~~~~~~~~~~~~~~~~~~~~~~~~~~~~~~~~~~~~~~~~~~~~~~~~~~~~~~~~~~~~~~~~~~~~~~~~~~~~~~~~~~~~~~~~~~~~~~~~~~~~~~~~~~~~~~~~~~~~~~~~~~"
};
