/* XPM */
static const char *bat_fault22_xpm[] = {
/* columns rows colors chars-per-pixel */
"22 19 238 2 ",
"   c #1F1A17",
".  c #201A17",
"X  c #211B17",
"o  c #221B18",
"O  c #231B18",
"+  c #2E1F1B",
"@  c #371C18",
"#  c #32241B",
"$  c #37221D",
"%  c #3B281E",
"&  c #2B2724",
"*  c #312320",
"=  c #322623",
"-  c #312C2A",
";  c #312D2A",
":  c #34302D",
">  c #35302D",
",  c #36322F",
"<  c #363230",
"1  c #383431",
"2  c #383432",
"3  c #3B3734",
"4  c #45201B",
"5  c #57211B",
"6  c #60231D",
"7  c #6A241D",
"8  c #6B251D",
"9  c #482722",
"0  c #482922",
"q  c #4D2823",
"w  c #4C2B25",
"e  c #492E27",
"r  c #512F22",
"t  c #542B25",
"y  c #502C27",
"u  c #572D25",
"i  c #5B2822",
"p  c #552E28",
"a  c #5D3925",
"s  c #5B322C",
"d  c #4B3C39",
"f  c #4F3C38",
"g  c #4E3D39",
"h  c #632A23",
"j  c #623C27",
"k  c #60342E",
"l  c #68362E",
"z  c #623929",
"x  c #6A3B2B",
"c  c #71352E",
"v  c #7B3128",
"b  c #703F2F",
"n  c #623C38",
"m  c #723B35",
"M  c #713D36",
"N  c #783B33",
"B  c #7B3C35",
"V  c #514111",
"C  c #67520F",
"Z  c #6E570E",
"A  c #6F580E",
"S  c #634B14",
"D  c #44413F",
"F  c #664427",
"G  c #6E4B29",
"H  c #71432A",
"J  c #7D4E2B",
"K  c #7D4332",
"L  c #7B4431",
"P  c #7B6A33",
"I  c #464240",
"U  c #474341",
"Y  c #534A48",
"T  c #545150",
"R  c #5B5857",
"E  c #5C5856",
"W  c #5D5B5A",
"Q  c #7A4642",
"!  c #635E5A",
"~  c #66615B",
"^  c #63605E",
"/  c #696458",
"(  c #676765",
")  c #6C6968",
"_  c #6E6C6B",
"`  c #6E6D6C",
"'  c #736B65",
"]  c #74716F",
"[  c #757373",
"{  c #767574",
"}  c #7A7877",
"|  c #7C7A7A",
" . c #7D7B7B",
".. c #7E7C7A",
"X. c #9A2B22",
"o. c #923228",
"O. c #833A31",
"+. c #923F31",
"@. c #9A3C31",
"#. c #B03126",
"$. c #BC372A",
"%. c #C53428",
"&. c #D73C2E",
"*. c #AE781C",
"=. c #844436",
"-. c #84433C",
";. c #8A4239",
":. c #954339",
">. c #94473E",
",. c #96473E",
"<. c #9A4B3E",
"1. c #8C593C",
"2. c #955D30",
"3. c #AB493E",
"4. c #B14034",
"5. c #B4483C",
"6. c #9B6C28",
"7. c #A26335",
"8. c #AC6339",
"9. c #B96A3C",
"0. c #BE723B",
"q. c #D14234",
"w. c #D44334",
"e. c #DD4234",
"r. c #DF493A",
"t. c #D84A3C",
"y. c #DA4D3F",
"u. c #C37E35",
"i. c #C57B38",
"p. c #C57C39",
"a. c #854E4A",
"s. c #9F4D44",
"d. c #8D5B4A",
"f. c #9D5C4E",
"g. c #A74B41",
"h. c #A54E46",
"j. c #AD4D42",
"k. c #BD4D41",
"l. c #A25245",
"z. c #A3564E",
"x. c #B25247",
"c. c #BF5145",
"v. c #B75349",
"b. c #BD584F",
"n. c #896D48",
"m. c #9C6F4E",
"M. c #806954",
"N. c #BF604F",
"B. c #BD615A",
"V. c #CD5043",
"C. c #C95347",
"Z. c #CC5447",
"A. c #CD5447",
"S. c #C95549",
"D. c #C2594D",
"F. c #C5584C",
"G. c #C7584C",
"H. c #CB5F4F",
"J. c #DE5142",
"K. c #C35D54",
"L. c #CB5C50",
"P. c #CE5C50",
"I. c #D45E52",
"U. c #DA5F52",
"Y. c #DA5F53",
"T. c #DE5D50",
"R. c #DE5E52",
"E. c #E2594A",
"W. c #E25C4E",
"Q. c #E35F52",
"!. c #D76257",
"~. c #DE6255",
"^. c #DC6257",
"/. c #DD6357",
"(. c #DA685F",
"). c #E16053",
"_. c #E36052",
"`. c #E36053",
"'. c #E46053",
"]. c #E26255",
"[. c #E36255",
"{. c #E06256",
"}. c #E06356",
"|. c #E16357",
" X c #E46255",
".X c #E46356",
"XX c #E46457",
"oX c #E26559",
"OX c #E46558",
"+X c #E5685D",
"@X c #CF6E66",
"#X c #DC6C63",
"$X c #D3746F",
"%X c #D9766F",
"&X c #E5756D",
"*X c #A58524",
"=X c #BE8030",
"-X c #CFA20F",
";X c #DDB017",
":X c #CB8336",
">X c #C18A36",
",X c #CD883E",
"<X c #D48E34",
"1X c #CD9032",
"2X c #D79630",
"3X c #A8825F",
"4X c #AB8A67",
"5X c #A98C67",
"6X c #AD9974",
"7X c #B39A72",
"8X c #ADA17E",
"9X c #D99D4F",
"0X c #E1A953",
"qX c #EAC753",
"wX c #848382",
"eX c #868483",
"rX c #888585",
"tX c #8C8B8A",
"yX c #959493",
"uX c #969494",
"iX c #999898",
"pX c #9B9A9A",
"aX c #9C9A99",
"sX c #B1A180",
"dX c #A4A3A1",
"fX c #A9A8A8",
"gX c #ABAAA9",
"hX c #AEADAC",
"jX c #C5B38E",
"kX c #C8BA8D",
"lX c #CCBD92",
"zX c #D2BE94",
"xX c #C0BFBF",
"cX c #D3C397",
"vX c #F7E4BD",
"bX c #C9C9C8",
"nX c #FBECC1",
"mX c None",
/* pixels */
"mXmXmXmXmXmXmXmXmX] ) I mXmXmXmXmXmXmXmXmXmX",
"mXmXmXmXmXmXmXmX; dXyXR 1 mXmXmXmXmXmXmXmXmX",
"mXmXmXmXmX/ kXcXjX7X5X4X3Xm.1.% mXmXp y mXmX",
"mXmXmXmXmXP qXnXvX0X9X,Xp.0.9.j mXB F.j.O mX",
"mXmXmXmXmXZ ;XlXzX2X<X:Xi.0.8.z >.U.'.c.0 mX",
"mXmXmXmXn G *X8XsX>X<X:Xi.7.L x.[.'.W.k.q . ",
"mXmXmXa.$X%Xf.M.6X1X<Xu.2.=.P.[.Q.A.O.$ . mX",
"mXmXmX* Q @X&XB.d.6.=XJ <.~. XT.3.t . mXmXmX",
"mXmXmXmXmXe z.#X(.l.b D.[.~.S.c + o mXmXmXmX",
"mXmXmXmXmXV S M K.+XoXXXT.:.0 # mXmXmXmXmXmX",
"mXmXmXmXmXA -Xn.s.XX X'.C.u H a mXmXmXmXmXmX",
"mXmXmXmXmXC *.N.[.!.g.A.E.V.+.r mXmXmXmXmXmX",
"mXmXmXmXmXK P./.G.l F x 5.J.y.4.h mXmXmXmXmX",
"mXmXmXmXh./.I.;.f ! ' ~ g @.t.r.w.o.mXmXmXmX",
"mXmXM b./.v.s Y aXiXuXtX} d v q.e.&.#.7 mXmX",
"mX-.!.L.N = ^ rXwXwXuXtXwX[ D i $.%.6 7 @ mX",
"mXk >.w O I gXbXbXuXyXtXwX| ) , 4 X.5 mXmXmX",
"mXmX. . mX, ..hXfX .[ ` ( W T ;     mXmXmXmX",
"mXmXmXmXmXmXmXmXE 3 1 < : & mXmXmXmXmXmXmXmX"
};
