/* XPM */
static char *out_6[] = {
/* columns rows colors chars-per-pixel */
"32 28 219 2 ",
"   c #1F1A17",
".  c #211A17",
"X  c #241C18",
"o  c #2B1D1A",
"O  c #321C18",
"+  c #26221F",
"@  c #2B231E",
"#  c #34211C",
"$  c #3F2C1D",
"%  c #2A2522",
"&  c #2F2924",
"*  c #3A2521",
"=  c #332E2C",
"-  c #35322F",
";  c #363230",
":  c #3C3835",
">  c #421D19",
",  c #43231E",
"<  c #4C211C",
"1  c #412D1E",
"2  c #52211B",
"3  c #413413",
"4  c #4A351E",
"5  c #72241E",
"6  c #412722",
"7  c #442924",
"8  c #4A2D29",
"9  c #512A24",
"0  c #522F29",
"q  c #5F2F29",
"w  c #413126",
"e  c #4D3322",
"r  c #4B302B",
"t  c #533423",
"y  c #5D3A25",
"u  c #54312D",
"i  c #5A322D",
"p  c #433F3D",
"a  c #563633",
"s  c #6E2B23",
"d  c #623C27",
"f  c #66332C",
"g  c #6B342D",
"h  c #74352D",
"j  c #783028",
"k  c #693630",
"l  c #653D3A",
"z  c #763B33",
"x  c #7B610D",
"c  c #44403E",
"v  c #54493D",
"b  c #5D513E",
"n  c #714933",
"m  c #7E4039",
"M  c #7F5A3F",
"N  c #474342",
"B  c #494644",
"V  c #4C4947",
"C  c #4E4B49",
"Z  c #564C42",
"A  c #5B4F44",
"S  c #514E4C",
"D  c #54514F",
"F  c #555150",
"G  c #5E5B56",
"H  c #5E5C5A",
"J  c #7C4741",
"K  c #605C5B",
"L  c #666362",
"P  c #6E6C6B",
"I  c #716F6E",
"U  c #72706F",
"Y  c #757474",
"T  c #7A7775",
"R  c #7C7B7B",
"E  c #852D24",
"W  c #962A21",
"Q  c #95352A",
"!  c #853A31",
"~  c #A52C22",
"^  c #BA3C2F",
"/  c #C23226",
"(  c #CB3629",
")  c #DC3528",
"_  c #DD3C2D",
"`  c #D93F31",
"'  c #99790A",
"]  c #8C721F",
"[  c #A17C09",
"{  c #875C27",
"}  c #84542C",
"|  c #844734",
" . c #83443E",
".. c #894139",
"X. c #974035",
"o. c #95463D",
"O. c #9C463C",
"+. c #9A483F",
"@. c #A7483D",
"#. c #AB493E",
"$. c #B44236",
"%. c #B74A3E",
"&. c #A3712B",
"*. c #AF762E",
"=. c #A66535",
"-. c #B5663B",
";. c #B66A3B",
":. c #BB6D3C",
">. c #A27B3C",
",. c #BF733B",
"<. c #DD4334",
"1. c #DE4738",
"2. c #D04A3C",
"3. c #DE4A3B",
"4. c #E04E3F",
"5. c #C87F37",
"6. c #C37939",
"7. c #8A4841",
"8. c #8D4E48",
"9. c #9B4A41",
"0. c #965651",
"q. c #A64E46",
"w. c #AD4C41",
"e. c #B74D41",
"r. c #A95047",
"t. c #AC524A",
"y. c #BB5449",
"u. c #BD5A50",
"i. c #886149",
"p. c #84755A",
"a. c #91725A",
"s. c #937D5F",
"d. c #C54F42",
"f. c #C5574A",
"g. c #C3594F",
"h. c #CB5B4F",
"j. c #D65446",
"k. c #DE5445",
"l. c #D0574B",
"z. c #DC5A4C",
"x. c #CD5E53",
"c. c #D45C50",
"v. c #E04F40",
"b. c #E15445",
"n. c #E25A4C",
"m. c #E35E51",
"M. c #CA6057",
"N. c #C3645D",
"B. c #D06056",
"V. c #DC6155",
"C. c #DE6458",
"Z. c #E46356",
"A. c #E4665A",
"S. c #E4685D",
"D. c #CC6F6A",
"F. c #DE7B75",
"G. c #E56C62",
"H. c #E6746B",
"J. c #E17973",
"K. c #E87A72",
"L. c #E97F79",
"P. c #E0AF0A",
"I. c #E6B101",
"U. c #F4BC00",
"Y. c #D8972C",
"T. c #DC9A2D",
"R. c #C48034",
"E. c #CD8536",
"W. c #C78F32",
"Q. c #C98139",
"!. c #D28C34",
"~. c #CB9131",
"^. c #D79333",
"/. c #9D826C",
"(. c #988C6D",
"). c #81807F",
"_. c #968C73",
"`. c #9E8871",
"'. c #A38D6A",
"]. c #A6917B",
"[. c #A99D7C",
"{. c #B29C72",
"}. c #BFAA77",
"|. c #D49652",
" X c #E9807A",
".X c #E0AF72",
"XX c #DEC475",
"oX c #838281",
"OX c #888786",
"+X c #8D8C8B",
"@X c #908E8C",
"#X c #959393",
"$X c #999897",
"%X c #9E9D9D",
"&X c #A79A80",
"*X c #B1A585",
"=X c #A7A6A6",
"-X c #B4B4B3",
";X c #B9B8B7",
":X c #BCBCBB",
">X c #CAB780",
",X c #CBB78F",
"<X c #CEBE8D",
"1X c #CEBB97",
"2X c #C8BD99",
"3X c #E8BF85",
"4X c #CFC090",
"5X c #ECC98D",
"6X c #E2D09C",
"7X c #E0CCA4",
"8X c #F9E6AF",
"9X c #FCE9AB",
"0X c #F6E0B5",
"qX c #C4C3C2",
"wX c #CBCBCB",
"eX c #FCF3DD",
"rX c #E1E1E0",
"tX c #FEF6E0",
"yX c None",
/* pixels */
"yXyXyXyXyXyXyXyXyXyXyXyXyXyXyXyXyXyXyXyXyXyXyXyXyXyXyXyXyXyXyXyX",
"yXyXyXyXyXyXyXyXyXyXyXyXyX:XrX=XI H yXyXyXyXyXyXyXyXyXyXyXyXyXyX",
"yXyXyXyXyXyXyXyXyXyXyXyX+ @X+XR F V   yXyXyXyXyXyXyXyXyXyXyXyXyX",
"yXyXyXyXyXyXyXyXG <X>X}.{.'.s.s.`.]./.a.i.n   yXyXyXyX  yXyXyXyX",
"yXyXyXyXyXyXyX  2X9XeXtXeX5X5X.X|.Q.6.,.:.-.t yXyX  k h.z X yXyX",
"yXyXyXyXyXyXyX  ' U.9X8X0XY.^.!.E.5.6.,.:.-.d   o +.Z.Z.f.X yXyX",
"yXyXyXyXyXyXyX  ' U.6X*X7XT.^.!.E.5.6.,.:.-.e 6 f.Z.Z.m.#.o yXyX",
"yXyXyXyXyXyXyX  ' P.<X[.1X~.^.!.E.5.6.6.-.y k V.Z.Z.Z.n.n.%.X yX",
"yXyXyXyXyX@ l 0.e ] [._.&X>.^.!.E.5.6.=.$ 9.A.Z.Z.m.n.n.X.o   yX",
"yXyXyXyXa F.L.L.J.J b (.,XW.^.!.E.5.} 7 g.Z.Z.m.m.n.d.9     yXyX",
"yXyXyXyX  a D.K.K.K.N.r p.Y.^.!.R.y k V.Z.Z.Z.m.z.! X     yXyXyX",
"yXyXyXyXyX. X 8.H.H.H.H.7.1 &.*.$ 9.A.Z.Z.m.n.e.,     yXyXyXyXyX",
"yXyXyXyXyXyXyX  8 N.H.G.G.M.0 6 g.Z.A.Z.m.z.g X   yXyXyXyXyXyXyX",
"yXyXyXyXyXyXyX  3 .  .G.G.G.S.C.A.Z.Z.Z.@.#     yXyXyXyXyXyXyXyX",
"yXyXyXyXyXyXyX  ' [ @ 7 u.S.A.Z.Z.Z.l.q   # e yXyXyXyXyXyXyXyXyX",
"yXyXyXyXyXyXyX  ' U.XXw q.A.Z.Z.Z.n.#.O e -.y yXyXyXyXyXyXyXyXyX",
"yXyXyXyXyXyXyX  ' I.i.x.A.Z.Z.Z.n.n.n.j.g y y yXyXyXyXyXyXyXyXyX",
"yXyXyXyXyXyXyXyXx | V.Z.Z.Z.w.6 O.n.n.b.k.$.,   yXyXyXyXyXyXyXyX",
"yXyXyXyXyXyXyX# q.A.Z.A.c.f X { 4 h k.v.v.v.3.j . yXyXyXyXyXyXyX",
"yXyXyXyXyXyXu x.A.Z.Z.O.@ @ v A Z & 9 2.v.3.3.1.^ < yXyXyXyXyXyX",
"yXyXyXyXyX .A.A.Z.h.0 . L $X$X#X@XoXp O $.4.1.<.<.` E o yXyXyXyX",
"yXyXyX* t.A.Z.V...X % #XwX%X$X#X@XOX).N X Q <.<.<._ _ / 2 yXyXyX",
"yXyXu B.A.A.y.7 X : K L L L $X#X@XOX).R V . s ` _ ( < 5 ~ > yXyX",
"yXi S.A.V.z .   B -XqX:X;X#X$X#X@XOXoXR T C . < ( ) W       yXyX",
"yXX 0 o.#       P :XwXwXqX=X$X#X+XOXoXR Y U -   O ~ 5 . yXyXyXyX",
"yXyX    X   yXyXC ;XwXqX:X#X+XOXoXR T Y U P =         yXyXyXyXyX",
"yXyXyXyXyXyXyXyX  % T OXOXF D S C V N - % .   yXyXyXyXyXyXyXyXyX",
"yXyXyXyXyXyXyXyXyXyXyXyXyXyXyXyXyXyXyXyXyXyXyXyXyXyXyXyXyXyXyXyX"
};
