/* XPM */
static char *out_7[] = {
/* columns rows colors chars-per-pixel */
"22 17 209 2 ",
"   c #33211D",
".  c #3A241F",
"X  c #352825",
"o  c #4A1F1B",
"O  c #492721",
"+  c #45302E",
"@  c #5A332E",
"#  c #423837",
"$  c #503E3B",
"%  c #523F3E",
"&  c #672A23",
"*  c #7E2820",
"=  c #61312B",
"-  c #66332C",
";  c #693029",
":  c #6E362F",
">  c #6C3C36",
",  c #743A33",
"<  c #464040",
"1  c #4B4747",
"2  c #5E4B4D",
"3  c #4A4D50",
"4  c #4B4D50",
"5  c #574F52",
"6  c #4F5153",
"7  c #52585C",
"8  c #555A5D",
"9  c #575A5D",
"0  c #59595C",
"q  c #5A5D5F",
"w  c #6F4B49",
"e  c #614F5E",
"r  c #695656",
"t  c #635B5B",
"y  c #625F5E",
"u  c #7E5F5D",
"i  c #555767",
"p  c #595E62",
"a  c #5D5E60",
"s  c #5D5A66",
"d  c #55596A",
"f  c #586166",
"g  c #596268",
"h  c #606161",
"j  c gray39",
"k  c #606467",
"l  c #676565",
"z  c #676768",
"x  c #63636D",
"c  c #69676A",
"v  c #6B6969",
"b  c #6C6B6D",
"n  c #706E6F",
"m  c #616377",
"M  c #686171",
"N  c #6E6C71",
"B  c #6D6E72",
"V  c #706E70",
"C  c #767574",
"Z  c #797777",
"A  c gray48",
"S  c #7A7C7F",
"D  c #902D23",
"F  c #8C362C",
"G  c #8D3D34",
"H  c #923F35",
"J  c #A63E32",
"K  c #C13529",
"L  c #C53A2E",
"P  c #8C463E",
"I  c #9C463C",
"U  c #A0483F",
"Y  c #B54A3F",
"T  c #CC4B3D",
"R  c #D04234",
"E  c #85544E",
"W  c #8F504B",
"Q  c #8C5557",
"!  c #85595E",
"~  c #A64D43",
"^  c #AF4C42",
"/  c #BB5348",
"(  c #B8564C",
")  c #B75C54",
"_  c #BD5B51",
"`  c #BD5B53",
"'  c #815C60",
"]  c #AA6661",
"[  c #B16761",
"{  c #C85043",
"}  c #CC5346",
"|  c #CF5A4D",
" . c #D0564A",
".. c #D45749",
"X. c #D75C4F",
"o. c #DA594C",
"O. c #C65F55",
"+. c #D05F54",
"@. c #DE5D50",
"#. c #DB6155",
"$. c #CE6B63",
"%. c #4E5C80",
"&. c #505E84",
"*. c #516086",
"=. c #526187",
"-. c #53628A",
";. c #53628B",
":. c #54628B",
">. c #55658E",
",. c #55658F",
"<. c #566690",
"1. c #566691",
"2. c #576792",
"3. c #586894",
"4. c #596A97",
"5. c #5A6A97",
"6. c #5A6B98",
"7. c #5B6B98",
"8. c #5B6C9A",
"9. c #5D6E9E",
"0. c #5D6E9F",
"q. c #6C7082",
"w. c #747E83",
"e. c #7C7D83",
"r. c #7E7F88",
"t. c #6E7C97",
"y. c #727F9A",
"u. c #5E70A1",
"i. c #5F70A1",
"p. c #5F70A2",
"a. c #5F70A3",
"s. c #5F72A5",
"d. c #6174A9",
"f. c #6274A9",
"g. c #6174AA",
"h. c #6274AA",
"j. c #6377AF",
"k. c #6478AF",
"l. c #6478B0",
"z. c #6579B0",
"x. c #7F8085",
"c. c #7C8387",
"v. c #7F8387",
"b. c #7E878D",
"n. c #7B8597",
"m. c #76829E",
"M. c #7B8499",
"N. c #7F889C",
"B. c #7A86A2",
"V. c #7D89A5",
"C. c #848382",
"Z. c #818587",
"A. c #868585",
"S. c #848687",
"D. c #868686",
"F. c #878887",
"G. c #848488",
"H. c #8A8989",
"J. c #908F8F",
"K. c #848696",
"L. c #8F8F92",
"P. c #868A9A",
"I. c #80899C",
"U. c #828B9F",
"Y. c #8A8D99",
"T. c #8A8E99",
"R. c #8A929D",
"E. c #8E929D",
"W. c #949293",
"Q. c #959595",
"!. c #949497",
"~. c #979596",
"^. c #909098",
"/. c #929399",
"(. c gray60",
"). c #9D989D",
"_. c #9D999D",
"`. c #808BA2",
"'. c #858DA2",
"]. c #888FA4",
"[. c #898FA4",
"{. c #818BA8",
"}. c #828CA8",
"|. c #8590A5",
" X c #8792A5",
".X c #8A94A5",
"XX c #8D95A5",
"oX c #8C97A7",
"OX c #8392AB",
"+X c #8795A9",
"@X c #8694AB",
"#X c #8A96A8",
"$X c #8895AB",
"%X c #8A96AA",
"&X c #9C9DA4",
"*X c #9C9FAB",
"=X c #9DA0AB",
"-X c #A5A5A5",
";X c #A7A8AB",
":X c #ABABAD",
">X c #A8ADB7",
",X c #AFB3BD",
"<X c #B7BBC4",
"1X c #BFBEC0",
"2X c #BEBFC3",
"3X c #C4C4C5",
"4X c #C8CACF",
"5X c #CECECF",
"6X c None",
/* pixels */
"6X6X6X6X6X6Xl j j q q 9 9 6X6X6X6X6X6X6X6X6X",
"6X6X6XC E.}.}.V.B.m.y.t.+X~.6X6X6X6X6X6X6X6X",
"6X6X6XD.[.k.k.h.i.6.1.:.OX(.6X6X6X6X6X6X6X6X",
"6X6X6XF. Xl.k.h.i.5.2.:.+X~.6X6X6X6X6X6X6X6X",
"6X6X6XD.'.h.h.a.0.4.,.;.@XL.6X6X6X6X6X6X6X6X",
"6X6X6XZ.`.a.p.0.4.3.,.*.%XH.6X6X6X6X6X6X6X6X",
"6X6X6Xc.I.7.8.5.3.,.;.&.%XC.6X6X6X6X6X: 6X6X",
"6X6X6Xc.M.2.2.1.,.,.&.m oXZ 6X6X6X6XU  .H 6X",
"6X6X6Xk R. X X|.B.m ! e Y.A c.S u / o.{ ; 6X",
"6X6X6XB b v c 0 3 + W $.] r 5 P | ..G O 6X6X",
"6X6XC.2X3X1X:X!.r.x s w ) O._ X.^ @ X 6X6X6X",
"6X6XB ;X5X4X<X,X>X*X*X_.E #.@.} > < 6X6X6X6X",
"6XN L.!.G.e.Y.oXI.M._.[ +.I - Y T J 6X6X6X6X",
"6XD.W.-X&XK.q.d i ' _ ~ = 6X6Xt F R L D 6X6X",
"6X6X6Xy n ^.P.m Q ( , . 6X6X6Xb.# & K * o 6X",
"6X6X6X6X6X6X1 c $   6X6X6X6X6X6 w.p % 2 g 6X",
"6X6X6X6X6X6X6X6X6X6X6X6X6X6X6X6X6X6X3 7 f 6X"
};
