/* XPM */
static char *out_8[] = {
/* columns rows colors chars-per-pixel */
"32 25 215 2 ",
"   c #1F1A17",
".  c #211A17",
"X  c #221B18",
"o  c #2D1E1A",
"O  c #341E19",
"+  c #3D1D18",
"@  c #2C201E",
"#  c #35211D",
"$  c #3C231E",
"%  c #2B2625",
"&  c #2D2927",
"*  c #2D2A29",
"=  c #3B2420",
"-  c #312D2B",
";  c #353332",
":  c #383634",
">  c #3D3D3D",
",  c #4A1D19",
"<  c #43251F",
"1  c #4E251F",
"2  c #6B231C",
"3  c #452621",
"4  c #452823",
"5  c #4C2923",
"6  c #4D2E29",
"7  c #542620",
"8  c #502E28",
"9  c #54332F",
"0  c #423736",
"q  c #413E3C",
"w  c #622F28",
"e  c #6D362F",
"r  c #663D38",
"t  c #6C3E39",
"y  c #743932",
"u  c #413E41",
"i  c #3F4243",
"p  c #464647",
"a  c #494545",
"s  c #46474A",
"d  c #494748",
"f  c #47494A",
"g  c #4D4C4C",
"h  c #504049",
"j  c #534F4E",
"k  c #4B4D51",
"l  c #4B4D59",
"z  c #504751",
"x  c #535354",
"c  c #585758",
"v  c #5D5C5E",
"b  c #664C50",
"n  c #675057",
"m  c #4D5167",
"M  c #515560",
"N  c #575B67",
"B  c #5E5F6C",
"V  c #485471",
"C  c #4C5B7E",
"Z  c #5D6265",
"A  c #5C6469",
"S  c #5E6272",
"D  c #646364",
"F  c #696665",
"G  c #666669",
"H  c #6A6A6F",
"J  c #726B6C",
"K  c #6A6B70",
"L  c #656979",
"P  c #706E71",
"I  c #697279",
"U  c #747270",
"Y  c #71787D",
"T  c #7D7A7A",
"R  c #8C2E25",
"E  c #87352C",
"W  c #863B32",
"Q  c #8F3C33",
"!  c #AD3328",
"~  c #C33428",
"^  c #D43529",
"/  c #D23A2C",
"(  c #DD3D2F",
")  c #CE3E31",
"_  c #81443E",
"`  c #95473E",
"'  c #9C453B",
"]  c #AA483D",
"[  c #B24134",
"{  c #B4493D",
"}  c #DB4234",
"|  c #DF4A3B",
" . c #E04D3E",
".. c #884641",
"X. c #9A4E47",
"o. c #904F49",
"O. c #8A524F",
"+. c #815C59",
"@. c #A84D43",
"#. c #BD4C40",
"$. c #BE5449",
"%. c #BF594F",
"&. c #A55D58",
"*. c #CE5144",
"=. c #C1594E",
"-. c #C85A4F",
";. c #D55648",
":. c #D35C4F",
">. c #DB5A4D",
",. c #C95C51",
"<. c #D65F54",
"1. c #E05142",
"2. c #E05749",
"3. c #E25A4C",
"4. c #E35E51",
"5. c #D36054",
"6. c #D3675E",
"7. c #DF685E",
"8. c #E36255",
"9. c #E3665A",
"0. c #E5685C",
"q. c #CA6860",
"w. c #E6766E",
"e. c #E87C75",
"r. c #82807E",
"t. c #4E5C81",
"y. c #515F84",
"u. c #526087",
"i. c #54638C",
"p. c #5B698D",
"a. c #566690",
"s. c #596994",
"d. c #5B6C9A",
"f. c #606983",
"g. c #677081",
"h. c #697189",
"j. c #6E7B8F",
"k. c #757785",
"l. c #737E85",
"z. c #707589",
"x. c #74798E",
"c. c #607096",
"v. c #65749C",
"b. c #767B90",
"n. c #5E6FA0",
"m. c #5F71A3",
"M. c #6072A6",
"N. c #6A7AA3",
"B. c #6276AD",
"V. c #6478B1",
"C. c #7B8287",
"Z. c #72818B",
"A. c #79858E",
"S. c #758195",
"D. c #7E8193",
"F. c #6F80AB",
"G. c #7283AF",
"H. c #7787B3",
"J. c #7A89B5",
"K. c #808086",
"L. c #898786",
"P. c #8D8C8E",
"I. c #838B92",
"U. c #828A9C",
"Y. c #8A8D9B",
"T. c #8A9095",
"R. c #8E959B",
"E. c #8E989F",
"W. c #939494",
"Q. c #93969B",
"!. c #989799",
"~. c #9B9999",
"^. c #858FA2",
"/. c #8294A0",
"(. c #8C93A3",
"). c #8D9AA3",
"_. c #8F98A9",
"`. c #9196A5",
"'. c #979DA1",
"]. c #9D9DA3",
"[. c #969EAE",
"{. c #989DAA",
"}. c #929DB5",
"|. c #8FA2AE",
" X c #93A1AA",
".X c #9CA4B3",
"XX c #9FADB6",
"oX c #98A4BA",
"OX c #9DABBE",
"+X c #A3A2A5",
"@X c #A8A7A5",
"#X c #A5A5AB",
"$X c #ABABAB",
"%X c #A7ADB6",
"&X c #ABACB1",
"*X c #A5AFBA",
"=X c #ACB2BE",
"-X c #B3B2B2",
";X c #B1B5BD",
":X c #BFBEBF",
">X c #9FAFC0",
",X c #A5B2C2",
"<X c #AAB6C2",
"1X c #ADB8C3",
"2X c #B3BBC1",
"3X c #BEC0C5",
"4X c #BEC1C9",
"5X c #C3C3C6",
"6X c #C3C6CD",
"7X c #C7C8CB",
"8X c #CAC9CA",
"9X c #CCCED1",
"0X c #D1D2D4",
"qX c #DEDEDD",
"wX c None",
/* pixels */
"wXwXwXwXwXwXwXwXwXwXwXwXwXwXwXwXwXwXwXwXwXwXwXwXwXwXwXwXwXwXwXwX",
"wXwXwXwXwXv P.W.W.!.!.W.Q.E.R.E.).).).!.- wXwXwXwXwXwXwXwXwXwXwX",
"wXwXwXwXwXP.{.J.J.H.H.V.N.N.v.c.s.p.OX-X: wXwXwXwXwXwXwXwXwXwXwX",
"wXwXwXwXwXW.`.B.B.B.B.M.n.d.s.a.i.u.,X$X- wXwXwXwXwXwXwXwXwXwXwX",
"wXwXwXwXwXW.`.V.V.V.B.M.n.d.s.a.i.u.,X@XwXwXwXwXwXwXwXwXwXwXwXwX",
"wXwXwXwXwXW.`.B.B.B.B.M.n.d.s.a.i.u.=X@XwXwXwXwXwXwXwXwXwXwXwXwX",
"wXwXwXwXwXW.(.B.B.B.M.m.n.s.s.i.i.u.=X~.wXwXwXwXwXwXwXwXwXwXwXwX",
"wXwXwXwXwXR.(.m.M.M.m.m.d.s.s.i.i.u.=XW.wXwXwXwXwXwXwXwXwXwXwXwX",
"wXwXwXwXwXR.Y.n.n.n.d.d.s.s.a.i.u.y.1XP.wXwXwXwXwXwXwXwXwXwXwXwX",
"wXwXwXwXwXR.^.d.d.d.d.d.s.a.i.i.u.t.;XL.wXwXwXwXwXwXwXwX3 wXwXwX",
"wXwXwXwXwXR.U.s.s.s.s.a.a.i.i.u.y.C 2Xr.wXwXwXwXwXwXwXy >.]   wX",
"wXwXwXwXwX).D.a.a.a.a.a.i.i.u.t.C C ;XT ; x x : wX= @.8.3.#.3 wX",
"wXwXwXwXwXY *X1X,X,X*XoX}.z.n O.h V 3XP '.T.T.I.r :.8.2.2.Q o wX",
"wXwXwXwXwX& q ; - > k N I 0 &.e.w.o.J D M c o ` 8.4.2.{ 3   wXwX",
"wXwXwXF !.].].@X$X!.P d %     9 q.w.6.t G 9 -.8.4.*.w   wXwXwXwX",
"wXwXwXH 6X8X8X8X:X$X+XR.Y.k.B S - _ 7.0.=.8.8.>.W o * wXwXwXwXwX",
"wXwXwXP 2X0XqX0X6X5X2X6X5X$XY.b.@Xr.7 9.8.4.>.4 a k wXwXwXwXwXwX",
"wXwXwXx G P.5X9X4X<X.X_.^.[.%X0X;XF 5.8.>.;.2.*.e wXwXwXwXwXwXwX",
"wXu K.].#X!.P v H I.[.(.^.b.j.~.X.9.8.' # $ { 1. .[ 1 wXwXwXwXwX",
"wXP.$X-X$X+X!.Y.b.L l l N g.b ,.9.=.5 . wXg x E | | } R O wXwXwX",
"wXwXwXj W.$X&XY.U.x.h.f.m ..9.5.e . wXwXwXD C.  7 ) ( / ~ 2 wXwX",
"wXwXwXwXwX  g P.+X`.h.z %.0.` o . wXwXwXwX: XXk wXO ! ^ < , wXwX",
"wXwXwXwXwXwXwXwX. a P.B 8 4   wXwXwXwXwXwXwX>  XA.g . 2 + ; i wX",
"wXwXwXwXwXwXwXwXwXwXwX0 g   wXwXwXwXwXwXwXwXwXwXf l.A.A |./.Z.wX",
"wXwXwXwXwXwXwXwXwXwXwXwXwXwXwXwXwXwXwXwXwXwXwXwXwXwXwXwXwXwXwXwX"
};
