/* XPM */
static char *out_9[] = {
/* columns rows colors chars-per-pixel */
"16 16 141 2 ",
"   c #9F1005",
".  c #9F1105",
"X  c #A01201",
"o  c #A11703",
"O  c #A01105",
"+  c #A01205",
"@  c #A21705",
"#  c #A21905",
"$  c #A21907",
"%  c #A21B09",
"&  c #A51D0C",
"*  c #A51F0E",
"=  c #A52110",
"-  c #A72312",
";  c #A72413",
":  c #A72718",
">  c #A82B19",
",  c #B23E18",
"<  c #AA2E20",
"1  c #AC3120",
"2  c #AC3122",
"3  c #AC3421",
"4  c #AC3422",
"5  c #AC3423",
"6  c #AC3525",
"7  c #AF3526",
"8  c #AE3829",
"9  c #AF3829",
"0  c #B03F2F",
"q  c #B8522C",
"w  c #B8532E",
"e  c #B14030",
"r  c #B95831",
"t  c #BB5E37",
"y  c #BC5C36",
"u  c #BD6038",
"i  c #C06B43",
"p  c #C26D46",
"a  c #C46B49",
"s  c #C26E48",
"d  c #C3714A",
"f  c #C4724B",
"g  c #C6714C",
"h  c #C4744D",
"j  c #C4754E",
"k  c #C5764F",
"l  c #C57750",
"z  c #C77753",
"x  c #C87754",
"c  c #C67953",
"v  c #C77954",
"b  c #C77955",
"n  c #C67B54",
"m  c #C77C57",
"M  c #C77E57",
"N  c #C87C54",
"B  c #C87C57",
"V  c #C87E58",
"C  c #C98159",
"Z  c #CA8158",
"A  c #C8815A",
"S  c #CC855A",
"D  c #CA815D",
"F  c #C8825C",
"G  c #CC815E",
"H  c #CA875C",
"J  c #CA8A5E",
"K  c #CA8A5F",
"L  c #CC8A5F",
"P  c #C98560",
"I  c #C98661",
"U  c #CA8862",
"Y  c #CA8963",
"T  c #CD8863",
"R  c #CE8F63",
"E  c #CF8B6A",
"W  c #CF9469",
"Q  c #CF926E",
"!  c #D09468",
"~  c #D1956B",
"^  c #D0976D",
"/  c #D39173",
"(  c #D59376",
")  c #D19B72",
"_  c #D39E72",
"`  c #D39977",
"'  c #D29D76",
"]  c #D79F79",
"[  c #D49E7F",
"{  c #D59E7F",
"}  c #D8997B",
"|  c #D89B7E",
" . c #D5A576",
".. c #D5A677",
"X. c #D4A17D",
"o. c #D7A07F",
"O. c #D5A283",
"+. c #D7A582",
"@. c #D7A585",
"#. c #D7A685",
"$. c #D9A185",
"%. c #DBA285",
"&. c #DCA288",
"*. c #D9A88B",
"=. c #DAA98D",
"-. c #DCAC90",
";. c #DBB092",
":. c #DCB492",
">. c #DDB593",
",. c #E2AB93",
"<. c #E1B195",
"1. c #E3B097",
"2. c #E2B39A",
"3. c #E1B59A",
"4. c #E3B59B",
"5. c #E5B59E",
"6. c #E9C0A9",
"7. c #E5C8AE",
"8. c #ECC5B1",
"9. c #EDC7B2",
"0. c #EEC6B3",
"q. c #F0CDBA",
"w. c #F1CFBC",
"e. c #F2CFBD",
"r. c #F3D0BF",
"t. c #F7D4C5",
"y. c #F8D7C8",
"u. c #F9DED0",
"i. c #FADFD1",
"p. c #FCE4D5",
"a. c #FDE7DA",
"s. c #FFEFE5",
"d. c #FFF0E6",
"f. c #FFF0E7",
"g. c #FFF1E7",
"h. c #FFF2E8",
"j. c #FFF5EC",
"k. c #FFFAF3",
"l. c #FFFFF9",
"z. c gray100",
"x. c None",
/* pixels */
"x.x.O e 9 9 7 7 4 2 1 > 4   x.x.",
"x.9 >.g v N m Z A S K K R ..: x.",
"O :., w r t u / ( i p d j c _ O ",
"0 B w t a t.z.z.z.z.t.V m V ! > ",
"9 z r a z.z.y.&.<.s.z.k.T A W ; ",
"9 N t t.z.,.p w.8.z 5.z.q.P ! ; ",
"7 V x z.y.p d d.d.c m h.z.U ^ = ",
"5 Z / z.} d g d.h.V Z 8.z.O.) = ",
"4 Z ( z.| j l s.d.Z I 9.z.-.' & ",
"2 S G z.r.l c s.h.I U j.z.` ] % ",
"2 F s d.z.$.m p.w.U 6.z.u.[ X.$ ",
"2 K d E z.z.u.2.4.p.z.l.$.O.@.@ ",
"4 K k n T p.z.z.z.z.a.$.[ =.@.$ ",
"  ..v m F P Q <.3.` { O.*.7.m   ",
"x.:  .R W ~ ^ _ ' ] X.+.;.c . x.",
"x.x.O > ; = * * & $ $ $ $   x.x."
};
