/* XPM */
static const char *menu_settings_xpm[] = {
/* columns rows colors chars-per-pixel */
"30 32 156 2 ",
"   c #1F1A17",
".  c #201B17",
"X  c #231D1A",
"o  c #26211E",
"O  c #2E251E",
"+  c #32241E",
"@  c #37291E",
"#  c #3D2C1F",
"$  c #2A2523",
"%  c #2C2825",
"&  c #2F2C2B",
"*  c #3C2B21",
"=  c #312D2A",
"-  c #35302E",
";  c #343131",
":  c #393532",
">  c #3D3936",
",  c #363639",
"<  c #3C3A3B",
"1  c #463223",
"2  c #4E3625",
"3  c #563B28",
"4  c #403C39",
"5  c #5D432F",
"6  c #5C4333",
"7  c #61412C",
"8  c #78502F",
"9  c #6B4534",
"0  c #754D34",
"q  c #72503B",
"w  c #79523D",
"e  c #3D3D41",
"r  c #424245",
"t  c #4A4644",
"y  c #464649",
"u  c #484749",
"i  c #4D4A4A",
"p  c #504C4A",
"a  c #55514F",
"s  c #4D4D51",
"d  c #4C525F",
"f  c #565352",
"g  c #585553",
"h  c #5C5957",
"j  c #5C5A5A",
"k  c #605D5B",
"l  c #63605E",
"z  c #666360",
"x  c #6C6967",
"c  c #6C6B6C",
"v  c #716E6D",
"b  c #73706E",
"n  c #666C77",
"m  c #757371",
"M  c #797775",
"N  c #7C7A78",
"B  c #814F3D",
"V  c #82523B",
"C  c #8B5745",
"Z  c #8D5847",
"A  c #945947",
"S  c #995F4A",
"D  c #9E644D",
"F  c #986951",
"G  c #A36449",
"H  c #AC6B4A",
"J  c #B16F4B",
"K  c #AD7042",
"L  c #BF7B44",
"P  c #B4724B",
"I  c #BA764C",
"U  c #BE794C",
"Y  c #A36A50",
"T  c #A77052",
"R  c #A97052",
"E  c #B47B57",
"W  c #BB7850",
"Q  c #B47C58",
"!  c #9D7E64",
"~  c #817F7E",
"^  c #A97E60",
"/  c #C17D46",
"(  c #C37C4B",
")  c #BB825B",
"_  c #82807F",
"`  c #B68662",
"'  c #B68864",
"]  c #B4926D",
"[  c #CB824C",
"{  c #C8997F",
"}  c #C3A47E",
"|  c #E2A573",
" . c #E0A87C",
".. c #737E91",
"X. c #898786",
"o. c #8D8D8D",
"O. c #91908E",
"+. c #828B9C",
"@. c #8D919C",
"#. c #979695",
"$. c #989797",
"%. c #9A9897",
"&. c #9D9C9C",
"*. c #A09E9D",
"=. c #A2A19F",
"-. c #8D94A2",
";. c #9098A6",
":. c #979CA8",
">. c #A5A3A3",
",. c #A8A7A6",
"<. c #A9A8A7",
"1. c #A1A3AD",
"2. c #A7A8AE",
"3. c #AAA9A8",
"4. c #A1A7B2",
"5. c #ADB0B7",
"6. c #AFB3BB",
"7. c #B5B4B3",
"8. c #B8B7B6",
"9. c #B8B8B7",
"0. c #B2B6BE",
"q. c #BCBCBB",
"w. c #CD9E81",
"e. c #D3A383",
"r. c #DCAB87",
"t. c #DAB58B",
"y. c #DFB392",
"u. c #DDBB9C",
"i. c #E0AE88",
"p. c #E8B988",
"a. c #E0BA9F",
"s. c #E8CA9B",
"d. c #C0C0BF",
"f. c #ECCFA0",
"g. c #E2C1AB",
"h. c #E5C9B8",
"j. c #FDF1BD",
"k. c #AFB6C0",
"l. c #B1B7C0",
"z. c #BDBFC5",
"x. c #C3C3C2",
"c. c #C9C8C7",
"v. c #C3C5CB",
"b. c #CCCBCB",
"n. c #D3D2D2",
"m. c #DDDDDD",
"M. c #E7D0C2",
"N. c #E5E4E4",
"B. c #E8E7E7",
"V. c #E8E8E7",
"C. c #ECECEC",
"Z. c #F7F1ED",
"A. c #FCF5F0",
"S. c #FDF8F4",
"D. c #FCFBFA",
"F. c None",
/* pixels */
"F.F.F.F.F.F.F.F.F.F.F.F.F.F.F.F.F.F.F.F.F.F.F.F.F.F.F.F.F.F.",
"F.F.F.F.F.F.F.F.F.F.F.F.F.F.& m u . F.F.F.F.F.F.F.F.F.F.F.F.",
"F.F.F.F.F.F.F.F.F.F.F.F.F.. d.S.n.h   F.F.F.F.F.F.F.F.F.F.F.",
"F.F.. ;   F.F.F.F.F.F.F.. x D.m.n.g     F.F.F.F.F.F.F.F.F.F.",
"F.  n +.s   F.F.F.F.F.F.- V.N.b.&..   F.F.F.F.F.F.F.F.F.F.F.",
"F.  s -.-.j   F.F.F.F.F.h N.b.c.>     F.F.F.F.X   F.F.F.F.F.",
"F.F.X -.:.:.u   F.F.F.F.z c.c.%..   F.F.F.F.  : t &   F.F.F.",
"F.F.  f 1.4.c   F.F.F.F.v x.x.d.-   F.F.F.F.X b.C.7.%   F.F.",
"F.F.F.  % c v.s . F.F.F.a x.x.d.X.  F.F.F.. N D.c.q.i   F.F.",
"F.F.F.F.F.  o.z.s   F.F.  $.q.z.q.4       ; V.n.9.,.X   F.F.",
"F.F.F.F.F.F.  &.6.y   F.F.> q.q.q.3.%.<.7.8.m.8.8.l     F.F.",
"F.F.F.F.F.F.F.X 2.4.r   F.  M 9.8.8.8.8.8.8.8.7.>.o   F.F.F.",
"F.F.F.F.F.F.F.F.o 5.;.e   F.a N.8.7.8.7.7.7.7.=.=     F.F.F.",
"F.F.F.F.F.F.F.F.F.% l.+.< . 9.m.7.%.m b b v v =     F.F.F.F.",
"F.F.F.F.F.F.F.F.F.  & l..., i X.g &               F.F.F.F.F.",
"F.F.F.F.F.F.F.F.F.F.  , k.d . 1 1 *     F.F.F.F.F.F.F.F.F.F.",
"F.F.F.F.F.F.F.F.F.F.F.  ; # K ( ( I V . F.F.F.F.F.F.F.F.F.F.",
"F.F.F.F.F.F.F.F.F.F.F.%   ' [ [ ( U I V . F.F.F.F.F.F.F.F.F.",
"F.F.F.F.F.F.F.F.F.F.. 4 5 A.i.[ ( U I P V . F.F.F.F.F.F.F.F.",
"F.F.F.F.F.F.F.F.F.F.> f 8 | S.r.( U I P J V X F.F.F.F.F.F.F.",
"F.F.F.F.F.F.F.F.F.. >.x + L  .S.r.( I I J H V X . F.F.F.F.F.",
"F.F.F.F.F.F.F.F.  i N.%.& @ / r.D.e.I I P H H V X . F.F.F.F.",
"F.F.F.F.F.F.F.F.X 9.b.=.X.X # / y.D.e.I P J G G V X . F.F.F.",
"F.F.F.F.F.F.F.X j B.=.%.j     1 ( a.D.e.P H H G G B X . F.F.",
"F.F.F.F.F.F.F.  <.7.%.O.o       2 ( g.D.w.H H Q t.s.w.$   F.",
"F.F.F.F.F.F.F.  ~ $.$.f     F.F.  3 ( h.D.w.` j.! Z C 9   F.",
"F.F.F.F.F.F.F.F.o a j X     F.F.F.  7 U M.Z.f.F D D S A + F.",
"F.F.F.F.F.F.F.F.F.      F.F.F.F.F.F.  9 W u.^ T R R Y S + F.",
"F.F.F.F.F.F.F.F.F.F.F.F.F.F.F.F.F.F.F.  0 p.T Q Q Q R 9 . F.",
"F.F.F.F.F.F.F.F.F.F.F.F.F.F.F.F.F.F.F.F.  ] T Q ) Q w . F.F.",
"F.F.F.F.F.F.F.F.F.F.F.F.F.F.F.F.F.F.F.F.F.. 6 q 6 +   F.F.F.",
"F.F.F.F.F.F.F.F.F.F.F.F.F.F.F.F.F.F.F.F.F.F.F.F.F.F.F.F.F.F."
};
