/* XPM */
static const char *menu_settings16_xpm[] = {
/* columns rows colors chars-per-pixel */
"15 16 103 2 ",
"   c #1F1A17",
".  c #221B18",
"X  c #211C19",
"o  c #231C18",
"O  c #241F1C",
"+  c #25201D",
"@  c #2E221D",
"#  c #272322",
"$  c #272424",
"%  c #282320",
"&  c #2B2624",
"*  c #2E2C2B",
"=  c #322D2B",
"-  c #332F2C",
";  c #343131",
":  c #3D3938",
">  c #3F3B38",
",  c #403025",
"<  c #4F3A2D",
"1  c #553C29",
"2  c #593D28",
"3  c #433830",
"4  c #403C39",
"5  c #503F33",
"6  c #62422C",
"7  c #6B4730",
"8  c #6D4A38",
"9  c #724836",
"0  c #744A37",
"q  c #754C36",
"w  c #774D36",
"e  c #424041",
"r  c #474340",
"t  c #474341",
"y  c #4E4641",
"u  c #4A4644",
"i  c #494646",
"p  c #4D4B4E",
"a  c #4E4C4C",
"s  c #575452",
"d  c #525254",
"f  c #56575D",
"g  c #7A5946",
"h  c #6A6765",
"j  c #696F7A",
"k  c #797674",
"l  c #7A7775",
"z  c #7E7C7A",
"x  c #9A604B",
"c  c #8C6C50",
"v  c #A7684A",
"b  c #AF6E4A",
"n  c #B1704A",
"m  c #B6744C",
"M  c #BA764C",
"N  c #BF7A4C",
"B  c #A46A50",
"V  c #AE7655",
"C  c #B67D58",
"Z  c #C37D4A",
"A  c #C27C4C",
"S  c #B68A69",
"D  c #AD8B70",
"F  c #BB9574",
"G  c #C49771",
"H  c #717682",
"J  c #868482",
"K  c #868483",
"L  c #898786",
"P  c #808590",
"I  c #8F9299",
"U  c #939190",
"Y  c #959492",
"T  c #969493",
"R  c #979594",
"E  c #989795",
"W  c #97989B",
"Q  c #9E9D9C",
"!  c #9CA0AA",
"~  c #A4A2A2",
"^  c #A9A8A8",
"/  c #AAA9A8",
"(  c #ADACAB",
")  c #AEADAC",
"_  c #B5B4B3",
"`  c #B5B4B4",
"'  c #B7B6B5",
"]  c #B9B9B8",
"[  c #BABAB9",
"{  c #D0A891",
"}  c #D6AC93",
"|  c #DFB390",
" . c #DCB194",
".. c #E1B494",
"X. c #E0BA9D",
"o. c #DEBDA7",
"O. c #C0C0BF",
"+. c #E1C0AA",
"@. c #C1C0C0",
"#. c #CCCCCB",
"$. c #D2D1D1",
"%. c gray89",
"&. c None",
/* pixels */
"&.&.&.&.&.&.&.t - &.&.&.&.&.&.",
"&.# &.&.&.&.4 %.T   &.&.&.&.&.",
"  H f &.&.&.R $.t &.&.&.&.&.&.",
"&.p ! e &.&.E ] + &.&.s J O &.",
"&.&.: W ; &.k O.h   % #.] & &.",
"&.&.&.i I * &./ ' ( ' @.l X &.",
"&.&.&.&.a P $ _ ( Y U z O &.&.",
"&.&.&.&.&.d j y 3       &.&.&.",
"&.&.&.&.&.+ 5 Z N w &.&.&.&.&.",
"&.&.&.&.&.: D ..A m w &.&.&.&.",
"&.&.&.&.- ~ 1 |  .M b 0 X &.&.",
"&.&.&.&.L ^ i 2 X.} n v 9 o &.",
"&.&.&.&.Q J o   6 +.{ G F g &.",
"&.&.&.&.- -   &.&.7 o.S B x @ ",
"&.&.&.&.&.&.&.&.&.&.c V C 8 &.",
"&.&.&.&.&.&.&.&.&.&.&.< , &.&."
};
