/* XPM */
static char *out_12[] = {
/* columns rows colors chars-per-pixel */
"32 32 190 2 ",
"   c #1F1A17",
".  c #161B1D",
"X  c #1A1C1E",
"o  c #221C17",
"O  c #231D19",
"+  c #27201C",
"@  c #2A221B",
"#  c #372C1E",
"$  c #181D20",
"%  c #1D2124",
"&  c #1B2328",
"*  c #212425",
"=  c #292522",
"-  c #2D2825",
";  c #2D2C2B",
":  c #352D26",
">  c #332D2A",
",  c #3C3126",
"<  c #35312E",
"1  c #2A2E30",
"2  c #2F3132",
"3  c #243138",
"4  c #353534",
"5  c #3A3633",
"6  c #3D3936",
"7  c #373839",
"8  c #3C3C3C",
"9  c #483823",
"0  c #413D3B",
"q  c #5D4729",
"w  c #4F4234",
"e  c #45423F",
"r  c #574837",
"t  c #5E4D39",
"y  c #775830",
"u  c #2B3A43",
"i  c #344149",
"p  c #464442",
"a  c #494543",
"s  c #4D4947",
"d  c #43484C",
"f  c #4E4D4C",
"g  c #524E4C",
"h  c #55514F",
"j  c #4F5151",
"k  c #40535E",
"l  c #545555",
"z  c #5A5654",
"x  c #5C5957",
"c  c #5C5A59",
"v  c #635240",
"b  c #615D5B",
"n  c #756048",
"m  c #7E664A",
"M  c #64615F",
"N  c #5E6060",
"B  c #58666F",
"V  c #5C686E",
"C  c #646362",
"Z  c #696664",
"A  c #6B6865",
"S  c #636769",
"D  c #62696D",
"F  c #6E6C6A",
"G  c #726F6D",
"H  c #74716F",
"J  c #767473",
"K  c #787573",
"L  c #7C7977",
"P  c #7C7D7D",
"I  c #936937",
"U  c #826240",
"Y  c #8C7254",
"T  c #967856",
"R  c #9C7F5B",
"E  c #B17C42",
"W  c #AB7F50",
"Q  c #817E7C",
"!  c #B8803F",
"~  c #A3825C",
"^  c #A9865C",
"/  c #AE885C",
"(  c #B48A5B",
")  c #BB8D5A",
"_  c #83807F",
"`  c #CD8C47",
"'  c #C08F59",
"]  c #C2935E",
"[  c #DD9B55",
"{  c #C79B6A",
"}  c #C89C6C",
"|  c #D4A97B",
" . c #E8AA6A",
".. c #486C81",
"X. c #557A8F",
"o. c #557D94",
"O. c #587D93",
"+. c #667E8C",
"@. c #687F8D",
"#. c #79848C",
"$. c #618499",
"%. c #7C8A94",
"&. c #6294B1",
"*. c #72ADCF",
"=. c #78B4D7",
"-. c #7FBBDE",
";. c #7CBDE2",
":. c #868382",
">. c #888684",
",. c #8A8886",
"<. c #80878B",
"1. c #8D8C8B",
"2. c #918F8D",
"3. c #949493",
"4. c #989795",
"5. c #9A9897",
"6. c #9D9B9A",
"7. c #A09E9C",
"8. c #A3A19F",
"9. c #8C99A3",
"0. c #8C9FAA",
"q. c #9BA3A8",
"w. c #84A6BB",
"e. c #97AAB5",
"r. c #97ABB8",
"t. c #A3A3A2",
"y. c #A9A9A7",
"u. c #ADACAB",
"i. c #B1AFAE",
"p. c #B4B2B2",
"a. c #B8B7B6",
"s. c #BAB9B7",
"d. c #BEBEBC",
"f. c #D0AA80",
"g. c #CDAE90",
"h. c #E7B581",
"j. c #EEBA83",
"k. c #E2BE98",
"l. c #DFC09E",
"z. c #F0C99F",
"x. c #D6C0AA",
"c. c #C1C0BF",
"v. c #F2CBA2",
"b. c #EDD4BA",
"n. c #F4D9BC",
"m. c #85B2CC",
"M. c #A1BCCD",
"N. c #93C0DA",
"B. c #95CEEF",
"V. c #84CAF2",
"C. c #8DCEF3",
"Z. c #90CFF3",
"A. c #94D1F4",
"S. c #9CD4F5",
"D. c #A9D2EA",
"F. c #B7D7EC",
"G. c #A4D7F5",
"H. c #ACDBF7",
"J. c #B5DFF8",
"K. c #B6E0F9",
"L. c #BCE2F9",
"P. c #C6C5C4",
"I. c #C8C8C7",
"U. c #C6CBCE",
"Y. c #CDCCCC",
"T. c #D0CFCF",
"R. c #D4D4D3",
"E. c #D8D8D7",
"W. c #DCDBDB",
"Q. c #ECD7C0",
"!. c #E0DFDF",
"~. c #F6E5D3",
"^. c #F6E9DB",
"/. c #DEE2E4",
"(. c #C3E4F9",
"). c #C8E7FA",
"_. c #CDE8FA",
"`. c #D6E7F3",
"'. c #D2EBFA",
"]. c #D8EEFC",
"[. c #DEF0FC",
"{. c #E4E3E3",
"}. c #E8E8E7",
"|. c #ECEBEB",
" X c #E1F2FC",
".X c #EBF6FD",
"XX c #F5F5F4",
"oX c #F4FAFE",
"OX c #FBFBFC",
"+X c None",
/* pixels */
"+X+X+X+X+X+X+X+X+X+X+X+X+X+X+X+X+X+X+X+X+X+X+X+X+X+X+X+X+X+X+X+X",
"+X+X+X+X+X+X+X+X+X            = b :.4.>.A 8           o       +X",
"+X+X+X+X+X+X+X+X+X  a Z c - Q y.C 4 % 4 l 1.6.6 e C M C M M - +X",
"+X+X+X+X+X+X+X+X+X  >.i.6 i.l 1 <.U./.U.q.d 2 t.M F I.P.P.P.p +X",
"+X+X+X+X+X+X+X+X+X  :.6 i.7 V `..XoXOXOX.X Xe.* 3.z 2.P.P.P.p +X",
"+X+X+X+X+X+X+X+X+X  g J c B _.[..XoXoXoX.X[._.M.$ i.6 P.I.P.p +X",
"+X+X+X+X+X+X+X+X+X  < i.& F._.]. X.X.X.X X]._.(.@.f L ,.I.I.e +X",
"+X+X+X+X+X+X+X+X+X  c c +.L.(._.].[.[.[.]._.(.L.D.X u.h Y.I.p +X",
"+X+X+X+X+X+X+X+X+X  Q 8 w.J.(.(._._._._._.(.L.K.H.i t.6 Y.Y.p +X",
"+X+X+X+X+X+X+X+X+X  6.% N.H.J.L.(.(.).(.(.L.K.H.G.k 2.5 Y.Y.a +X",
"+X+X+X+X+X+X+X+X+Xo 2.1 m.G.H.J.K.L.L.).).).L.G.S.u t.0 T.Y.p +X",
"+X+X+X+X+X+X+X+X+Xo H j $.S.G.G.H.L._.]. X[.K.S.B.$ u.x T.T.a +X",
"+X+X+X+X+X+X+X+X+X  5 4.u A.S.S.G.H._.oXoX XG.A.O.d >.Q R.T.a +X",
"+X+X+X+X+X+X+X+X+X  s 5.7 X.C.A.S.S.H. XoXK.A.;.& y.> P.R.T.a +X",
"+X+X+X+X+X+X+X+X+X  ,.6 i.* o.C.Z.Z.Z.H.K.A.=.3 J G Q E.R.T.a +X",
"+X+X+X+X+X+X+X+X+X  4.b 4 i.4 u &.;.V.V.*.B % P _ z E.W.R.R.a +X",
"+X+X+X+X+X+X+X+X+Xo Z D %.5 2.3.8 X & . * C u.M b E.W.E.R.R.a +X",
"+X+X+X+X+X+X+X+X+XO = 0.r.9.< 0 Q 7.u.y.6.M 0 t.{.!.W.W.E.R.a +X",
"+X+X+X+X+X+X+X+Xo E g.: #.S t.{.u.,.A H ,.d.}.}.{.!.W.W.E.R.a +X",
"+X+X+X+X+X+X+X  I n.| W , s OXOXOXXXXXXX|.|.}.{.{.W.!.W.E.R.a +X",
"+X+X+X+X+X+Xo y v.k.' ( t K OXOXOXXXXXXX|.|.}.}.{.{.W.W.E.R.a +X",
"+X+X+X+X+Xo q j.b.' ( m 0 XXOXOXOXXXXX|.|.|.}.}.{.R.c x x x - +X",
"+X+X+X+X+X9  .~.] ) T : E.OXOXOXOXXXXXXX|.|.|.}.{.Y.  > < < O +X",
"+X+X+X+X# [ ^.{ ) ~ , u.XXOXXXXXXXXXXX|.|.|.}.}.{.Y.  c.R.:.o +X",
"+X+X+X@ ` ~.f.' ^ r g XXXXXXXXXXXXXXXX|.|.}.}.{.!.Y.  d.K     +X",
"+X+Xo ! n.l.' / n   H a.a.a.s.s.a.a.p.p.p.i.i.i.u.6.  h     +X+X",
"+X  I z.Q.' ( Y +                               o       +X+X+X+X",
"+X@ h.^.] ( R : +X+X+X+X+X+X+X+X+X+X+X+X+X+X+X+X+X+X+X+X+X+X+X+X",
"+Xo x.} ) ~ w   +X+X+X+X+X+X+X+X+X+X+X+X+X+X+X+X+X+X+X+X+X+X+X+X",
"+X+X@ U ~ v   +X+X+X+X+X+X+X+X+X+X+X+X+X+X+X+X+X+X+X+X+X+X+X+X+X",
"+X+X+X  @   +X+X+X+X+X+X+X+X+X+X+X+X+X+X+X+X+X+X+X+X+X+X+X+X+X+X",
"+X+X+X+X+X+X+X+X+X+X+X+X+X+X+X+X+X+X+X+X+X+X+X+X+X+X+X+X+X+X+X+X"
};
