/* XPM */
static const char *menu_status16_xpm[] = {
/* columns rows colors chars-per-pixel */
"16 16 149 2 ",
"   c #2C3420",
".  c #383126",
"X  c #313D23",
"o  c #323E23",
"O  c #323A25",
"+  c #3F3823",
"@  c #3C3835",
"#  c #3E3A38",
"$  c #54211C",
"%  c #5C271E",
"&  c #503323",
"*  c #403D3A",
"=  c #423F3D",
"-  c #7F2720",
";  c #6B3F26",
":  c #2F4836",
">  c #304A37",
",  c #32513B",
"<  c #33553E",
"1  c #49402C",
"2  c #4E402C",
"3  c #544421",
"4  c #50442F",
"5  c #534432",
"6  c #564C36",
"7  c #5C4A34",
"8  c #5D5435",
"9  c #6F442D",
"0  c #70432B",
"q  c #73442B",
"w  c #73452B",
"e  c #614734",
"r  c #644A38",
"t  c #71453F",
"y  c #655738",
"u  c #64543A",
"i  c #6C5C3A",
"p  c #78503E",
"a  c #7D5B3A",
"s  c #567F33",
"d  c #7C6C36",
"f  c #386348",
"g  c #464240",
"h  c #464341",
"j  c #474341",
"k  c #4A4644",
"l  c #54514F",
"z  c #585553",
"x  c #5E5B5A",
"c  c #7B5440",
"v  c #765840",
"b  c #7C5B42",
"n  c #645A53",
"m  c #467244",
"M  c #487445",
"N  c #6D6859",
"B  c #6E6A5E",
"V  c #766756",
"C  c #8D3E36",
"Z  c #867C1E",
"A  c #814B2B",
"S  c #9C4A36",
"D  c #855534",
"F  c #89553E",
"G  c #846E26",
"H  c #856D3D",
"J  c #947032",
"K  c #B06F2E",
"L  c #BE723B",
"P  c #836846",
"I  c #8C684A",
"U  c #9B674D",
"Y  c #816650",
"T  c #846C56",
"R  c #99625C",
"E  c #957E52",
"W  c #A77A55",
"Q  c #827666",
"!  c #8E7F6F",
"~  c #817F7D",
"^  c #5E8727",
"/  c #5A822C",
"(  c #588232",
")  c #6B9D2C",
"_  c #649838",
"`  c #679E3A",
"'  c #6FA42D",
"]  c #7CBA32",
"[  c #50884F",
"{  c #528D52",
"}  c #5BA05C",
"|  c #72B340",
" . c #888116",
".. c #B58B06",
"X. c #B5840F",
"o. c #AB8513",
"O. c #CC9D0C",
"+. c #E1AA01",
"@. c #E2AA01",
"#. c #E7A80C",
"$. c #C88037",
"%. c #D49034",
"&. c #E28C36",
"*. c #99904F",
"=. c #9B8855",
"-. c #A48044",
";. c #AA8942",
":. c #A68556",
">. c #B38C5C",
",. c #948665",
"<. c #968C62",
"1. c #9C9262",
"2. c #9B9167",
"3. c #9F9766",
"4. c #82807F",
"5. c #A69972",
"6. c #A69D76",
"7. c #A0917A",
"8. c #BCA97B",
"9. c #D0C464",
"0. c #D9C873",
"q. c #E0CC6D",
"w. c #E7D66E",
"e. c #EBDC70",
"r. c #F0E47E",
"t. c #848281",
"y. c #98928C",
"u. c #9E9690",
"i. c #9C9894",
"p. c #9C9B99",
"a. c #AB9B80",
"s. c #B7A980",
"d. c #B3A58A",
"f. c #AEACAC",
"g. c #C2B680",
"h. c #D1B684",
"j. c #C0BFBE",
"k. c #E6D88E",
"l. c #E2CA9B",
"z. c #F0D090",
"x. c #F2D59C",
"c. c #EEE288",
"v. c #F0E59E",
"b. c #E5D3B0",
"n. c #F4EAAC",
"m. c #F4EEB2",
"M. c #F6EEB2",
"N. c #F8F1B5",
"B. c None",
/* pixels */
"B.B.B.B.B.p.k B.B.B.B.B.B.B.B.B.",
"B.B.B.=.E P a D & B.B.X ] | } f ",
"B.B.B.@.b.%.$.L w B.B.  ^ ( M > ",
"B.B.B.O.d.%.$.L w B.B.  / s m : ",
"B.B.B.@.l.%.$.L w B.B.X ' ` { < ",
"B.B.B.@.x.%.$.L 0 B.B.O ) _ [ , ",
"B.B.= @.z.%.$.L 9 g * +  .Z d 2 ",
"z g B.o.h.J ;.-.H 3.2.3 ..X.K ; ",
"B.l g t.B m.N.M.n.<.e 5 G #.&.A ",
"B.B.@ x *.r.c.v.1.c U p 8 F S % ",
"B.B.B.# 9.e.w.k.7 W Y u.N t C $ ",
"B.B.B.B.5.0.q.g.v >.:.V 4.f.R - ",
"B.B.B.B.n 7.8.6.I Q a.5 1 B.B.B.",
"B.B.B.B.B.B.,.d.b T y.j.i.B.B.B.",
"B.B.B.B.B.B.B.,.u r . 6 4.z B.B.",
"B.B.B.B.B.B.B.B.B.u i B.B.B.B.B."
};
