/* XPM */
static char *out_11[] = {
/* columns rows colors chars-per-pixel */
"26 26 179 2 ",
"   c #131516",
".  c #131718",
"X  c #151819",
"o  c #181A1B",
"O  c #141D21",
"+  c #181E20",
"@  c #142228",
"#  c #1B2428",
"$  c #1E282C",
"%  c #172C35",
"&  c #1A2A32",
"*  c #20292E",
"=  c #212D30",
"-  c #21353D",
";  c #2A383F",
":  c #2D3B41",
">  c #0A4B64",
",  c #1D4E64",
"<  c #105D7B",
"1  c #275265",
"2  c #355765",
"3  c #365865",
"4  c #3F5D65",
"5  c #275E76",
"6  c #2A6179",
"7  c #376476",
"8  c #446A77",
"9  c #4A6E76",
"0  c #04729A",
"q  c #23769B",
"w  c #3B7E9B",
"e  c #517F91",
"r  c #616F85",
"t  c #637187",
"y  c #657388",
"u  c #6A778B",
"i  c #64798F",
"p  c #6E7B8F",
"a  c #717D90",
"s  c #0987B7",
"d  c #3C8BAE",
"f  c #258BB7",
"g  c #3697BD",
"h  c #4E869B",
"j  c #5B8596",
"k  c #50879C",
"l  c #5E8F9B",
"z  c #6C8093",
"x  c #6E899A",
"c  c #568BA1",
"v  c #4990AE",
"b  c #4998B9",
"n  c #599EB8",
"m  c #688FA7",
"M  c #6C92A6",
"N  c #669BAF",
"B  c #7692A0",
"V  c #7097A9",
"C  c #779DB4",
"Z  c #6BA2AE",
"A  c #6FA3B7",
"S  c #64A3B8",
"D  c #6EAAB8",
"F  c #72AEBC",
"G  c #79AFBF",
"H  c #1593C6",
"J  c #2395C7",
"K  c #219CC9",
"L  c #2A98C9",
"P  c #3798C2",
"I  c #359CC8",
"U  c #3B9DC8",
"Y  c #2FA0CE",
"T  c #2CA5D0",
"R  c #419FC9",
"E  c #49A0C7",
"W  c #44A1C9",
"Q  c #4DA4CA",
"!  c #4EA8CF",
"~  c #5DA7C4",
"^  c #51A6C9",
"/  c #57A8CA",
"(  c #5BAACA",
")  c #47A6D0",
"_  c #57ACD1",
"`  c #5FAFD2",
"'  c #5AB1D6",
"]  c #6DABC3",
"[  c #64AECA",
"{  c #6CADC9",
"}  c #6CB2C9",
"|  c #70B3C7",
" . c #7CB5C3",
".. c #73B6C9",
"X. c #7ABAC9",
"o. c #62B2D4",
"O. c #6BB5D5",
"+. c #66BCDC",
"@. c #69BFDE",
"#. c #71B5D2",
"$. c #75BCDB",
"%. c #7ABDDB",
"&. c #7FC0DE",
"*. c #7FC7E2",
"=. c #9099A6",
"-. c #949CA9",
";. c #89ABAF",
":. c #98A2AF",
">. c #82B0BA",
",. c #A0A6B2",
"<. c #A6ACB6",
"1. c #ABB1BA",
"2. c #A1B9BC",
"3. c #B0B3B9",
"4. c #8ABEC5",
"5. c #83B5CE",
"6. c #82BECA",
"7. c #96BFD4",
"8. c #AEBCC8",
"9. c #8BC3CA",
"0. c #99C4C1",
"q. c #95C9CA",
"w. c #9ACCCA",
"e. c #87C4DE",
"r. c #8EC7DF",
"t. c #93C4D2",
"y. c #BFC0C4",
"u. c #AAD6C7",
"i. c #AFD9C7",
"p. c #A2D0C9",
"a. c #B6DDC7",
"s. c #A0C9D3",
"d. c #ABCDD6",
"f. c #A0C9D9",
"g. c #B9CFD3",
"h. c #BED0D5",
"j. c #B3D3DF",
"k. c #BBD1DA",
"l. c #8ACCE4",
"z. c #90C7E0",
"x. c #95CDE5",
"c. c #9ACEE5",
"v. c #91D0E7",
"b. c #98D0E5",
"n. c #9AD4E9",
"m. c #A5CFE2",
"M. c #A2D1E6",
"N. c #AFD1E1",
"B. c #A6D7EA",
"V. c #A9D6E9",
"C. c #A4D8EB",
"Z. c #AAD8EB",
"A. c #BAD7E4",
"S. c #BBD8E6",
"D. c #B3DBEB",
"F. c #BEE0EF",
"G. c #C2C5CB",
"H. c #C6CCCF",
"J. c #C1D8CE",
"K. c #D4D3D3",
"L. c #D3D6D9",
"P. c #D5DADB",
"I. c #DBDBDB",
"U. c #E0DFDF",
"Y. c #C2DBE2",
"T. c #CCDDE1",
"R. c #DFDFE0",
"E. c #C3E5F2",
"W. c #C9E6F2",
"Q. c #D3EBF4",
"!. c #DDF1F8",
"~. c #E4E4E5",
"^. c #E6E7E8",
"/. c #E3E9ED",
"(. c #EBEBEB",
"). c #EAF1F4",
"_. c #EAF6FB",
"`. c #F3F3F3",
"'. c None",
/* pixels */
"'.'.'.'.'.'.'.'.'.'.'.'.'.'.'.'.'.'.'.'.'.'.'.'.'.'.",
"'.'.'.'.'.'.'.'.  .     . .         '.'.'.'.'.'.'.'.",
"'.'.'.'.'.'.. o : j f.Q._._.W.t.e : o   '.'.'.'.'.'.",
"'.'.'.'.'.. $ c B.!.!.!.!.!.Q.E.E.c.k *   '.'.'.'.'.",
"'.'.'.'.  - [ D.F.E.E.W.W.W.E.D.D.D.Z.{ -   '.'.'.'.",
"'.'.'.  % o.n.C.Z.D.D.S.S.A.N.m.M.M.M.c.[ %   '.'.'.",
"'.'.  O g v.l.v.c.S./.`.`.`.~.L.8.7.z.z.e.b O   '.'.",
"'.'.  < @.*.&.&._.`.`.`.`.(.(.~.U.:.5.%.%.#.6   '.'.",
"'.  @ K +.$.O.%./.~.~.(.(.(.(.~.~.,.C #.#.o.E @   '.",
"'.  > T ' ` _ ` [ ] #.A.(.(.~.U.I.=.m [ ( ( Q 1   '.",
"'.. 0 T ) ! W ! / ` { N.(.^.~.I.L.a N [ [ ( ^ w   '.",
"'.  s L I R E ^ / [ [ k.(.^.U.U.-.i | } [ [ ( b   '.",
"'.. H L U W Q / ( { t.(.(.~.L.<.p | X...| [ ~ / . '.",
"'.. J I U E / ( [ } Y.(.^.I.p x 4.9.6.X.X.} [ ( . '.",
"'.  f I R Q / [ } ..T.(.~.1.B w.q.q.9.6.X.| } n   '.",
"'.  q I R Q / [ } ..d.I.G.t 0.p.p.w.q.9.X...} h   '.",
"'.  , U W ^ ( [ } X.q.g.H.2.u.i.u.p.q.9.9.X.} 3   '.",
"'.  @ P W ^ ( [ } s.P.R.I.P.J.a.i.p.w.9.X.X.] #   '.",
"'.'.  5 W ^ ( [ } P.I.I.I.K.K.i.u.p.q.9.9.X.8   '.'.",
"'.'.  O d Q ( [ } h.I.K.K.K.y.;.p.w.q.4.X.N O   '.'.",
"'.'.'.  & b / ~ } ..<.K.K.3.y B q.q.9.9.F =   '.'.'.",
"'.'.'.'.  & v ( [ | m t u r t >.9.9.X.Z & . '.'.'.'.",
"'.'.'.'.'.  o 7 ~ [ | A M V  .6.6.X.9 +   '.'.'.'.'.",
"'.'.'.'.'.'.  . # 2 h S | ..D l 4 #     '.'.'.'.'.'.",
"'.'.'.'.'.'.'.'.        X X         '.'.'.'.'.'.'.'.",
"'.'.'.'.'.'.'.'.'.'.'.'.'.'.'.'.'.'.'.'.'.'.'.'.'.'."
};
