/* XPM */
static char *out_10[] = {
/* columns rows colors chars-per-pixel */
"16 16 171 2 ",
"   c #131516",
".  c #131617",
"X  c #162227",
"o  c #1A2327",
"O  c #1C2427",
"+  c #1D2527",
"@  c #132228",
"#  c #172228",
"$  c #1D323C",
"%  c #212C31",
"&  c #232E32",
"*  c #20343C",
"=  c #27373C",
"-  c #28383C",
";  c #1B3641",
":  c #203640",
">  c #2A3E47",
",  c #283F49",
"<  c #134051",
"1  c #1D4050",
"2  c #234351",
"3  c #2C4651",
"4  c #2F4851",
"5  c #354B51",
"6  c #47616C",
"7  c #4E656F",
"8  c #0F6383",
"9  c #15749A",
"0  c #226582",
"q  c #366C83",
"w  c #22769B",
"e  c #347795",
"r  c #447283",
"t  c #477282",
"y  c #527983",
"u  c #457E95",
"i  c #3884A1",
"p  c #45839C",
"a  c #46829C",
"s  c #4C859C",
"d  c #578897",
"f  c #588895",
"g  c #5F8C95",
"h  c #5C8B98",
"j  c #6A8699",
"k  c #6A879A",
"l  c #4994B3",
"z  c #7693A5",
"x  c #7E9EAA",
"c  c #6B9EB3",
"v  c #7DA0AB",
"b  c #69A0B8",
"n  c #72A0B3",
"m  c #76A5B7",
"M  c #71A8B4",
"N  c #71A0B8",
"B  c #7EAFBB",
"V  c #3F9EC7",
"C  c #319BC8",
"Z  c #3A9DC8",
"A  c #3E9EC9",
"S  c #3AA3CE",
"D  c #45A1C9",
"F  c #4CA3C9",
"G  c #4CA6CE",
"H  c #51A5C9",
"J  c #52A5C8",
"K  c #52A6C9",
"L  c #53A6C9",
"P  c #50A6CB",
"I  c #57A8C9",
"U  c #57A9CC",
"Y  c #5BAAC9",
"T  c #5EABC8",
"R  c #5EAACA",
"E  c #46ACD3",
"W  c #60ACC9",
"Q  c #61ACC9",
"!  c #62ADC9",
"~  c #65ADC8",
"^  c #71ADC7",
"/  c #67B1CF",
"(  c #6AB1C9",
")  c #6CB2C9",
"_  c #6FB4C9",
"`  c #74B4C6",
"'  c #70B5C9",
"]  c #73B5C8",
"[  c #70B3CD",
"{  c #78B7CB",
"}  c #78B9C9",
"|  c #7DBACB",
" . c #66B5D7",
".. c #6DB6D6",
"X. c #79B7D0",
"o. c #7CBDD9",
"O. c #7EC5E1",
"+. c #869DA7",
"@. c #829FA9",
"#. c #8AA4AF",
"$. c #9AA3AE",
"%. c #A1A6AF",
"&. c #A6AFB8",
"*. c #83BEC9",
"=. c #80BDCA",
"-. c #85BFC9",
";. c #84BFCA",
":. c #85BFCA",
">. c #86BAD2",
",. c #AEBDC3",
"<. c #B1BFC4",
"1. c #B1BEC5",
"2. c #B8BCC3",
"3. c #B8BDC4",
"4. c #B2BEC8",
"5. c #8AC2C9",
"6. c #8DC3C9",
"7. c #8FC6CA",
"8. c #9ECCC6",
"9. c #93C8CA",
"0. c #94C9CA",
"q. c #96CACA",
"w. c #9CCDC9",
"e. c #97C3D0",
"r. c #91C3D4",
"t. c #AECDC4",
"y. c #BBCFCB",
"u. c #A3D1C9",
"i. c #A7D4C8",
"p. c #B3DAC8",
"a. c #A3CCDF",
"s. c #AACADA",
"d. c #B0CFD7",
"f. c #B7D0D6",
"g. c #B5D1DE",
"h. c #88C6E1",
"j. c #9ACDE3",
"k. c #9CD3E8",
"l. c #ADD8EA",
"z. c #B5D2E0",
"x. c #B1DBEC",
"c. c #CBCBCD",
"v. c #D2D2D2",
"b. c #D0D3D6",
"n. c #D0D5D7",
"m. c #D7D9DA",
"M. c #D8D8D8",
"N. c gainsboro",
"B. c #C1D9E0",
"V. c #C8DDE7",
"C. c #C2DFEC",
"Z. c #C0E2EF",
"A. c #CCE1EB",
"S. c #D7E2E7",
"D. c #DFE1E2",
"F. c #C0E4F1",
"G. c #CFE9F4",
"H. c #D0EAF5",
"J. c #D3EBF5",
"K. c #D9E9F0",
"L. c #E1E1E2",
"P. c #E2E2E2",
"I. c #E6E6E6",
"U. c #E4E7E9",
"Y. c #E4EAEC",
"T. c gray91",
"R. c #E9E9E9",
"E. c gray93",
"W. c #EEF0F2",
"Q. c gray95",
"!. c None",
/* pixels */
"!.!.!.!.!.!.    .   !.!.!.!.!.!.",
"!.!.!.!.& 7 #.<.,.x 6 % !.!.!.!.",
"!.!.!., m Z.H.J.H.Z.x.n > !.!.!.",
"!.!.; [ k.l.Z.A.V.z.a.j.^ : !.!.",
"!.@ i O.h.K.W.Q.E.P.4.>.o.a # !.",
"!.< E  ...s.g.Y.R.P.2.N / U 2 !.",
"  8 S G P R X.S.I.N.$.b W I q   ",
"  9 C D K W r.U.P.3.z ` _ W p   ",
". w Z F I ) B.T.&.x 6.;.} ) s   ",
"  0 A K W _ d.b.+.w.w.7.| ' r   ",
"!.1 V L W | f.n.y.p.i.9.5.' 4 !.",
"!.# e K ~ e.m.M.v.t.u.9.;.f + !.",
"!.!.$ l T { <.c.%.@.q.5.M = !.!.",
"!.!.!.* u ~ c k k B -.g = !.!.!.",
"!.!.!.!.o 3 t d h y 5 + !.!.!.!.",
"!.!.!.!.!.!.  .     !.!.!.!.!.!."
};
