/* XPM */
static char *out_16[] = {
/* columns rows colors chars-per-pixel */
"32 32 256 2 ",
"   c #131516",
".  c #1F1A17",
"X  c #1A1A19",
"o  c #231E19",
"O  c #201A17",
"+  c #361C18",
"@  c #25211B",
"#  c #2B231B",
"$  c #29271B",
"%  c #35211C",
"&  c #31291C",
"*  c #39281C",
"=  c #2A301E",
"-  c #30381D",
";  c #272422",
":  c #2C2521",
">  c #2D2925",
",  c #2B2D27",
"<  c #342622",
"1  c #332D23",
"2  c #362B28",
"3  c #2C3522",
"4  c #2D3B28",
"5  c #3C3424",
"6  c #313D23",
"7  c #35312E",
"8  c #3D3B28",
"9  c #3A3633",
"0  c #3D3936",
"q  c #3B3638",
"w  c #492E1F",
"e  c #4A3912",
"r  c #563C1E",
"t  c #402E27",
"y  c #47392B",
"u  c #553820",
"i  c #423E3B",
"p  c #413735",
"a  c #5A3D32",
"s  c #623729",
"d  c #344325",
"f  c #3B4D23",
"g  c #3A4D29",
"h  c #33472E",
"j  c #304B38",
"k  c #385739",
"l  c #594117",
"z  c #6F540D",
"x  c #775A0D",
"c  c #6D4F17",
"v  c #755517",
"b  c #5A4B23",
"n  c #4A443F",
"m  c #524432",
"M  c #5A4835",
"N  c #5E5734",
"B  c #575233",
"V  c #734B24",
"C  c #644C39",
"Z  c #6C493A",
"A  c #635937",
"S  c #705C3E",
"D  c #74543E",
"F  c #6E5133",
"G  c #496528",
"H  c #48642A",
"J  c #4F712A",
"K  c #567B2B",
"L  c #527226",
"P  c #476A37",
"I  c #4C733A",
"U  c #676039",
"Y  c #71613D",
"T  c #345840",
"R  c #3B6244",
"E  c #3E7453",
"W  c #4D4946",
"Q  c #464340",
"!  c #514E4C",
"~  c #5A4E42",
"^  c #5D564F",
"/  c #595654",
"(  c #5C5957",
")  c #5B5855",
"_  c #61564C",
"`  c #7A514B",
"'  c #625E5B",
"]  c #645D50",
"[  c #406A44",
"{  c #497847",
"}  c #7D6C42",
"|  c #726644",
" . c #7C7442",
".. c #66625B",
"X. c #71675E",
"o. c #7E725F",
"O. c #666361",
"+. c #6B6968",
"@. c #726F6E",
"#. c #72706F",
"$. c #7B736C",
"%. c #777572",
"&. c #AD2D24",
"*. c #B22E25",
"=. c #84681D",
"-. c #985833",
";. c #AA5F34",
":. c #9D6231",
">. c #A0692E",
",. c #A7702D",
"<. c #BA6C35",
"1. c #B4653B",
"2. c #BC6E3C",
"3. c #BA7A2C",
"4. c #C2473A",
"5. c #C1753A",
"6. c #C67C38",
"7. c #D57F37",
"8. c #C16A38",
"9. c #895848",
"0. c #925F48",
"q. c #9A5E5B",
"w. c #9E6B4F",
"e. c #97644B",
"r. c #877748",
"t. c #94794D",
"y. c #877151",
"u. c #BF7343",
"i. c #A47553",
"p. c #A97C56",
"a. c #A47B54",
"s. c #E05042",
"d. c #E5665A",
"f. c #E87B74",
"g. c #5C872F",
"h. c #5F892B",
"j. c #55823A",
"k. c #699E34",
"l. c #6CA02F",
"z. c #7CBC34",
"x. c #76B538",
"c. c #568F4D",
"v. c #44845E",
"b. c #4C8755",
"n. c #609742",
"m. c #6EB14B",
"M. c #62A758",
"N. c #60A356",
"B. c #6BAC49",
"V. c #468961",
"C. c #569D62",
"Z. c #BF9417",
"A. c #BD8617",
"S. c #C08F05",
"D. c #C59505",
"F. c #C19516",
"G. c #DB9A17",
"H. c #D7A502",
"J. c #D9A502",
"K. c #EBAF00",
"L. c #F6BA00",
"P. c #F1B600",
"I. c #F2AA18",
"U. c #CB8436",
"Y. c #D28C34",
"T. c #D88C31",
"R. c #D79433",
"E. c #EB8C3B",
"W. c #EE9A34",
"Q. c #84C225",
"!. c #F8C300",
"~. c #948B4A",
"^. c #95864C",
"/. c #9D8D54",
"(. c #9B8550",
"). c #AC8158",
"_. c #B38C5C",
"`. c #A69A53",
"'. c #A99F56",
"]. c #B9955F",
"[. c #BA985F",
"{. c #AEA354",
"}. c #B4AB56",
"|. c #BFB35C",
" X c #9B8F6E",
".X c #82807F",
"XX c #988973",
"oX c #9F947B",
"OX c #9A956D",
"+X c #AF9E65",
"@X c #B59A61",
"#X c #A2957F",
"$X c #AB997C",
"%X c #BBAE68",
"&X c #B3A17E",
"*X c #C7824C",
"=X c #CF9157",
"-X c #D79F62",
";X c #DFAD6D",
":X c #C2B17A",
">X c #D2BE77",
",X c #C8B96A",
"<X c #E6BA7B",
"1X c #DECA6D",
"2X c #D9C978",
"3X c #E1CD6D",
"4X c #E5D36E",
"5X c #E9D76F",
"6X c #EADA6F",
"7X c #E6D571",
"8X c #EBDD70",
"9X c #EEE170",
"0X c #F1E678",
"qX c #8A8785",
"wX c #91908F",
"eX c #949392",
"rX c #AC9C83",
"tX c #A79683",
"yX c #A39E9D",
"uX c #B4A586",
"iX c #A7A6A5",
"pX c #B0AFAE",
"aX c #B2B1AF",
"sX c #B5B5B4",
"dX c #BEBEBC",
"fX c #C1B98F",
"gX c #C6B596",
"hX c #EDC888",
"jX c #F1CF83",
"kX c #F2D38A",
"lX c #EFCD93",
"zX c #E8D79D",
"xX c #F3D693",
"cX c #F5DB98",
"vX c #F3E996",
"bX c #F4EA88",
"nX c #C0C0BF",
"mX c #D6C8A8",
"MX c #F1D5A5",
"NX c #E6DBB4",
"BX c #F4DEB8",
"VX c #EFE3A9",
"CX c #F3E9A6",
"ZX c #F5EDAE",
"AX c #F1E6A4",
"SX c #EEE2B2",
"DX c #F4ECB4",
"FX c #F5EDBA",
"GX c #F7E3BD",
"HX c #F9F3B9",
"JX c #F8F2B5",
"KX c #CCCBCB",
"LX c #DFDEDE",
"PX c #D5D4D4",
"IX c #E4E3E3",
"UX c None",
/* pixels */
"UXUXUXUXUXUXUXUXUXUX0 7 > UXUXUXUXUXUXUXUXUXUXUXUXUXUXUXUXUXUXUX",
"UXUXUXUXUXUXUXUXUXO.IXnX#.i UXUXUXUXUXUXUXUXUX@ - - - 3 3 , , UX",
"UXUXUXUXUXUX# e * # o o o # % * # UXUXUXUXUXUXd z.Q.z.m.M.C.V.UX",
"UXUXUXUXUX. 2XxXkXhX<X;X-X=X*Xu.-.. UXUXUXUXUXd x.z.x.B.N.C.V.UX",
"UXUXUXUXUX. J.K.GXGXR.Y.U.6.5.2.1.O UXUXUXUXUX$ f f f g h h 4 UX",
"UXUXUXUXUX. J.K.uXBXR.Y.U.6.5.2.1.O UXUXUXUXUXd z.Q.z.m.M.C.V.UX",
"UXUXUXUXUX. J.F.oXgXR.Y.U.6.5.2.1.O UXUXUXUXUX6 k.l.k.n.c.b.E UX",
"UXUXUXUXUX. H.Z.oXgXR.Y.U.6.5.2.1.O UXUXUXUXUX= G G G H k k j UX",
"UXUXUXUXUX. J.K.rXMXR.Y.U.6.5.2.1.. UXUXUXUXUXg Q.Q.z.m.M.C.v.UX",
"UXUXUXUXUX. J.K.cXMXR.Y.U.6.5.2.1.O UXUXUXUXUX6 g.g.g.j.{ { R UX",
"UXUXUXUXUX. H.K.cXMXR.Y.U.6.5.2.1.. UXUXUXUXUX6 K K K I { [ T UX",
"UXUXUXUXUX. H.K.xXMXR.Y.U.6.5.2.1.. o > > > , g z.Q.z.m.M.C.v.UX",
"UXUXUXUXUX. J.K.xXlXR.Y.U.6.5.2.1.> / ! W Q 0 - J L L P P R j UX",
"UXUX0 ) #.0 J.K.kXlXR.R.U.6.5.2.1.. UXUXUXUXUXl S.S.S.A.3.<.-.UX",
"UX) +.0 o . H.K.jXhXR.,.>.>.:.-.-.. UXUXUXUXUXc L.!.L.I.W.E.8.UX",
"UX%.7 UXUX. A =.uX$Xt ~.}.}.{.{.`.`.'.fXfX/.U & z x x v V V s UX",
"UX9 #.O.0 > +./ %.W zXHXJXZXZXZXZXZXFX%XN # y ^.b D.J.G.T.U.;.UX",
"UXUXUX7 W ' iXiX) OXHXHXHXJXFXDXFXAX .; Z 9.a   ^.b L.I.W.E.8.UX",
"UXUXUXUXUXO.wX#.$ 0XbXvXvXCXZXZXFX~.< 0.e.e.e.t $ (.e l r u w UX",
"UXUXUXUXUX. Q 2 N 0X9X8X8X6X7XDX,X@ 9.w.w.w.w.Z   (.q.f.d.s.*.UX",
"UXUXUXUXUX. #.9 `.9X8X8X6X5X5XSXU a i.i.i.~ $.m   r.` f.d.s.*.UX",
"UXUXUXUXUXUXo @ |.8X8X6X4X4XcX2XX e.p.).a.' KXPXpX..; < % % + UX",
"UXUXUXUXUXUXUXUXOX2X5X4X3X3XSX`., ).)._._.` ^ .XsXKXKXyX9.4.&.UX",
"UXUXUXUXUXUXUXUXX.&X:X2X1X1XSXr.y )._.[.[.[._.y ; ' eXsXdXs *.UX",
"UXUXUXUXUXUXUXUXq XXrXrX:X>XSXU C ).y.m t.[._.@ X S < p ! % + UX",
"UXUXUXUXUXUXUXUXUXUXo.tXtX&XNXA D p.n LXPXqXM   M y UXUXUXUXUXUX",
"UXUXUXUXUXUXUXUXUXUXUX^ #XtXNX| C p.m qXnXPXLXpX] UXUXUXUXUXUXUX",
"UXUXUXUXUXUXUXUXUXUXUXUXi XXmX+X5 i.p.t.C O.iXKXLXKX/ UXUXUXUXUX",
"UXUXUXUXUXUXUXUXUXUXUXUXUX7 y.zX5 D i.w.M   1 ~ .XnXwXUXUXUXUXUX",
"UXUXUXUXUXUXUXUXUXUXUXUXUXUXUX| @X1 : X   A t.$ UX< @ UXUXUXUXUX",
"UXUXUXUXUXUXUXUXUXUXUXUXUXUXUXUX& } r.r.(.S o UXUXUXUXUXUXUXUXUX",
"UXUXUXUXUXUXUXUXUXUXUXUXUXUXUXUXUXUXUXUXUXUXUXUXUXUXUXUXUXUXUXUX"
};
