/* XPM */
static char *out_18[] = {
/* columns rows colors chars-per-pixel */
"22 21 184 2 ",
"   c #25231E",
".  c #2C2822",
"X  c #3F2F27",
"o  c #322D2B",
"O  c #353020",
"+  c #3A352F",
"@  c #3E392D",
"#  c #393533",
"$  c #3C3836",
"%  c #3D3936",
"&  c #3D3937",
"*  c #3E3A38",
"=  c #3F3C39",
"-  c #463A2B",
";  c #47392C",
":  c #513A2E",
">  c #443D30",
",  c #433F3D",
"<  c #543B30",
"1  c #533E30",
"2  c #484228",
"3  c #48412C",
"4  c #51432F",
"5  c #45413F",
"6  c #4E493E",
"7  c #544031",
"8  c #504730",
"9  c #514730",
"0  c #5D4133",
"q  c #514A30",
"w  c #534B31",
"e  c #534A32",
"r  c #554B30",
"t  c #554833",
"y  c #564F33",
"u  c #594E31",
"i  c #5D4E33",
"p  c #5F4B37",
"a  c #5F5736",
"s  c #664B38",
"d  c #665F3F",
"f  c #695A3A",
"g  c #695F38",
"h  c #6D5C3B",
"j  c #6E5F3C",
"k  c #76553F",
"l  c #6D6239",
"z  c #736B3B",
"x  c #464340",
"c  c #474341",
"v  c #474442",
"b  c #484442",
"n  c #484443",
"m  c #494543",
"M  c #4B4745",
"N  c #4D4947",
"B  c #4E4A49",
"V  c #4F4B4A",
"C  c #514E4C",
"Z  c #53504E",
"A  c #55524F",
"S  c #5D5A58",
"D  c #625C47",
"F  c #60534B",
"G  c #655F48",
"H  c #6E5E4D",
"J  c #735A43",
"K  c #755B43",
"L  c #7A5D42",
"P  c #715D4D",
"I  c #625F5E",
"U  c #7D6245",
"Y  c #7F7648",
"T  c #7D744A",
"R  c #6C6351",
"E  c #7A7353",
"W  c #656360",
"Q  c #6A6764",
"!  c #6E6B6A",
"~  c #706563",
"^  c #776D65",
"/  c #796D66",
"(  c #73716F",
")  c #7F726A",
"_  c #777472",
"`  c #7E7D7C",
"'  c #8A5B46",
"]  c #925C47",
"[  c #826045",
"{  c #86674C",
"}  c #95654D",
"|  c #98624B",
" . c #95694C",
".. c #946E4D",
"X. c #976E4D",
"o. c #9B6B4F",
"O. c #837856",
"+. c #807959",
"@. c #9B7F51",
"#. c #9F7E54",
"$. c #A27152",
"%. c #A77954",
"&. c #A77D55",
"*. c #AA7E56",
"=. c #83756B",
"-. c #83786E",
";. c #807E7D",
":. c #948356",
">. c #958D59",
",. c #978C5B",
"<. c #9E935B",
"1. c #AB8458",
"2. c #B18B5B",
"3. c #B38B5C",
"4. c #B4935C",
"5. c #9C9260",
"6. c #969069",
"7. c #8A8578",
"8. c #8B857B",
"9. c #988971",
"0. c #A09867",
"q. c #A29377",
"w. c #B0A669",
"e. c #B4A47E",
"r. c #C5BA5F",
"t. c #C0B777",
"y. c #C3B37B",
"u. c #C4B779",
"i. c #CABA7B",
"p. c #DCCA6F",
"a. c #E5D36F",
"s. c #E5D76C",
"d. c #E7D66F",
"f. c #E9D86F",
"g. c #E3D171",
"h. c #E9D971",
"j. c #E9DA71",
"k. c #EADA70",
"l. c #ECDD70",
"z. c #EDDE70",
"x. c #E6D57A",
"c. c #EFE272",
"v. c #EFE176",
"b. c #888684",
"n. c #8A8985",
"m. c #938983",
"M. c #989389",
"N. c #9C9792",
"B. c #9F9B96",
"V. c #A49582",
"C. c #A49483",
"Z. c #A89A81",
"A. c #A8A7A6",
"S. c #ACABAA",
"D. c #ADACAB",
"F. c #B4B3B1",
"G. c #B7B6B5",
"H. c #B7B7B6",
"J. c #B9B8B7",
"K. c #BCBBBA",
"L. c #CCBB92",
"P. c #D8CD8B",
"I. c #D2C297",
"U. c #DECE90",
"Y. c #E6D688",
"T. c #EDDF92",
"R. c #EADD9B",
"E. c #EADF9F",
"W. c #EFE281",
"Q. c #EAE28B",
"!. c #EAE295",
"~. c #F0E592",
"^. c #C1C0BE",
"/. c #EDE3A9",
"(. c #EEE8A9",
"). c #F2E9A7",
"_. c #F4EAA7",
"`. c #F7EFA7",
"'. c #F2E9AB",
"]. c #F8F1A8",
"[. c #F6EEB2",
"{. c #F7F0B3",
"}. c #F7F0B7",
"|. c None",
/* pixels */
"|.|.|.|., 5 5 # |.|.|.|.|.|.|.|.|.|.|.|.|.|.",
"|.* B n c n n & |.|.|.|.|.|.|.|.|.|.|.|.|.|.",
"|.Z & |.|.|.|.|.|.|.|.|.|.|.|.|.|.|.|.|.|.|.",
"& B |.|.|.|.|.|.|.|.|.|.|.|.|.|.|.|.|.|.|.|.",
"|.C |.|.|.|.|.|.|.|.|.|.|.|.|.|.|.|.|.|.|.|.",
"|.5 M |.|.|.|.|.|.|.|.|.|.|.|.|.|.|.|.|.|.|.",
"|.|.N & |.|.|.|.O 2 |.|.|.|.|.|.|.|.|.|.|.|.",
"|.|.|.o ( I + 6.(.].!.t.5.T E |.|.|.|.|.|.|.",
"|.|.|.n ` ! G Q.].{.}.[._.'.P.0.O.l |.|.|.|.",
"|.|.|.|.5 @ r.c.v.W.~._./.<.i < : - g |.|.|.",
"|.|.|.|.|.z s.z.l.f.k.E.>.< ' | ] X a |.|.|.",
"|.|.|.|.|.,.k.k.f.d.!.w.4  .$.o. .< y u |.|.",
"|.|.|.|.|.-.i.g.a.x.R.r [ &.*.P m.F w r |.|.",
"|.|.|.|.|.~ Z.y.p.Y.u.; &.3.3.P S.J.7.> |.|.",
"|.|.|.|.|.|./ V.e.U.+.L 1.:.4.3.J Q F.K._ |.",
"|.|.|.|.|.|.|.) V.I.G ..[ M.9.#.p   R n.A.Z ",
"|.|.|.|.|.|.|.|.=.L.D X.K N.^.B.= w |.|.& |.",
"|.|.|.|.|.|.|.|.|.q.+.k %.{ / D.G.8.|.|.|.|.",
"|.|.|.|.|.|.|.|.|.|.:.; s < . 6 n.G.;.|.|.|.",
"|.|.|.|.|.|.|.|.|.|.|.l 9 9 f j |.W S |.|.|.",
"|.|.|.|.|.|.|.|.|.|.|.|.|.i |.|.|.|.|.|.|.|."
};
