/* XPM */
static char *out_19[] = {
/* columns rows colors chars-per-pixel */
"32 30 187 2 ",
"   c #141516",
".  c #1F1A17",
"X  c #1B1B19",
"o  c #221D1A",
"O  c #24221D",
"+  c #2C261C",
"@  c #322A1F",
"#  c #2A2623",
"$  c #2D2925",
"%  c #342D21",
"&  c #3A2A25",
"*  c #312C2A",
"=  c #373121",
"-  c #3B3526",
";  c #373229",
":  c #38322E",
">  c #3E3829",
",  c #352E3A",
"<  c #373331",
"1  c #383432",
"2  c #3C343E",
"3  c #3F3A38",
"4  c #43342A",
"5  c #4B342C",
"6  c #41392F",
"7  c #493F2C",
"8  c #523A2F",
"9  c #423930",
"0  c #433E3B",
"q  c #483F3E",
"w  c #533E30",
"e  c #43402A",
"r  c #52452E",
"t  c #554F2D",
"y  c #4C4139",
"u  c #584433",
"i  c #554D32",
"p  c #5F4C38",
"a  c #575133",
"s  c #5B5132",
"d  c #644636",
"f  c #674C3B",
"g  c #684B39",
"h  c #69513B",
"j  c #645C38",
"k  c #70523B",
"l  c #6F643B",
"z  c #7A6E3F",
"x  c #453C42",
"c  c #463F52",
"v  c #494543",
"b  c #4C4947",
"n  c #524C4C",
"m  c #54504A",
"M  c #58544E",
"N  c #574E5C",
"B  c #565351",
"V  c #585554",
"C  c #5C5957",
"Z  c #5E5B5A",
"A  c #635A4D",
"S  c #795640",
"D  c #775940",
"F  c #7B5B42",
"G  c #665F52",
"H  c #615D5C",
"J  c #786B42",
"K  c #7A7342",
"L  c #666462",
"P  c #6A6664",
"I  c #74716E",
"U  c #7E726C",
"Y  c #757371",
"T  c #787675",
"R  c #7D7C7B",
"E  c #835040",
"W  c #945D48",
"Q  c #886447",
"!  c #826C45",
"~  c #8B6C4A",
"^  c #97604A",
"/  c #9B664D",
"(  c #936B4C",
")  c #9D694E",
"_  c #847145",
"`  c #857348",
"'  c #8A7548",
"]  c #95714D",
"[  c #937D4C",
"{  c #9C7A51",
"}  c #A37252",
"|  c #A77854",
" . c #A87C55",
".. c #897C71",
"X. c #8C834C",
"o. c #91834A",
"O. c #9A8E4D",
"+. c #9D8651",
"@. c #9A8950",
"#. c #AE8459",
"$. c #B0865A",
"%. c #B58E5D",
"&. c #A59454",
"*. c #AA9756",
"=. c #BA975F",
"-. c #B7A35B",
";. c #BBAD5D",
":. c #BEB05F",
">. c #898160",
",. c #8F8173",
"<. c #938476",
"1. c #978679",
"2. c #BC9A60",
"3. c #A79577",
"4. c #B5AC67",
"5. c #BDA76B",
"6. c #BDAC7A",
"7. c #CABA63",
"8. c #C2B66C",
"9. c #C9B877",
"0. c #DBC66F",
"q. c #DFCB6E",
"w. c #D2C177",
"e. c #DCCC74",
"r. c #DCD37F",
"t. c #E1CE6D",
"y. c #E5D36E",
"u. c #E9D76F",
"i. c #E9D96F",
"p. c #E7D872",
"a. c #ECDD70",
"s. c #E3D27B",
"d. c #EFE171",
"f. c #EFE17B",
"g. c #F0E371",
"h. c #F3E978",
"j. c #888785",
"k. c #8D8B8A",
"l. c #929190",
"z. c #989795",
"x. c #A59584",
"c. c #AA9B84",
"v. c #B4A583",
"b. c #B9AC82",
"n. c #BDB781",
"m. c #A1A19F",
"M. c #A3A3A1",
"N. c #AAAAA9",
"B. c #B5B4B3",
"V. c #BEBDBC",
"C. c #C4B38D",
"Z. c #C5B593",
"A. c #C4BE9E",
"S. c #C6C186",
"D. c #D7C695",
"F. c #D1C898",
"G. c #E2D686",
"H. c #E4D49B",
"J. c #EFE28B",
"K. c #F0E487",
"L. c #F4EA8C",
"P. c #F4EB9C",
"I. c #E5D5A0",
"U. c #E6D8AA",
"Y. c #E9DCA9",
"T. c #EEE3AC",
"R. c #F3EAA4",
"E. c #F1E6AC",
"W. c #F4EBAB",
"Q. c #F9F2A7",
"!. c #F8F2AE",
"~. c #EFE5BC",
"^. c #F5EDB4",
"/. c #F0E7BB",
"(. c #F5EDB9",
"). c #F7F0B7",
"_. c #FAF4B7",
"`. c #F9F3B9",
"'. c #C5C5C4",
"]. c #CDCDCC",
"[. c #D0D0CF",
"{. c #D3D3D2",
"}. c #DBDBDA",
"|. c #F5EEC6",
" X c #F8F1CA",
".X c #E1E1E1",
"XX c None",
/* pixels */
"XXXXXXXXXXXXXXXX* * # XXXXXXXXXXXXXXXXXXXXXXXXXXXXXXXXXXXXXXXXXX",
"XXXXXX# 0 V H H Z H Z $ XXXXXXXXXXXXXXXXXXXXXXXXXXXXXXXXXXXXXXXX",
"XXXXv Z n 1 # # # XXXXXXXXXXXXXXXXXXXXXXXXXXXXXXXXXXXXXXXXXXXXXX",
"XXv Z < XXXXXXXXXXXXXXXXXXXXXXXXXXXXXXXXXXXXXXXXXXXXXXXXXXXXXXXX",
"XXC v XXXXXXXXXXXXXXXXXXXXXXXXXXXXXXXXXXXXXXXXXXXXXXXXXXXXXXXXXX",
"XXV v XXXXXXXXXXXXXXXXXXXXXXXXXXXXXXXXXXXXXXXXXXXXXXXXXXXXXXXXXX",
"XXv V XXXXXXXXXXXXXXXXXXXXXXXXXXXXXXXXXXXXXXXXXXXXXXXXXXXXXXXXXX",
"XX# C v XXXXXXXXXXXXXXXXXXXXXXXXXXXXXXXXXXXXXXXXXXXXXXXXXXXXXXXX",
"XXXX1 Z * XXXXXXXXXXXXXXXXXXXXXXXXXXXXXXXXXXXXXXXXXXXXXXXXXXXXXX",
"XXXXXXv B o . XXXXXXXX. = t + XXXXXXXXXXXXXXXXXXXXXXXXXXXXXXXXXX",
"XXXXXXo $ O T L * XX; n.!.Q.P.r.4.X.j - . XXXXXXXXXXXXXXXXXXXXXX",
"XXXXXXXX. C k.l.k.# S._.`.`.).).^.!.R.J.G.F.A.>.= XXXXXXXXXXXXXX",
"XXXXXXXXXXV R R * l h.L.P.Q.^.).).W.R. XW.8.X.z &.z o XXXXXXXXXX",
"XXXXXXXXXX. b 1 + g.d.d.d.f.K.R.R.E.(.7.i o 5 5 . e o.. XXXXXXXX",
"XXXXXXXXXXXXXX. O.d.d.d.a.a.a.i.J.(.:.O 8 W W W E X j s XXXXXXXX",
"XXXXXXXXXXXXXXo y.d.a.a.i.i.u.i.|.:.X d ) ) / / ^ & X -.. XXXXXX",
"XXXXXXXXXXXXXXn u.a.a.u.u.u.y.E.s.- w } } } } ) ) 8   *.o XXXXXX",
"XXXXXXXXXXXXXXN b.e.u.u.u.y.p./.K O }  .| | k H f 8   @.+ XXXXXX",
"XXXXXXXXXXXXXXc c.v.w.y.t.t.T.G.O D  .$.$.#.0 {.}.I   &.. XXXXXX",
"XXXXXXXXXXXXXXXXU c.c.9.t.t.~.O.O  .$.%.%.%.d Y V.}.].G XXXXXXXX",
"XXXXXXXXXXXXXXXX, ..x.c.6.0.~.a u $.%.2.2.=.%.] w k.'..XB.0 XXXX",
"XXXXXXXXXXXXXXXXXX2 ,.x.x.C.Y.- D #.~ ; ! 2.%.#.4   m M.'.}.H XX",
"XXXXXXXXXXXXXXXXXXXX2 1.x.Z.H.o ( $.> {.].A { ~   X _ o L B.j.XX",
"XXXXXXXXXXXXXXXXXXXXXXx 1.C.I.O (  .9 m.'..XM.#   l - XXXX# o XX",
"XXXXXXXXXXXXXXXXXXXXXXXXx 3.U.- D  . .h L B.[.}.P i XXXXXXXXXXXX",
"XXXXXXXXXXXXXXXXXXXXXXXXXXv D.J 5 } | | Q : k.V.}.V.x XXXXXXXXXX",
"XXXXXXXXXXXXXXXXXXXXXXXXXXXX7 5.$ 4 f w .   % B N.'.'.* XXXXXXXX",
"XXXXXXXXXXXXXXXXXXXXXXXXXXXXXX= @.i O X > ` [ % # Y z.* XXXXXXXX",
"XXXXXXXXXXXXXXXXXXXXXXXXXXXXXXXXo r ' o.[ r . XXXXXX. XXXXXXXXXX",
"XXXXXXXXXXXXXXXXXXXXXXXXXXXXXXXXXXXXXXXXXXXXXXXXXXXXXXXXXXXXXXXX"
};
