/* XPM */
static char *out_20[] = {
/* columns rows colors chars-per-pixel */
"13 22 169 2 ",
"   c #33241C",
".  c #35251D",
"X  c #38271D",
"o  c #39271D",
"O  c #292522",
"+  c #2D2826",
"@  c #2D2926",
"#  c #2E2926",
"$  c #2E2927",
"%  c #2E2A28",
"&  c #302B29",
"*  c #312C2A",
"=  c #322E2B",
"-  c #34302E",
";  c #35312E",
":  c #363230",
">  c #373331",
",  c #3C3735",
"<  c #3C3836",
"1  c #3D3936",
"2  c #423515",
"3  c #473912",
"4  c #473913",
"5  c #483912",
"6  c #402C22",
"7  c #44403E",
"8  c #544C3D",
"9  c #79482D",
"0  c #7A492F",
"q  c #734F3B",
"w  c #464341",
"e  c #484441",
"r  c #484442",
"t  c #484542",
"y  c #514E4D",
"u  c #575453",
"i  c #585553",
"p  c #5B5652",
"a  c #595654",
"s  c #595655",
"d  c #5B5856",
"f  c #5C5A59",
"g  c #605953",
"h  c #655D56",
"j  c #605D5B",
"k  c #7E624E",
"l  c #62605F",
"z  c #6A6158",
"x  c #6E655C",
"c  c #796759",
"v  c #656260",
"b  c #686564",
"n  c #6C6968",
"m  c #6D6A68",
"M  c #727171",
"N  c #747270",
"B  c #757372",
"V  c #797777",
"C  c #7C7A7A",
"Z  c #7F7E7E",
"A  c #894F31",
"S  c #895031",
"D  c #8A5031",
"F  c #AC653B",
"G  c #B1683D",
"H  c #B66E3C",
"J  c #B96A3C",
"K  c #B7713F",
"L  c #BE723B",
"P  c #BB7639",
"I  c #C17D37",
"U  c #C37939",
"Y  c #BE7C42",
"T  c #807662",
"R  c #8E7E66",
"E  c #897A6C",
"W  c #8E7F6E",
"Q  c #817F7E",
"!  c #AA820D",
"~  c #B88D07",
"^  c #BA8E06",
"/  c #BB8E06",
"(  c #BC8F06",
")  c #B2890A",
"_  c #A88310",
"`  c #B7813A",
"'  c #C78436",
"]  c #CA8137",
"[  c #C88A36",
"{  c #CD8C35",
"}  c #D08935",
"|  c #D08E35",
" . c #D59133",
".. c #BBA25A",
"X. c #9E8B68",
"o. c #82807E",
"O. c #83807F",
"+. c #968772",
"@. c #928A77",
"#. c #9B9078",
"$. c #AD9C72",
"%. c #C88C4F",
"&. c #DAB859",
"*. c #E8BE49",
"=. c #D2A26A",
"-. c #DBB37D",
";. c #E4BE7F",
":. c #F1C548",
">. c #F1C64C",
",. c #F2C850",
"<. c #F2C954",
"1. c #F1C957",
"2. c #F3CA56",
"3. c #E7C461",
"4. c #F3CF66",
"5. c #828180",
"6. c #838180",
"7. c #848280",
"8. c #878585",
"9. c #868685",
"0. c #898685",
"q. c #8A8988",
"w. c #8D8B8A",
"e. c #8D8C8C",
"r. c #8F8D8C",
"t. c #9E9580",
"y. c #91908F",
"u. c #949291",
"i. c #949393",
"p. c #969493",
"a. c #979695",
"s. c #9D9A95",
"d. c #9B9A99",
"f. c #B6A486",
"g. c #BEAD87",
"h. c #A6A19B",
"j. c #A9A8A7",
"k. c #ADACAC",
"l. c #B1ADA6",
"z. c #B4B3B2",
"x. c #B6B5B4",
"c. c gray72",
"v. c #D2B88F",
"b. c #D0BF8E",
"n. c #C0BFBE",
"m. c #C1BFBF",
"M. c #EAC383",
"N. c #EBCA83",
"B. c #EBC588",
"V. c #ECC78D",
"C. c #F1CF87",
"Z. c #F1D28D",
"A. c #EDCA93",
"S. c #E9C997",
"D. c #EDCC97",
"F. c #E0C69E",
"G. c #F3D493",
"H. c #F3D79A",
"J. c #F4D99F",
"K. c #DECEAA",
"L. c #EFD4AA",
"P. c #F4E5BA",
"I. c #C1C0C0",
"U. c #C4C3C2",
"Y. c #C4C3C3",
"T. c #CCCBCA",
"R. c #EDDDC5",
"E. c #F3E9D2",
"W. c None",
/* pixels */
"W.W.W.W.W.v f 7 W.W.W.W.W.",
"W.W.W.W.j c.j.N - W.W.W.W.",
"W.T $.X.R +.+.E c k q o W.",
"8 b.P.E.R.-.=.%.Y Y F 9 . ",
"4 ( 4.K.L. .} ] U L J D o ",
"4 ~ 3.t.F.{ } ] U L J D o ",
"4 ! ..@.f.` } ] U L J D o ",
"4 ) &.#.v.[ } ] U L J D o ",
"4 ( 2.g.S. .} ] U L J D X ",
"5 ( <.J.D. .} ] U L J D o ",
"5 ( <.H.A. .} ] U L J D o ",
"5 ( ,.G.V. .} ] U L J D o ",
"5 ~ >.Z.B. .} ] U L J A o ",
"5 ~ :.C.M. .} ] U L J D o ",
"2 ! *.N.;.{ ' I P H F 0 X ",
"; m s.l.h.x z h d s u w O ",
"1 r.U.T.m.a.y.q.5.C N s $ ",
"1 Q w.O.Q 0.y.q.5.C B s $ ",
"1 0.z.x.k.u.y.q.5.C N s $ ",
": 7.m.U.c.i.e.8.Z V M s $ ",
"W.t 7.d.i.m b l f y w : W.",
"W.W.W.W.r = & & % W.W.W.W."
};
