/* XPM */
static char *out_21[] = {
/* columns rows colors chars-per-pixel */
"16 28 177 2 ",
"   c #1F1A17",
".  c #211C19",
"X  c #231C18",
"o  c #292422",
"O  c #2C2725",
"+  c #2D2926",
"@  c #393533",
"#  c #3A3634",
"$  c #613B27",
"%  c #43403F",
"&  c #6D412A",
"*  c #6E422A",
"=  c #6F422A",
"-  c #6F432A",
";  c #784C35",
":  c #464341",
">  c #4F4741",
",  c #494644",
"<  c #4A4644",
"1  c #4A4745",
"2  c #4B4745",
"3  c #4E4A48",
"4  c #4E4B49",
"5  c #4F4B49",
"6  c #524941",
"7  c #564B42",
"8  c #584D42",
"9  c #5C4F43",
"0  c #514E4C",
"q  c #524E4C",
"w  c #524F4C",
"e  c #5E5245",
"r  c #54514E",
"t  c #54514F",
"y  c #585552",
"u  c #645F5A",
"i  c #656261",
"p  c #666362",
"a  c #676463",
"s  c #6B6764",
"d  c #6C6B6B",
"f  c #716F6D",
"g  c #716F6E",
"h  c #72706F",
"j  c #73706F",
"k  c gray44",
"l  c #757371",
"z  c #777573",
"x  c #757475",
"c  c #777675",
"v  c #787675",
"b  c #7A7775",
"n  c #7A7776",
"m  c #797979",
"M  c #7C7978",
"N  c #7D7B7B",
"B  c #7E7E7E",
"V  c #8A6B0B",
"C  c #9B7809",
"Z  c #9C7909",
"A  c #9D7A09",
"S  c #9E7B09",
"D  c #AA6039",
"F  c #B7673C",
"G  c #B96C3B",
"H  c #BB6D3C",
"J  c #BF733B",
"K  c #C87F37",
"L  c #C37939",
"P  c #866149",
"I  c #9F7740",
"U  c #93745E",
"Y  c #90795D",
"T  c #857D6D",
"R  c #857D6E",
"E  c #847D6F",
"W  c #857F71",
"Q  c #867F73",
"!  c #827F7E",
"~  c #AC8922",
"^  c #D7A40C",
"/  c #DAA60A",
"(  c #E8AD00",
")  c #EEB200",
"_  c #CD8536",
"`  c #C38937",
"'  c #C68B37",
"]  c #D28C34",
"[  c #D79333",
"{  c #9D8666",
"}  c #978069",
"|  c #9E8571",
" . c #A38E7A",
".. c #AB9572",
"X. c #BAA47B",
"o. c #CB8540",
"O. c #D89F61",
"+. c #F3D179",
"@. c #F4D37F",
"#. c #828180",
"$. c #858381",
"%. c #848483",
"&. c #888786",
"*. c #8A898A",
"=. c #8C8988",
"-. c #8E8D8B",
";. c #8E8D8C",
":. c #93908F",
">. c #919090",
",. c #949292",
"<. c #959392",
"1. c #999897",
"2. c #A39D95",
"3. c #A59F96",
"4. c #AFA383",
"5. c #AEA18A",
"6. c #A9A49B",
"7. c #A8A7A7",
"8. c #AFADAC",
"9. c #B3B2B1",
"0. c #B4B3B2",
"q. c #B5B4B4",
"w. c #B9B8B7",
"e. c #B9B8B8",
"r. c #BEBEBD",
"t. c gray75",
"y. c #C8B380",
"u. c #CFBD8B",
"i. c #E3B780",
"p. c #CCC09B",
"a. c #DBC895",
"s. c #EFCB83",
"d. c #ECC789",
"f. c #E9C38D",
"g. c #ECC98D",
"h. c #F0CD87",
"j. c #F0CF8D",
"k. c #F4D584",
"l. c #F4D789",
"z. c #F5D98F",
"x. c #EDCB92",
"c. c #EECD97",
"v. c #EFCF9B",
"b. c #F1D191",
"n. c #F2D395",
"m. c #F5DA94",
"M. c #F2D59B",
"N. c #F3D79F",
"B. c #F6DC98",
"V. c #F3DB9C",
"C. c #DAC4A0",
"Z. c #DFCDA0",
"A. c #DFCBA9",
"S. c #F0D1A0",
"D. c #F0D3A4",
"F. c #F3D9A3",
"G. c #F1D5A8",
"H. c #F4DEB9",
"J. c #FAE6AA",
"K. c #F4E2B1",
"L. c #F6E3BB",
"P. c #F5E0BE",
"I. c #F9E7B8",
"U. c #C4C3C3",
"Y. c #C5C5C5",
"T. c #C6C5C5",
"R. c #C8C7C7",
"E. c #CAC9C8",
"W. c #CBCAC9",
"Q. c #CCCBCA",
"!. c #D0CFCF",
"~. c #DFDFDE",
"^. c #E6E6E6",
"/. c #FBF1E1",
"(. c #FCF4E3",
"). c #FDF7E5",
"_. c None",
/* pixels */
"_._._._._._._._._._._._._._._._.",
"_._._._._.w ^.~.7.g + _._._._._.",
"_._._._._.3 :.-.M t O _._._._._.",
"_.u u.y.X...{ Y }  .| U P ; X _.",
"_.p.J.).(.(.f.i.O.o.L J H F $ _.",
"_.S ) I.P.H.[ ] _ K L J H F - _.",
"_.S ) K.Q H.[ ] _ K L J H F - _.",
"_.S / Z.Q A.' ] _ K L J H F - _.",
"_.S ~ 4.E 5.I ] _ K L J H F - _.",
"_.S ^ a.E C.` ] _ K L J H F - _.",
"_.S ) V.E G.[ ] _ K L J H F - _.",
"_.C ) B.F.G.[ ] _ K L J H F - _.",
"_.C ) B.N.D.[ ] _ K L J H F - _.",
"_.S ) B.M.S.[ ] _ K L J H F - _.",
"_.C ) z.n.v.[ ] _ K L J H F - _.",
"_.C ) l.b.c.[ ] _ K L J H F - _.",
"_.C ) k.j.x.[ ] _ K L J H F - _.",
"_.C ) @.h.g.[ ] _ K L J H F - _.",
"_.V ( +.s.d.[ ] _ K L J G D $ _.",
"_.y s 6.3.2.e 9 8 7 6 > 2 3 # _.",
"_.n 0.!.Q.R.1.,.;.&.#.B c h 2 _.",
"_.z 0.!.E.Y.1.,.;.&.#.M c g , _.",
"_.l =.a p i v ,.;.&.#.B c h 2 _.",
"_.j 8.r.w.q.,.,.;.&.#.M c h 2 _.",
"_.h 9.Q.U.t.1.,.;.&.#.M c k 2 _.",
"_.t 9.T.r.e.>.*.%.B m c k d : _.",
"_.  o z ! $.w w 3 2 : # O X . _.",
"_._._._._._._._._._._._._._._._."
};
