/* XPM */
static char *out_23[] = {
/* columns rows colors chars-per-pixel */
"18 18 134 2 ",
"   c #131516",
".  c #121616",
"X  c #121817",
"o  c #121917",
"O  c #141817",
"+  c #1F1A17",
"@  c #151718",
"#  c #121A18",
"$  c #141818",
"%  c #161819",
"&  c #151A18",
"*  c #121D19",
"=  c #161E1A",
"-  c #11211B",
";  c #16201B",
":  c #12231C",
">  c #14221C",
",  c #10271D",
"<  c #13271E",
"1  c #14241C",
"2  c #102A1E",
"3  c #15291F",
"4  c #1A291F",
"5  c #1E2322",
"6  c #1C2420",
"7  c #162A20",
"8  c #1D2824",
"9  c #0E3322",
"0  c #0F3624",
"q  c #0D3D26",
"w  c #113725",
"e  c #2A342F",
"r  c #203D29",
"t  c #203F2A",
"y  c #1A412A",
"u  c #1F412B",
"i  c #0A522F",
"p  c #095A32",
"a  c #21482E",
"s  c #284538",
"d  c #244B38",
"f  c #30463C",
"g  c #285735",
"h  c #295A37",
"j  c #076B3A",
"k  c #3B633B",
"l  c #3E643C",
"z  c #38683E",
"x  c #305644",
"c  c #385D4B",
"v  c #0F7742",
"b  c #227140",
"n  c #287442",
"m  c #537A48",
"M  c #587E4A",
"N  c #5A7766",
"B  c #0C8546",
"V  c #3E8F5A",
"C  c #249952",
"Z  c #379259",
"A  c #0AA252",
"S  c #0DA357",
"D  c #0AA554",
"F  c #0DA757",
"G  c #1AA959",
"H  c #3DAE5E",
"J  c #2D9A63",
"K  c #29AB60",
"L  c #30A36A",
"P  c #25B36E",
"I  c #409C56",
"U  c #509052",
"Y  c #509454",
"T  c #529554",
"R  c #62824D",
"E  c #65864F",
"W  c #6D8750",
"Q  c #748C53",
"!  c #629757",
"~  c #659556",
"^  c #7D9055",
"/  c #729A5A",
"(  c #4A8668",
")  c #5C9D74",
"_  c #45B060",
"`  c #5BB664",
"'  c #5FB564",
"]  c #52BC7C",
"[  c #5DBE7D",
"{  c #65AD61",
"}  c #7EAD64",
"|  c #60B665",
" . c #68B264",
".. c #61B866",
"X. c #6DBD6A",
"o. c #70B164",
"O. c #79C16D",
"+. c #7FC36E",
"@. c #84B668",
"#. c #94B86A",
"$. c #91CA73",
"%. c #A3D278",
"&. c #AAD579",
"*. c #4EBE82",
"=. c #7DB899",
"-. c #7BBF9D",
";. c #6AC080",
":. c #7CC583",
">. c #62C690",
",. c #6FC290",
"<. c #6ECA9A",
"1. c #7DCD9D",
"2. c #7ACEA3",
"3. c #8CAA9C",
"4. c #8CAC9C",
"5. c #81C685",
"6. c #8BCF9F",
"7. c #84CBA7",
"8. c #8AC8A8",
"9. c #97CEAE",
"0. c #80D0A7",
"q. c #8FD0A0",
"w. c #81D1A9",
"e. c #99DAB7",
"r. c #99DCBC",
"t. c #9EDCBC",
"y. c #A4DDBD",
"u. c #B4E3CA",
"i. c #B5E2CB",
"p. c #C9DED4",
"a. c #C9DFD4",
"s. c #C7EBD8",
"d. c #F2F9F5",
"f. c None",
/* pixels */
"f.f.f.f.f.f.f.f.f.f.f.f.f.f.f.f.f.f.",
"f.f.f.f.    o ,       f.f.f.f.f.f.f.",
"f.f.f.@ x -.u.s.u.=.f @ f.f.f.f.f.f.",
"f.f.  ( 0.e.9.N e     &   f.f.f.f.f.",
"f.  d 2.>.) 6 8 4.p.d.p.3.5   f.f.f.",
"f.  J *.Z & c 7.r.y.y.y.y.8.s   f.f.",
"f.o S K 4 w w.<.1.6.q.q.q.6.,., f.f.",
"f.2 D b # L <.[ ;.:.5.5.5.:.;.V   f.",
"f.# A y q P ] I U  .O.o.! { .._ 7 f.",
"f.. B 7 p F H k + ~ $.E + M X.` a f.",
"f.  0 > j G _ l + / %.Q + R O...h f.",
"f.f.@ - i G _ l + / &.^ + R O...r f.",
"f.f.f.  9 G _ T R @.&.#.W } O.' > f.",
"f.f.f.f.. v H ` X.@.$.$.$.+.X.z   f.",
"f.f.f.f.. - C _ ` X.+.X.X.X.Y # f.f.",
"f.f.f.f.f.. - n _ ` ......z & f.f.f.",
"f.f.f.f.f.f.f.  > u g r =   f.f.f.f.",
"f.f.f.f.f.f.f.f.f.f.f.f.f.f.f.f.f.f."
};
