/* XPM */
static char *out_22[] = {
/* columns rows colors chars-per-pixel */
"18 18 131 2 ",
"   c #131516",
".  c #151516",
"X  c #181617",
"o  c #191617",
"O  c #1F1A17",
"+  c #151718",
"@  c #161718",
"#  c #191718",
"$  c #1B1618",
"%  c #161819",
"&  c #1F1819",
"*  c #201919",
"=  c #211919",
"-  c #24191A",
";  c #27191B",
":  c #251A1A",
">  c #271A1B",
",  c #241F1F",
"<  c #2E191D",
"1  c #2D1D1C",
"2  c #2C1C1D",
"3  c #2F1C1D",
"4  c #321A1E",
"5  c #301D1D",
"6  c #3F1E21",
"7  c #222222",
"8  c #2A2224",
"9  c #362E2E",
"0  c #431F22",
"q  c #442025",
"w  c #482523",
"e  c #4F2026",
"r  c #4B2624",
"t  c #4F2625",
"y  c #582927",
"u  c #4D3636",
"i  c #4C3A3B",
"p  c #593338",
"a  c #6A282D",
"s  c #6B302C",
"d  c #6F312D",
"f  c #7B382E",
"g  c #7B392E",
"h  c #772930",
"j  c #7D3930",
"k  c #633E44",
"l  c #6B474B",
"z  c #8E3036",
"x  c #903935",
"c  c #943A37",
"v  c #9D3839",
"b  c #B23A3F",
"n  c #914433",
"m  c #944734",
"M  c #944A33",
"N  c #954E33",
"B  c #984C34",
"V  c #995133",
"C  c #995332",
"Z  c #B14C3C",
"A  c #B54D3E",
"S  c #B74E3E",
"D  c #AF513A",
"F  c #B3513B",
"G  c #B0563A",
"H  c #C55E3F",
"J  c #C7663E",
"K  c #B1514D",
"L  c #B6504C",
"P  c #806362",
"I  c #9D6068",
"U  c #B76D6B",
"Y  c #C74644",
"T  c #C74C43",
"R  c #DB444A",
"E  c #DF454B",
"W  c #DF494B",
"Q  c #CF5A44",
"!  c #D15D43",
"~  c #D65C45",
"^  c #DE5B48",
"/  c #DF5C48",
"(  c #DC4750",
")  c #DD5350",
"_  c #E04B4B",
"`  c #E1524A",
"'  c #E1544A",
"]  c #E25B49",
"[  c #E25D49",
"{  c #CF6341",
"}  c #E56C47",
"|  c #E36149",
" . c #E46448",
".. c #E46648",
"X. c #E67246",
"o. c #E67445",
"O. c #C35961",
"+. c #CD5F66",
"@. c #E46265",
"#. c #E7716F",
"$. c #E7736F",
"%. c #E7766E",
"&. c #E87C6D",
"*. c #E87D6D",
"=. c #E8787A",
"-. c #B4999B",
";. c #B8999C",
":. c #CE9497",
">. c #D8969B",
",. c #E48786",
"<. c #EB8787",
"1. c #EC9293",
"2. c #ED9493",
"3. c #ED9792",
"4. c #ED9892",
"5. c #EE9A9F",
"6. c #EF9FA3",
"7. c #DEA2A3",
"8. c #E5A1A5",
"9. c #EFA1A6",
"0. c #E4A9A8",
"q. c #F2B1B2",
"w. c #F3B6B7",
"e. c #F3B7B7",
"r. c #F3C7C8",
"t. c #F4C6C9",
"y. c #E6D2D3",
"u. c #E7D2D3",
"i. c #F8D4D6",
"p. c #FBF4F5",
"a. c None",
/* pixels */
"a.a.a.a.a.a.a.a.a.a.a.a.a.a.a.a.a.a.",
"a.a.a.a.  + # <       a.a.a.a.a.a.a.",
"a.a.a.+ k >.t.i.t.:.i # a.a.a.a.a.a.",
"a.a.  I 6.q.0.P 9         a.a.a.a.a.",
"a.  p 5.<.U , 8 ;.u.p.u.-.7   a.a.a.",
"a.  O.=.L # l 8.e.e.e.e.e.7.u   a.a.",
"a.o ( ) 1 0 9.1.1.3.4.4.4.4.,.1 a.a.",
"a.4 E x # +.1.$.%.*.*.*.*.*.%.K   a.",
"a.  E t e @.#.T Z ~  .! D Q [ ' 5 a.",
"a.  b 5 h W ` g * D } B * m | [ y a.",
"a.  0 > z _ ' g O G X.V O M  .[ d a.",
"a.a.  - a _ ' j O G o.C O M  .[ r a.",
"a.a.a.  6 _ ' A n { X.J N H  .] * a.",
"a.a.a.a.  v ` ] |  .} } }  .| j   a.",
"a.a.a.a.  - Y ' ]  . . . .| A   a.a.",
"a.a.a.a.a.  O c ' ] | ] ] j o a.a.a.",
"a.a.a.a.a.a.a.  - t d w *   a.a.a.a.",
"a.a.a.a.a.a.a.a.a.a.a.a.a.a.a.a.a.a."
};
