/* XPM */
static const char *systray_bat_000_xpm[] = {
/* columns rows colors chars-per-pixel */
"22 22 135 2 ",
"   c #1F1A17",
".  c #2A2215",
"X  c #2F2419",
"o  c #30241A",
"O  c #34261B",
"+  c #33241C",
"@  c #36291A",
"#  c #3A281D",
"$  c #3B2A1D",
"%  c #3C281E",
"&  c #3F301A",
"*  c #2E2927",
"=  c #2F2A28",
"-  c #312D2A",
";  c #322E2B",
":  c #332E2C",
">  c #332F2C",
",  c #383331",
"<  c #3E3A38",
"1  c #422B1F",
"2  c #432C1F",
"3  c #422D1F",
"4  c #4B3917",
"5  c #442C20",
"6  c #574310",
"7  c #484441",
"8  c #4E4B4A",
"9  c #524F4D",
"0  c #5B5756",
"q  c #5E5B58",
"w  c #5E5B5A",
"e  c #5F5C5A",
"r  c #605E5C",
"t  c #615E5D",
"y  c #64615F",
"u  c #646160",
"i  c #676563",
"p  c #686564",
"a  c #6B6967",
"s  c #6B6968",
"d  c #6D6A68",
"f  c #716E6D",
"g  c #72706F",
"h  c #787675",
"j  c #797776",
"k  c #7A7776",
"l  c #7B7877",
"z  c #7D7A79",
"x  c #7E7B7A",
"c  c #7F7D7C",
"v  c #7F7D7D",
"b  c #9A7709",
"n  c #9C5935",
"m  c #AC6538",
"M  c #B3653B",
"N  c #B7673C",
"B  c #BC6E3C",
"V  c #B87038",
"C  c #C07836",
"Z  c #C1753A",
"A  c #C67C38",
"S  c #BF7343",
"D  c #817F7E",
"F  c #B98E06",
"G  c #BA8F06",
"H  c #BB8F06",
"J  c #BC9005",
"K  c #AB851D",
"L  c #D8A102",
"P  c #E8AD01",
"I  c #EAAE00",
"U  c #EBAF00",
"Y  c #C78235",
"T  c #CB8436",
"R  c #D08A33",
"E  c #D28C34",
"W  c #D39132",
"Q  c #D79433",
"!  c #968A72",
"~  c #AF9F7E",
"^  c #C7824C",
"/  c #CF9157",
"(  c #D79F62",
")  c #DFAD6D",
"_  c #C8B67E",
"`  c #E6BA7B",
"'  c #848281",
"]  c #848381",
"[  c #858483",
"{  c #8A8887",
"}  c #8B8A89",
"|  c #8C8A89",
" . c #8C8B8A",
".. c #8E8D8B",
"X. c #939291",
"o. c #979695",
"O. c #9A9998",
"+. c #9B9998",
"@. c #9C9A99",
"#. c #B09F85",
"$. c #B1A385",
"%. c #ABAAA9",
"&. c #AFAEAD",
"*. c #B1B0AF",
"=. c #B3B2B1",
"-. c #BBBAB9",
";. c #BDBDBC",
":. c #C0BFBF",
">. c #EDCC81",
",. c #E9C688",
"<. c #EDCA8F",
"1. c #F2D187",
"2. c #F3D38D",
"3. c #EECD94",
"4. c #EFCF98",
"5. c #F3D592",
"6. c #F7DD91",
"7. c #F0D29D",
"8. c #F4D898",
"9. c #F4D99B",
"0. c #F5DA9F",
"q. c #F1D4A3",
"w. c #F1D5A5",
"e. c #F0D6A7",
"r. c #F3DCB3",
"t. c #F4DEB8",
"y. c #F7E3B6",
"u. c #C1C0C0",
"i. c #C8C7C7",
"p. c #C8C8C7",
"a. c #CECDCD",
"s. c #FAEEDA",
"d. c #FCF3DE",
"f. c #E4E3E3",
"g. c None",
/* pixels */
"g.g.g.g.g.-., = g.g.g.g.g.g.g.g.g.g.g.g.g.g.",
"g.g.g.g.7 f.;.f 9 g.g.g.g.g.g.g.g.g.g.g.g.g.",
"g.. 6 4 & @ o o @ # 5 # g.g.g.g.g.g.g.g.g.g.",
"g._ 6.d.s.` ) ( / ^ S M + g.g.g.          g.",
"g.J U y.t.Q E T A Z B N 5 g.g.g.          g.",
"g.J P $.r.Q E T A Z B N 5 g.g.g.          g.",
"g.H K ! $.Q E T A Z B N 5 g.g.g.          g.",
"g.H P ~ e.Q E T A Z B N 5 g.g.g.          g.",
"g.H U 0.e.Q E T A Z B N 2 g.g.g.          g.",
"g.H U 9.q.Q E T A Z B N 2 g.g.g.          g.",
"g.H U 8.7.Q E T A Z B N 2 g.g.g.          g.",
"g.H U 5.4.Q E T A Z B N 2 g.g.g.          g.",
"g.H P 2.3.Q E T A Z B N 2 g.g.g.          g.",
"g.H P 1.<.Q E T A Z B N 1 g.g.g.          g.",
"g.b L >.,.W R Y C V m n # g.g.g.          g.",
"g.k ] =.&.d i u r w e r = g.g.g.          g.",
"g...=.a.i.O.X.| [ v j g > g.g.g.          g.",
"g.| z z k D X.| [ v j g > g.g.g.          g.",
"g.{ %.:.-.o.X...[ v j g > g.g.g.          g.",
"g.] *.p.:.O.X.} D h f d - g.g.g.          g.",
"g.> q @.@.a p u r 0 8 <   g.g.g.          g.",
"g.g.g.g.g.g.g.g.g.g.g.g.g.g.g.g.g.g.g.g.g.g."
};
