/* XPM */
static const char *systray_bat_050_xpm[] = {
/* columns rows colors chars-per-pixel */
"22 22 173 2 ",
"   c #1F1A17",
".  c #221A17",
"X  c #231A17",
"o  c #2C1A17",
"O  c #231C18",
"+  c #281E19",
"@  c #2D1D19",
"#  c #2A2215",
"$  c #2F2419",
"%  c #2B201D",
"&  c #2E211E",
"*  c #30241A",
"=  c #34261B",
"-  c #33241C",
";  c #36291A",
":  c #3A281D",
">  c #3B2A1D",
",  c #3C281E",
"<  c #3F301A",
"1  c #2E2927",
"2  c #2F2A28",
"3  c #312D2A",
"4  c #322E2B",
"5  c #332E2C",
"6  c #332F2C",
"7  c #383331",
"8  c #3E3A38",
"9  c #7D1F1A",
"0  c #422B1F",
"q  c #432C1F",
"w  c #422D1F",
"e  c #4B3917",
"r  c #442C20",
"t  c #7F3029",
"y  c #574310",
"u  c #484441",
"i  c #4E4B4A",
"p  c #524F4D",
"a  c #5B5756",
"s  c #5E5B58",
"d  c #5E5B5A",
"f  c #5F5C5A",
"g  c #724440",
"h  c #605E5C",
"j  c #615E5D",
"k  c #64615F",
"l  c #646160",
"z  c #676563",
"x  c #686564",
"c  c #6B6967",
"v  c #6B6968",
"b  c #6D6A68",
"n  c #716E6D",
"m  c #72706F",
"M  c #787675",
"N  c #797776",
"B  c #7A7776",
"V  c #7B7877",
"C  c #7D7A79",
"Z  c #7E7B7A",
"A  c #7F7D7C",
"S  c #7F7D7D",
"D  c #9F211B",
"F  c #BF231C",
"G  c #A33830",
"H  c #DA251D",
"J  c #9A7709",
"K  c #9D7219",
"L  c #A17419",
"P  c #A67819",
"I  c #A87A19",
"U  c #9C5935",
"Y  c #AC6538",
"T  c #B86D33",
"R  c #B56038",
"E  c #B3653B",
"W  c #B7673C",
"Q  c #BE653B",
"!  c #BC6E3C",
"~  c #B87038",
"^  c #C44036",
"/  c #DF463C",
"(  c #C27235",
")  c #C07836",
"_  c #C1753A",
"`  c #C67C38",
"'  c #854E4A",
"]  c #935551",
"[  c #BF7343",
"{  c #AA615D",
"}  c #817F7E",
"|  c #B06360",
" . c #C56E6A",
".. c #CE726F",
"X. c #B98E06",
"o. c #BA8F06",
"O. c #BB8F06",
"+. c #BC9005",
"@. c #AB851D",
"#. c #BE891A",
"$. c #C29905",
"%. c #C8901A",
"&. c #CCA104",
"*. c #D8A102",
"=. c #E8AD01",
"-. c #EAAE00",
";. c #EBAF00",
":. c #C78235",
">. c #CB8436",
",. c #D08A33",
"<. c #D28C34",
"1. c #D39132",
"2. c #D79433",
"3. c #968A72",
"4. c #AF9F7E",
"5. c #C7824C",
"6. c #CF9157",
"7. c #D79F62",
"8. c #EA817D",
"9. c #DFAD6D",
"0. c #C8B67E",
"q. c #E6BA7B",
"w. c #848281",
"e. c #848381",
"r. c #858483",
"t. c #8A8887",
"y. c #8B8A89",
"u. c #8C8A89",
"i. c #8C8B8A",
"p. c #8E8D8B",
"a. c #939291",
"s. c #979695",
"d. c #9A9998",
"f. c #9B9998",
"g. c #9C9A99",
"h. c #B09F85",
"j. c #B1A385",
"k. c #ABAAA9",
"l. c #AFAEAD",
"z. c #B1B0AF",
"x. c #B3B2B1",
"c. c #BBBAB9",
"v. c #BDBDBC",
"b. c #D2898D",
"n. c #EF9BA0",
"m. c #C0BFBF",
"M. c #EDCC81",
"N. c #E9C688",
"B. c #EDCA8F",
"V. c #F2D187",
"C. c #F3D38D",
"Z. c #EECD94",
"A. c #EFCF98",
"S. c #F3D592",
"D. c #F7DD91",
"F. c #F0D29D",
"G. c #F4D898",
"H. c #F4D99B",
"J. c #F5DA9F",
"K. c #F1D4A3",
"L. c #F1D5A5",
"P. c #F0D6A7",
"I. c #F3DCB3",
"U. c #F4DEB8",
"Y. c #F7E3B6",
"T. c #C1C0C0",
"R. c #C8C7C7",
"E. c #C8C8C7",
"W. c #CECDCD",
"Q. c #FAEEDA",
"!. c #FCF3DE",
"~. c #E4E3E3",
"^. c None",
/* pixels */
"^.^.^.^.^.c.7 2 ^.^.^.^.^.^.^.^.^.^.^.^.^.^.",
"^.^.^.^.u ~.v.n p ^.^.^.^.^.^.^.^.^.^.^.^.^.",
"^.# y e < ; * * ; : r : ^.^.^.^.^.^.^.^.^.^.",
"^.0.D.!.Q.q.9.7.6.5.[ E - ^.^.^.          ^.",
"^.+.;.Y.U.2.<.>.` _ ! W r ^.^.^.          ^.",
"^.+.=.j.I.2.<.>.` _ ! W r ^.^.^.          ^.",
"^.O.@.3.j.2.<.>.` _ ! W r ^.^.^.          ^.",
"^.O.=.4.P.2.<.>.` _ ! W r ^.^.^.          ^.",
"^.O.;.J.P.2.<.>.` _ ! W q ^.^.^.          ^.",
"^.O.;.H.K.2.<.>.` _ ! W q ^.^.^.          ^.",
"^.O.;.G.F.2.<.>.` _ ! W q ^.^.^.          ^.",
"^.O.;.S.A.2.<.>.` _ ! W q ^.^.^.          ^.",
"^.O.=.C.Z.2.<.>.` _ ! W q ^.^.^.P %.%.( Q + ",
"^.O.=.V.B.2.<.>.` _ ! W 0 ^.^.^.K $.#.T R + ",
"^.J *.M.N.1.,.:.) ~ Y U : ^.^.^.L #.#.T R O ",
"^.B e.x.l.b z l h d f h 2 ^.^.^.I &.%.( Q O ",
"^.p.x.W.R.d.a.u.r.S N m 6 ^.^.^.] { { G D ^.",
"^.u.C C B } a.u.r.S N m 6 ^.^.^.| b...^ F ^.",
"^.t.k.m.c.s.a.p.r.S N m 6 ^.^.^.g ' ' t 9 X ",
"^.e.z.E.m.d.a.y.} M n b 3 ^.^.^. .n.8./ H X ",
"^.6 s g.g.c x l h a i 8   ^.^.^.% & & @ o ^.",
"^.^.^.^.^.^.^.^.^.^.^.^.^.^.^.^.^.^.^.^.^.^."
};
