/* XPM */
static const char *systray_bat_075_xpm[] = {
/* columns rows colors chars-per-pixel */
"22 22 195 2 ",
"   c #1F1A17",
".  c #221A17",
"X  c #231A17",
"o  c #2C1A17",
"O  c #231C18",
"+  c #281E19",
"@  c #2D1D19",
"#  c #2A2215",
"$  c #21211C",
"%  c #21231D",
"&  c #22241E",
"*  c #2F2419",
"=  c #2B201D",
"-  c #2E211E",
";  c #30241A",
":  c #34261B",
">  c #33241C",
",  c #36291A",
"<  c #3A281D",
"1  c #3B2A1D",
"2  c #3C281E",
"3  c #3F301A",
"4  c #232720",
"5  c #2E2927",
"6  c #2F2A28",
"7  c #312D2A",
"8  c #322E2B",
"9  c #332E2C",
"0  c #332F2C",
"q  c #383331",
"w  c #3E3A38",
"e  c #7D1F1A",
"r  c #422B1F",
"t  c #432C1F",
"y  c #422D1F",
"u  c #4B3917",
"i  c #442C20",
"p  c #7F3029",
"a  c #574310",
"s  c #48652A",
"d  c #4D6E2C",
"f  c #557C30",
"g  c #567F30",
"h  c #36664D",
"j  c #396D52",
"k  c #3E7E5F",
"l  c #484441",
"z  c #4E4B4A",
"x  c #524F4D",
"c  c #5B5756",
"v  c #5E5B58",
"b  c #5E5B5A",
"n  c #5F5C5A",
"m  c #724440",
"M  c #605E5C",
"N  c #615E5D",
"B  c #406D47",
"V  c #43754B",
"C  c #64615F",
"Z  c #646160",
"A  c #676563",
"S  c #686564",
"D  c #6B6967",
"F  c #6B6968",
"G  c #6D6A68",
"H  c #716E6D",
"J  c #72706F",
"K  c #787675",
"L  c #797776",
"P  c #7A7776",
"I  c #7B7877",
"U  c #7D7A79",
"Y  c #7E7B7A",
"T  c #7F7D7C",
"R  c #7F7D7D",
"E  c #9F211B",
"W  c #BF231C",
"Q  c #A33830",
"!  c #DA251D",
"~  c #9A7709",
"^  c #9D7219",
"/  c #A17419",
"(  c #A67819",
")  c #A87A19",
"_  c #9C5935",
"`  c #AC6538",
"'  c #B86D33",
"]  c #B56038",
"[  c #B3653B",
"{  c #B7673C",
"}  c #BE653B",
"|  c #BC6E3C",
" . c #B87038",
".. c #C44036",
"X. c #DF463C",
"o. c #C27235",
"O. c #C07836",
"+. c #C1753A",
"@. c #C67C38",
"#. c #854E4A",
"$. c #935551",
"%. c #BF7343",
"&. c #AA615D",
"*. c #817F7E",
"=. c #B06360",
"-. c #C56E6A",
";. c #CE726F",
":. c #588231",
">. c #5A8632",
",. c #669020",
"<. c #669C38",
"1. c #79B023",
"2. c #6AA339",
"3. c #4B8856",
"4. c #4D8E5A",
"5. c #408463",
"6. c #B98E06",
"7. c #BA8F06",
"8. c #BB8F06",
"9. c #BC9005",
"0. c #AB851D",
"q. c #BE891A",
"w. c #C29905",
"e. c #C8901A",
"r. c #CCA104",
"t. c #D8A102",
"y. c #E8AD01",
"u. c #EAAE00",
"i. c #EBAF00",
"p. c #C78235",
"a. c #CB8436",
"s. c #D08A33",
"d. c #D28C34",
"f. c #D39132",
"g. c #D79433",
"h. c #968A72",
"j. c #AF9F7E",
"k. c #C7824C",
"l. c #CF9157",
"z. c #D79F62",
"x. c #EA817D",
"c. c #DFAD6D",
"v. c #C8B67E",
"b. c #E6BA7B",
"n. c #848281",
"m. c #848381",
"M. c #858483",
"N. c #8A8887",
"B. c #8B8A89",
"V. c #8C8A89",
"C. c #8C8B8A",
"Z. c #8E8D8B",
"A. c #939291",
"S. c #979695",
"D. c #9A9998",
"F. c #9B9998",
"G. c #9C9A99",
"H. c #B09F85",
"J. c #B1A385",
"K. c #ABAAA9",
"L. c #AFAEAD",
"P. c #B1B0AF",
"I. c #B3B2B1",
"U. c #BBBAB9",
"Y. c #BDBDBC",
"T. c #D2898D",
"R. c #EF9BA0",
"E. c #C0BFBF",
"W. c #EDCC81",
"Q. c #E9C688",
"!. c #EDCA8F",
"~. c #F2D187",
"^. c #F3D38D",
"/. c #EECD94",
"(. c #EFCF98",
"). c #F3D592",
"_. c #F7DD91",
"`. c #F0D29D",
"'. c #F4D898",
"]. c #F4D99B",
"[. c #F5DA9F",
"{. c #F1D4A3",
"}. c #F1D5A5",
"|. c #F0D6A7",
" X c #F3DCB3",
".X c #F4DEB8",
"XX c #F7E3B6",
"oX c #C1C0C0",
"OX c #C8C7C7",
"+X c #C8C8C7",
"@X c #CECDCD",
"#X c #FAEEDA",
"$X c #FCF3DE",
"%X c #E4E3E3",
"&X c None",
/* pixels */
"&X&X&X&X&XU.q 6 &X&X&X&X&X&X&X&X&X&X&X&X&X&X",
"&X&X&X&Xl %XY.H x &X&X&X&X&X&X&X&X&X&X&X&X&X",
"&X# a u 3 , ; ; , < i < &X&X&X&X&X&X&X&X&X&X",
"&Xv._.$X#Xb.c.z.l.k.%.[ > &X&X&X          &X",
"&X9.i.XX.Xg.d.a.@.+.| { i &X&X&X        X &X",
"&X9.y.J. Xg.d.a.@.+.| { i &X&X&X          &X",
"&X8.0.h.J.g.d.a.@.+.| { i &X&X&X          &X",
"&X8.y.j.|.g.d.a.@.+.| { i &X&X&X          &X",
"&X8.i.[.|.g.d.a.@.+.| { t &X&X&X:.1.2.4.5.4 ",
"&X8.i.].{.g.d.a.@.+.| { t &X&X&Xs g f h h & ",
"&X8.i.'.`.g.d.a.@.+.| { t &X&X&Xg <.<.3.5.& ",
"&X8.i.).(.g.d.a.@.+.| { t &X&X&Xd ,.>.V j O ",
"&X8.y.^./.g.d.a.@.+.| { t &X&X&X( e.e.o.} + ",
"&X8.y.~.!.g.d.a.@.+.| { r &X&X&X^ w.q.' ] + ",
"&X~ t.W.Q.f.s.p.O. .` _ < &X&X&X/ q.q.' ] O ",
"&XP m.I.L.G A Z M b n M 6 &X&X&X) r.e.o.} O ",
"&XZ.I.@XOXD.A.V.M.R L J 0 &X&X&X$.&.&.Q E &X",
"&XV.U U P *.A.V.M.R L J 0 &X&X&X=.T.;...W &X",
"&XN.K.E.U.S.A.Z.M.R L J 0 &X&X&Xm #.#.p e X ",
"&Xm.P.+XE.D.A.B.*.K H G 7 &X&X&X-.R.x.X.! X ",
"&X0 v G.G.D S Z M c z w   &X&X&X= - - @ o &X",
"&X&X&X&X&X&X&X&X&X&X&X&X&X&X&X&X&X&X&X&X&X&X"
};
