/* XPM */
static const char *systray_bat_100_xpm[] = {
/* columns rows colors chars-per-pixel */
"22 22 215 2 ",
"   c #1F1A17",
".  c #221A17",
"X  c #231A17",
"o  c #2C1A17",
"O  c #231C18",
"+  c #281E19",
"@  c #2D1D19",
"#  c #2A2215",
"$  c #21211C",
"%  c #21231D",
"&  c #22241E",
"*  c #2F2419",
"=  c #2B201D",
"-  c #2E211E",
";  c #30241A",
":  c #34261B",
">  c #33241C",
",  c #36291A",
"<  c #3A281D",
"1  c #3B2A1D",
"2  c #3C281E",
"3  c #3F301A",
"4  c #232620",
"5  c #232720",
"6  c #242B23",
"7  c #252F26",
"8  c #2E2927",
"9  c #2F2A28",
"0  c #312D2A",
"q  c #322E2B",
"w  c #332E2C",
"e  c #332F2C",
"r  c #383331",
"t  c #3E3A38",
"y  c #7D1F1A",
"u  c #422B1F",
"i  c #432C1F",
"p  c #422D1F",
"a  c #4B3917",
"s  c #442C20",
"d  c #7F3029",
"f  c #574310",
"g  c #405726",
"h  c #445E28",
"j  c #48652A",
"k  c #4D6E2C",
"l  c #51752E",
"z  c #557C30",
"x  c #567F30",
"c  c #335B45",
"v  c #3B6140",
"b  c #3E6743",
"n  c #356049",
"m  c #36664D",
"M  c #396D52",
"N  c #3E7E5F",
"B  c #484441",
"V  c #4E4B4A",
"C  c #524F4D",
"Z  c #5B5756",
"A  c #5E5B58",
"S  c #5E5B5A",
"D  c #5F5C5A",
"F  c #724440",
"G  c #605E5C",
"H  c #615E5D",
"J  c #406D47",
"K  c #43754B",
"L  c #64615F",
"P  c #646160",
"I  c #676563",
"U  c #686564",
"Y  c #6B6967",
"T  c #6B6968",
"R  c #6D6A68",
"E  c #716E6D",
"W  c #72706F",
"Q  c #787675",
"!  c #797776",
"~  c #7A7776",
"^  c #7B7877",
"/  c #7D7A79",
"(  c #7E7B7A",
")  c #7F7D7C",
"_  c #7F7D7D",
"`  c #9F211B",
"'  c #BF231C",
"]  c #A33830",
"[  c #DA251D",
"{  c #9A7709",
"}  c #9D7219",
"|  c #A17419",
" . c #A67819",
".. c #A87A19",
"X. c #9C5935",
"o. c #AC6538",
"O. c #B86D33",
"+. c #B56038",
"@. c #B3653B",
"#. c #B7673C",
"$. c #BE653B",
"%. c #BC6E3C",
"&. c #B87038",
"*. c #C44036",
"=. c #DF463C",
"-. c #C27235",
";. c #C07836",
":. c #C1753A",
">. c #C67C38",
",. c #854E4A",
"<. c #935551",
"1. c #BF7343",
"2. c #AA615D",
"3. c #817F7E",
"4. c #B06360",
"5. c #C56E6A",
"6. c #CE726F",
"7. c #588231",
"8. c #5A8632",
"9. c #5A8732",
"0. c #5C8A33",
"q. c #669020",
"w. c #669C38",
"e. c #79B023",
"r. c #7FBA24",
"t. c #6AA339",
"y. c #6FAD3C",
"u. c #73B43E",
"i. c #4B8856",
"p. c #4D8E5A",
"a. c #50965E",
"s. c #408463",
"d. c #428B68",
"f. c #44916C",
"g. c #539C62",
"h. c #B98E06",
"j. c #BA8F06",
"k. c #BB8F06",
"l. c #BC9005",
"z. c #AB851D",
"x. c #BE891A",
"c. c #C29905",
"v. c #C8901A",
"b. c #CCA104",
"n. c #D8A102",
"m. c #E8AD01",
"M. c #EAAE00",
"N. c #EBAF00",
"B. c #C78235",
"V. c #CB8436",
"C. c #D08A33",
"Z. c #D28C34",
"A. c #D39132",
"S. c #D79433",
"D. c #84C225",
"F. c #968A72",
"G. c #AF9F7E",
"H. c #C7824C",
"J. c #CF9157",
"K. c #D79F62",
"L. c #EA817D",
"P. c #DFAD6D",
"I. c #C8B67E",
"U. c #E6BA7B",
"Y. c #848281",
"T. c #848381",
"R. c #858483",
"E. c #8A8887",
"W. c #8B8A89",
"Q. c #8C8A89",
"!. c #8C8B8A",
"~. c #8E8D8B",
"^. c #939291",
"/. c #979695",
"(. c #9A9998",
"). c #9B9998",
"_. c #9C9A99",
"`. c #B09F85",
"'. c #B1A385",
"]. c #ABAAA9",
"[. c #AFAEAD",
"{. c #B1B0AF",
"}. c #B3B2B1",
"|. c #BBBAB9",
" X c #BDBDBC",
".X c #D2898D",
"XX c #EF9BA0",
"oX c #C0BFBF",
"OX c #EDCC81",
"+X c #E9C688",
"@X c #EDCA8F",
"#X c #F2D187",
"$X c #F3D38D",
"%X c #EECD94",
"&X c #EFCF98",
"*X c #F3D592",
"=X c #F7DD91",
"-X c #F0D29D",
";X c #F4D898",
":X c #F4D99B",
">X c #F5DA9F",
",X c #F1D4A3",
"<X c #F1D5A5",
"1X c #F0D6A7",
"2X c #F3DCB3",
"3X c #F4DEB8",
"4X c #F7E3B6",
"5X c #C1C0C0",
"6X c #C8C7C7",
"7X c #C8C8C7",
"8X c #CECDCD",
"9X c #FAEEDA",
"0X c #FCF3DE",
"qX c #E4E3E3",
"wX c None",
/* pixels */
"wXwXwXwXwX|.r 9 wXwXwXwXwXwXwXwXwXwXwXwXwXwX",
"wXwXwXwXB qX XE C wXwXwXwXwXwXwXwXwXwXwXwXwX",
"wX# f a 3 , ; ; , < s < wXwXwXwXwXwXwXwXwXwX",
"wXI.=X0X9XU.P.K.J.H.1.@.> wXwXwX          wX",
"wXl.N.4X3XS.Z.V.>.:.%.#.s wXwXwX0.D.u.g.f.7 ",
"wXl.m.'.2XS.Z.V.>.:.%.#.s wXwXwXg k k v c & ",
"wXk.z.F.'.S.Z.V.>.:.%.#.s wXwXwX8.r.y.a.d.6 ",
"wXk.m.G.1XS.Z.V.>.:.%.#.s wXwXwXh l l b n & ",
"wXk.N.>X1XS.Z.V.>.:.%.#.i wXwXwX7.e.t.p.s.6 ",
"wXk.N.:X,XS.Z.V.>.:.%.#.i wXwXwXj x z b m & ",
"wXk.N.;X-XS.Z.V.>.:.%.#.i wXwXwXx w.w.i.N & ",
"wXk.N.*X&XS.Z.V.>.:.%.#.i wXwXwXk q.8.K M & ",
"wXk.m.$X%XS.Z.V.>.:.%.#.i wXwXwX .v.v.-.$.+ ",
"wXk.m.#X@XS.Z.V.>.:.%.#.u wXwXwX} c.x.O.+.+ ",
"wX{ n.OX+XA.C.B.;.&.o.X.< wXwXwX| x.x.O.+.O ",
"wX~ T.}.[.R I P G S D G 9 wXwXwX..b.v.-.$.O ",
"wX~.}.8X6X(.^.Q.R._ ! W e wXwXwX<.2.2.] ` wX",
"wXQ./ / ~ 3.^.Q.R._ ! W e wXwXwX4..X6.*.' wX",
"wXE.].oX|./.^.~.R._ ! W e wXwXwXF ,.,.d y X ",
"wXT.{.7XoX(.^.W.3.Q E R 0 wXwXwX5.XXL.=.[ X ",
"wXe A _._.Y U P G Z V t   wXwXwX= - - @ o wX",
"wXwXwXwXwXwXwXwXwXwXwXwXwXwXwXwXwXwXwXwXwXwX"
};
