/* XPM */
static char *out_29[] = {
/* columns rows colors chars-per-pixel */
"48 48 225 2 ",
"   c black",
".  c #040404",
"X  c gray2",
"o  c #191204",
"O  c #1A1305",
"+  c #1B1406",
"@  c #1C1506",
"#  c #1C1507",
"$  c #1E1709",
"%  c #20190B",
"&  c #30230A",
"*  c #32250A",
"=  c #33260A",
"-  c #34260A",
";  c #35270B",
":  c #33270C",
">  c #35280C",
",  c #36280C",
"<  c #382B0D",
"1  c #3A2C0E",
"2  c #372B10",
"3  c #3B2D10",
"4  c #3B2E11",
"5  c #3C2E13",
"6  c #3B2F14",
"7  c #322B1F",
"8  c #3B3016",
"9  c #43320E",
"0  c #44330F",
"q  c #47350F",
"w  c #493710",
"e  c #4D3A11",
"r  c #4E3B11",
"t  c #4F3B11",
"y  c #4C3912",
"u  c #43361C",
"i  c #503C11",
"p  c #523E13",
"a  c #5C4514",
"s  c #57441B",
"d  c #634A16",
"f  c #664D16",
"g  c #674D17",
"h  c #6A4F17",
"j  c #6B5119",
"k  c #6E5319",
"l  c #6F541C",
"z  c #72561A",
"x  c #73561A",
"c  c #7E5F1C",
"v  c #7D5E1E",
"b  c #7F601D",
"n  c #5D4A22",
"m  c #6F5722",
"M  c #6F5D34",
"N  c #705F3A",
"B  c #7B6330",
"V  c #7C6432",
"C  c #7D6533",
"Z  c #82621E",
"A  c #83631E",
"S  c #87661F",
"D  c #89681F",
"F  c #8B6920",
"G  c #8C6A20",
"H  c #8F6C21",
"J  c #8A6B28",
"K  c #926E22",
"L  c #936F22",
"P  c #977223",
"I  c #9A7423",
"U  c #9E7725",
"Y  c #836C3D",
"T  c #997C3F",
"R  c #A07925",
"E  c #A17925",
"W  c #A37B26",
"Q  c #A77E27",
"!  c #8C774B",
"~  c #9A7D41",
"^  c #A98027",
"/  c #AA8128",
"(  c #AB8228",
")  c #AD8228",
"_  c #B08529",
"`  c #B08629",
"'  c #B18629",
"]  c #B1862A",
"[  c #B5892B",
"{  c #B78B2B",
"}  c #B88C2B",
"|  c #B98C2B",
" . c #BB8E2C",
".. c #BB8E2D",
"X. c #BE902D",
"o. c #BF912D",
"O. c #B48E3D",
"+. c #C4942E",
"@. c #C7972F",
"#. c #C9982F",
"$. c #CA992F",
"%. c #C49530",
"&. c #CB9A30",
"*. c #CC9A30",
"=. c #CE9C30",
"-. c #CF9D31",
";. c #D09E31",
":. c #D19F31",
">. c #D2A031",
",. c #D3A032",
"<. c #D4A132",
"1. c #D5A232",
"2. c #D8A433",
"3. c #D9A533",
"4. c #DAA633",
"5. c #DBA634",
"6. c #DAA737",
"7. c #DEA834",
"8. c #DFA934",
"9. c #DCAA3B",
"0. c #E0AA35",
"q. c #E1AB35",
"w. c #E2AB35",
"e. c #E3AC35",
"r. c #E4AD36",
"t. c #E5AE36",
"y. c #E6AE36",
"u. c #E7AF36",
"i. c #E8B037",
"p. c #E9B137",
"a. c #EAB137",
"s. c #ECB337",
"d. c #EEB438",
"f. c #EFB538",
"g. c #EEB539",
"h. c #F0B638",
"j. c #F1B739",
"k. c #F2B739",
"l. c #F3B839",
"z. c #F4B939",
"x. c #F5BA3A",
"c. c #F6BA3A",
"v. c #F7BB3A",
"b. c #F8BC3A",
"n. c #F9BD3B",
"m. c #F9BD3C",
"M. c #F9BD3D",
"N. c #F9BE3E",
"B. c #F9BE3F",
"V. c #9C8045",
"C. c #B5954F",
"Z. c #A28750",
"A. c #A9905D",
"S. c #A9915E",
"D. c #B69652",
"F. c #B79855",
"G. c #C29A42",
"H. c #CFA549",
"J. c #EFBA47",
"K. c #F9BE40",
"L. c #F9BF41",
"P. c #F9BF42",
"I. c #F9BF43",
"U. c #F3BD49",
"Y. c #C0A56A",
"T. c #D0B16D",
"R. c #D4B471",
"E. c #E5BF6B",
"W. c #F9C045",
"Q. c #F9C046",
"!. c #F9C148",
"~. c #F9C24B",
"^. c #F8C24C",
"/. c #F9C24C",
"(. c #F9C34E",
"). c #EFC05B",
"_. c #F9C450",
"`. c #F9C451",
"'. c #F9C554",
"]. c #F9C75A",
"[. c #F9C75B",
"{. c #FAC85D",
"}. c #DFC07E",
"|. c #FAC960",
" X c #FAC961",
".X c #FACA64",
"XX c #FACB65",
"oX c #FACB66",
"OX c #FACC67",
"+X c #FACC69",
"@X c #FACD6A",
"#X c #FACD6B",
"$X c #FACD6C",
"%X c #FACE6D",
"&X c #FACE6E",
"*X c #E8C67B",
"=X c #E8C77E",
"-X c #FACE70",
";X c #FACF73",
":X c #FAD073",
">X c #FAD075",
",X c #FAD076",
"<X c #FAD177",
"1X c #FAD178",
"2X c #FAD179",
"3X c #FAD27B",
"4X c #FBD37C",
"5X c #FBD37D",
"6X c #E9C982",
"7X c #FBD480",
"8X c #FBD582",
"9X c #FBD583",
"0X c #FBD584",
"qX c #FBD687",
"wX c #FBD788",
"eX c #FBD78A",
"rX c #FBD88D",
"tX c #FBD98E",
"yX c #FBD991",
"uX c #FBDA92",
"iX c #FBDB94",
"pX c #FBDC99",
"aX c #FBDD9A",
"sX c #FCE0A4",
"dX c None",
/* pixels */
"dXdXdXdXdXdXdXdXdXdXdXdXdXdXdXdXdXdXdXdXdXdXdXdXdXdXdXdXdXdXdXdXdXdXdXdXdXdXdXdXdXdXdXdXdXdXdXdX",
"dXdXdXdXdXdXdXdXdXdXdXdXdXdXdXdXdXdXdXdXdXdXdXdXdXdXdXdXdXdXdXdXdXdXdXdXdXdXdXdXdXdXdXdXdXdXdXdX",
"dXdXdXdXdXdXdXdXdXdXdXdXdXdXdXdXdXdXdXdXdXdXdXdXdXdXdXdXdXdXdXdXdXdXdXdXdXdXdXdXdXdXdXdXdXdXdXdX",
"dXdXdXdXdXdXdXdXdXdXdXdXdXdXdXdXdXdXdX            dXdXdXdXdXdXdXdXdXdXdXdXdXdXdXdXdXdXdXdXdXdXdX",
"dXdXdXdXdXdXdXdXdXdXdXdXdXdXdXdX                      dXdXdXdXdXdXdXdXdXdXdXdXdXdXdXdXdXdXdXdXdX",
"dXdXdXdXdXdXdXdXdXdXdXdXdXdXdX                            dXdXdXdXdXdXdXdXdXdXdXdXdXdXdXdXdXdXdX",
"dXdXdXdXdXdXdXdXdXdXdXdXdX                                  dXdXdXdXdXdXdXdXdXdXdXdXdXdXdXdXdXdX",
"dXdXdXdXdXdXdXdXdXdXdXdX              + B D.D.s                 dXdXdXdXdXdXdXdXdXdXdXdXdXdXdXdX",
"dXdXdXdXdXdXdXdXdXdXdX            + ~ 0X8X;X&X).%.h               dXdXdXdXdXdXdXdXdXdXdXdXdXdXdX",
"dXdXdXdXdXdXdXdXdXdX            V yX7X{.!.N.n.b.q.,.:.;             dXdXdXdXdXdXdXdXdXdXdXdXdXdX",
"dXdXdXdXdXdXdXdXdX          # R.wX[.N.b.N.b.n.n.n.d.1.3.i           dXdXdXdXdXdXdXdXdXdXdXdXdXdX",
"dXdXdXdXdXdXdXdX          $ 6X-XN.N.n.n.n.n.n.N.n.n.n.r.X.P           dXdXdXdXdXdXdXdXdXdXdXdXdX",
"dXdXdXdXdXdXdX          $ 6X-XN.n.n.n.I.@X-X@XL.n.n.n.n.r.[ f           dXdXdXdXdXdXdXdXdXdXdXdX",
"dXdXdXdXdXdXdX          Y.&XL.n.n.n.N.2XiXrXeX Xn.n.n.n.n.q. .t           dXdXdXdXdXdXdXdXdXdXdX",
"dXdXdXdXdXdX          Z.>X!.n.n.n.N.oXsXM     l n.n.n.n.n.n.1.^ o         dXdXdXdXdXdXdXdXdXdXdX",
"dXdXdXdXdXdX        u 8X(.n.n.n.n.N.tXN         k q.n.n.n.n.n.-.W           dXdXdXdXdXdXdXdXdXdX",
"dXdXdXdXdX        X =X Xn.n.n.n.n.!.pX            3.z.n.n.n.n.z.+.d           dXdXdXdXdXdXdXdXdX",
"dXdXdXdX          ! >Xn.n.n.n.n.n.oXaX            :.f.n.n.n.n.n.p. .o         dXdXdXdXdXdXdXdXdX",
"dXdXdXdX        7 0X!.N.n.n.n.n.n.&X}.            ^ i.n.n.n.n.n.n.,.U           dXdXdXdXdXdXdXdX",
"dXdXdX        X A._.n.n.n.n.n.n.n.oX4X             .d.N.n.n.n.n.n.z.-.*         dXdXdXdXdXdXdXdX",
"dXdXdX        7 2Xn.n.n.n.n.n.n.n.oX2X            +.j.n.n.n.n.n.n.n.r.)           dXdXdXdXdXdXdX",
"dXdXdX        A._.N.n.n.n.n.n.n.n.{.2X2         , *.z.n.n.n.n.n.n.n.n.3.;         dXdXdXdXdXdXdX",
"dXdX        % 7XN.n.n.n.n.n.n.n.n.!.>Xm         j 3.n.n.n.n.n.n.n.n.n.8._           dXdXdXdXdXdX",
"dXdX        Y oXn.n.n.n.n.n.n.n.n.N.&XG.        _ q.n.n.n.n.n.n.n.n.l.z.,.;         dXdXdXdXdXdX",
"dX          *XQ.n.n.n.n.n.n.n.n.n.n._.@X#     + #.j.n.n.n.n.n.n.n.n.n.n.q.K         dXdXdXdXdXdX",
"dX        5 >Xn.n.n.n.n.n.n.n.n.n.n.n.].J     z #.z.n.n.n.n.n.n.n.n.n.z.p.+.          dXdXdXdXdX",
"dX        V.oXn.n.n.n.n.n.n.n.n.n.n.n.N.N.i t &.j.n.n.n.n.n.n.n.n.n.n.n.n.p.t         dXdXdXdXdX",
"dX        E._.n.n.n.n.n.n.n.n.n.n.n.N.!.!.J.9.d.n.n.n.n.n.n.n.n.n.n.n.n.n.z.K         dXdXdXdXdX",
"        $ 5XL.b.n.n.n.n.n.n.n.n.n.n.!.;XqXuXqXI.n.n.n.n.n.n.n.n.n.n.n.n.n.n.8.        dXdXdXdXdX",
"        n @Xn.n.n.n.n.n.n.n.n.n.n.n.-XT.6   1  .j.z.n.n.n.n.n.n.n.n.n.n.n.n.q.t         dXdXdXdX",
"        T oXn.n.n.n.n.n.n.n.n.n.N.L.wX8       ; #.r.n.n.n.n.n.n.n.n.n.n.n.n.r.h         dXdXdXdX",
"        F.'.n.n.n.n.n.n.n.n.n.n.n.I.>X          +.r.n.n.n.n.n.n.n.n.n.n.n.n.r.I         dXdXdXdX",
"        C (.n.n.n.n.n.n.n.n.n.n.n.N.].4       1 [ l.n.n.n.n.n.n.n.n.n.n.n.n.3.D         dXdXdXdX",
"        4 (.n.n.n.n.n.n.n.n.n.n.n.n.L.H.4   : P =.n.n.n.n.n.n.n.n.n.n.n.n.h.^ a         dXdXdXdX",
"dX        O.d.n.n.n.n.n.n.n.n.n.n.n.n.L.U.3.&.3.z.n.n.n.n.n.n.n.n.n.n.n.p._ U +         dXdXdXdX",
"dX          v 8.r.z.n.n.n.n.n.n.n.n.n.n.n.n.N.n.n.n.n.n.n.n.n.N.n.n.p.*.W K *           dXdXdXdX",
"dX            + f X.3.h.n.n.n.n.n.n.n.n.n.n.n.n.n.n.n.n.n.n.n.z.e.:. .Z &             dXdXdXdXdX",
"dXdX                ; v Q q.p.j.j.l.j.j.j.j.j.f.s.r.q.8.3.3.1._ Z 9                   dXdXdXdXdX",
"dXdXdX                      * q z D S _ -.,.,.:.1.K D Z 9 w                         dXdXdXdXdXdX",
"dXdXdXdX                                                                          dXdXdXdXdXdXdX",
"dXdXdXdXdXdX                                                                  dXdXdXdXdXdXdXdXdX",
"dXdXdXdXdXdXdXdXdX                                                          dXdXdXdXdXdXdXdXdXdX",
"dXdXdXdXdXdXdXdXdXdXdXdXdX                                            dXdXdXdXdXdXdXdXdXdXdXdXdX",
"dXdXdXdXdXdXdXdXdXdXdXdXdXdXdXdXdXdXdXdXdXdXdXdXdXdXdXdXdXdXdXdXdXdXdXdXdXdXdXdXdXdXdXdXdXdXdXdX",
"dXdXdXdXdXdXdXdXdXdXdXdXdXdXdXdXdXdXdXdXdXdXdXdXdXdXdXdXdXdXdXdXdXdXdXdXdXdXdXdXdXdXdXdXdXdXdXdX",
"dXdXdXdXdXdXdXdXdXdXdXdXdXdXdXdXdXdXdXdXdXdXdXdXdXdXdXdXdXdXdXdXdXdXdXdXdXdXdXdXdXdXdXdXdXdXdXdX",
"dXdXdXdXdXdXdXdXdXdXdXdXdXdXdXdXdXdXdXdXdXdXdXdXdXdXdXdXdXdXdXdXdXdXdXdXdXdXdXdXdXdXdXdXdXdXdXdX",
"dXdXdXdXdXdXdXdXdXdXdXdXdXdXdXdXdXdXdXdXdXdXdXdXdXdXdXdXdXdXdXdXdXdXdXdXdXdXdXdXdXdXdXdXdXdXdXdX"
};
